<svg width="100%" height="100%" id="Capa_1" enable-background="new 0 0 512 512" viewBox="0 0 512 512"
     xmlns="http://www.w3.org/2000/svg" aria-label="Sol">
    <g>
        <circle cx="256" cy="256" fill="#92ccf7" r="256"/>
        <path d="m314.888 241.358-44.242-44.242-176.455 176.454 137.252 137.251c8.083.77 16.272 1.179 24.557 1.179 141.385 0 256-114.615 256-256 0-8.285-.409-16.474-1.178-24.557l-93.01-93.01z"
              fill="#6cb1f8"/>
        <path d="m194.183 65.739-43.983 44.62-56.012 28.072-9.426 61.928-28.762 55.641 28.762 55.641 9.426 61.928 56.012 28.072 43.982 44.62 61.818-10.261 56.294-180-56.294-180z"
              fill="#fa0"/>
        <path d="m361.8 401.641 56.012-28.072 9.426-61.928 28.762-55.641-28.762-55.641-9.426-61.928-56.012-28.072-43.982-44.62-61.818 10.261v360l61.817 10.261z"
              fill="#ff9500"/>
        <path d="m116 256c0 77.32 62.68 140 140 140l40.682-140-40.682-140c-77.32 0-140 62.68-140 140z" fill="#f9cd16"/>
        <path d="m396 256c0-77.32-62.68-140-140-140v280c77.32 0 140-62.68 140-140z" fill="#fa0"/>
    </g>
</svg>