<?xml version="1.0" encoding="UTF-8"?>
<svg xmlns="http://www.w3.org/2000/svg" viewBox="0 0 64 64" width="100%" height="100%">
    <g id="Boliviano_Bolivia" fill="#ffffff">
        <path d="M32,11.2A20.8,20.8,0,1,0,52.8,32,20.82,20.82,0,0,0,32,11.2Zm0,39.6A18.8,18.8,0,1,1,50.8,32,18.82,18.82,0,0,1,32,50.8Z"/>
        <path d="M39.54,29.65a.69.69,0,1,1,0-1.38.67.67,0,0,1,.48.2,2.52,2.52,0,0,0,3.45,0,2.44,2.44,0,0,0,0-3.44,5.56,5.56,0,1,0-3.92,9.49.69.69,0,1,1-.49,1.18,2.52,2.52,0,0,0-3.45,0,2.43,2.43,0,0,0,0,3.44,5.56,5.56,0,1,0,3.93-9.49Zm0,9.11a3.59,3.59,0,0,1-2.52-1,.43.43,0,0,1,0-.61.44.44,0,0,1,.61,0,2.67,2.67,0,0,0,1.91.79,2.69,2.69,0,0,0,0-5.38,3.56,3.56,0,1,1,2.51-6.07.43.43,0,0,1,0,.61.47.47,0,0,1-.61,0,2.69,2.69,0,1,0-1.9,4.59,3.56,3.56,0,0,1,0,7.11Z"/>
        <path d="M33.5,34.14a7,7,0,0,0-3.89-6.28,5.39,5.39,0,0,0,.17-1.33A5.55,5.55,0,0,0,24.25,21H21.13a2.48,2.48,0,0,0-2.48,2.48V38.68a2.48,2.48,0,0,0,2.48,2.47h5.39A7,7,0,0,0,33.5,34.14Zm-7,5H21.13a.47.47,0,0,1-.48-.47V23.45a.47.47,0,0,1,.48-.48h3.12a3.55,3.55,0,0,1,3.53,3.56A3.47,3.47,0,0,1,27.45,28a1,1,0,0,0,0,.81,1,1,0,0,0,.61.56,5,5,0,0,1-1.53,9.77Z"/>
        <path d="M22.6,29.13h1.65a2.61,2.61,0,0,0,0-5.21H22.6a1,1,0,0,0-1,1v3.21A1,1,0,0,0,22.6,29.13Zm1-3.21h.65a.61.61,0,0,1,0,1.21H23.6Z"/>
        <path d="M26.52,30.09H22.6a1,1,0,0,0-1,1V37.2a1,1,0,0,0,1,1h3.92a4.06,4.06,0,0,0,0-8.11Zm0,6.11H23.6V32.09h2.92a2,2,0,0,1,2,2A2,2,0,0,1,26.52,36.2Z"/>
        <path d="M32,44a2.65,2.65,0,1,0,2.65,2.65A2.65,2.65,0,0,0,32,44Zm0,3.3a.65.65,0,1,1,.65-.65A.65.65,0,0,1,32,47.34Z"/>
        <path d="M32,20a2.65,2.65,0,1,0-2.65-2.65A2.65,2.65,0,0,0,32,20Zm0-3.3a.65.65,0,1,1-.65.65A.65.65,0,0,1,32,16.66Z"/>
        <path d="M32,3A29,29,0,1,0,61,32,29,29,0,0,0,32,3ZM55.86,44.62l-2.38-1.37a24.75,24.75,0,0,0,1.67-4L57.8,40A26.26,26.26,0,0,1,55.86,44.62Zm-4.09,5.74-1.94-1.94A25.12,25.12,0,0,0,52.47,45l2.38,1.37A27.2,27.2,0,0,1,51.77,50.36Zm-5.42,4.49L45,52.47a25.12,25.12,0,0,0,3.44-2.64l1.94,1.94A27.2,27.2,0,0,1,46.35,54.85ZM40,57.8l-.71-2.65a24.75,24.75,0,0,0,4-1.67l1.37,2.38A26.26,26.26,0,0,1,40,57.8ZM19.38,55.86l1.37-2.38a24.75,24.75,0,0,0,4,1.67l-.71,2.65A26.26,26.26,0,0,1,19.38,55.86Zm-5.74-4.09,1.94-1.94A25.12,25.12,0,0,0,19,52.47l-1.37,2.38A27.2,27.2,0,0,1,13.64,51.77ZM9.15,46.35,11.53,45a25.12,25.12,0,0,0,2.64,3.44l-1.94,1.94A27.2,27.2,0,0,1,9.15,46.35ZM6.2,40l2.65-.71a24.75,24.75,0,0,0,1.67,4L8.14,44.62A26.26,26.26,0,0,1,6.2,40ZM8.14,19.38l2.38,1.37a24.75,24.75,0,0,0-1.67,4L6.2,24.05A26.26,26.26,0,0,1,8.14,19.38Zm4.09-5.74,1.94,1.94A25.12,25.12,0,0,0,11.53,19L9.15,17.65A27.2,27.2,0,0,1,12.23,13.64Zm5.42-4.49L19,11.53a25.12,25.12,0,0,0-3.44,2.64l-1.94-1.94A27.2,27.2,0,0,1,17.65,9.15Zm6.4-2.95.71,2.65a24.75,24.75,0,0,0-4,1.67L19.38,8.14A26.26,26.26,0,0,1,24.05,6.2ZM44.62,8.14l-1.37,2.38a24.75,24.75,0,0,0-4-1.67L40,6.2A26.26,26.26,0,0,1,44.62,8.14Zm5.74,4.09-1.94,1.94A25.12,25.12,0,0,0,45,11.53l1.37-2.38A27.2,27.2,0,0,1,50.36,12.23Zm4.49,5.42L52.47,19a25.12,25.12,0,0,0-2.64-3.44l1.94-1.94A27.2,27.2,0,0,1,54.85,17.65Zm2.95,6.4-2.65.71a24.75,24.75,0,0,0-1.67-4l2.38-1.37A26.26,26.26,0,0,1,57.8,24.05ZM59,31H56.23a24.32,24.32,0,0,0-.57-4.3L58.32,26A26.83,26.83,0,0,1,59,31ZM32,54.25A22.25,22.25,0,1,1,54.25,32,22.27,22.27,0,0,1,32,54.25ZM37.3,8.34A24.32,24.32,0,0,0,33,7.77V5a26.83,26.83,0,0,1,5,.65ZM31,7.77a24.32,24.32,0,0,0-4.3.57L26,5.68A26.83,26.83,0,0,1,31,5ZM8.34,26.7A24.32,24.32,0,0,0,7.77,31H5a26.83,26.83,0,0,1,.65-5ZM5,33H7.77a24.32,24.32,0,0,0,.57,4.3L5.68,38A26.83,26.83,0,0,1,5,33ZM26.7,55.66a24.32,24.32,0,0,0,4.3.57V59a26.83,26.83,0,0,1-5-.65Zm6.3.57a24.32,24.32,0,0,0,4.3-.57L38,58.32A26.83,26.83,0,0,1,33,59ZM55.66,37.3a24.32,24.32,0,0,0,.57-4.3H59a26.83,26.83,0,0,1-.65,5Z"/>
    </g>
</svg>
