<svg width="100%" height="100%" viewBox="0 0 40 40" fill="none" xmlns="http://www.w3.org/2000/svg">
    <g clip-path="url(#clip0)">
        <path d="M20 40C31.0274 40 40 31.0282 40 20C40 18.0965 39.7343 16.2207 39.2082 14.4242C38.949 13.5409 38.0265 13.0334 37.1407 13.2926C36.2565 13.551 35.7507 14.4767 36.0091 15.3601C36.4449 16.8526 36.6667 18.4143 36.6667 20C36.6667 29.1899 29.1899 36.6667 20 36.6667C10.8101 36.6667 3.33333 29.1899 3.33333 20C3.33333 10.8101 10.8101 3.33333 20 3.33333C23.3398 3.33333 26.5531 4.3099 29.2924 6.15682C30.0549 6.67155 31.0917 6.46932 31.6056 5.70679C32.12 4.94344 31.9194 3.90747 31.156 3.39315C27.8642 1.1735 24.0068 0 20 0C8.97257 0 0 8.97176 0 20C0 31.0282 8.97257 40 20 40Z"
              fill="#1976D2"/>
        <path d="M37.155 3.82162L20 20.9758L14.5117 15.4883C13.8607 14.8377 12.806 14.8377 12.155 15.4883C11.5043 16.1393 11.5043 17.194 12.155 17.8451L18.8216 24.5117C19.1476 24.8377 19.5732 25 20 25C20.4269 25 20.8525 24.8377 21.1784 24.5117L39.5117 6.1784C40.1624 5.52735 40.1624 4.47267 39.5117 3.82162C38.8607 3.17099 37.806 3.17099 37.155 3.82162Z"
              fill="#1976D2"/>
    </g>
    <defs>
        <clipPath>
            <rect width="40" height="40" fill="white"/>
        </clipPath>
    </defs>
</svg>
