<svg width="100%" height="100%" viewBox="0 0 40 40" fill="none" xmlns="http://www.w3.org/2000/svg">
    <path d="M34.1422 5.85789C30.3647 2.08039 25.3422 0 20 0C14.6578 0 9.63531 2.08039 5.85781 5.85789C2.08031 9.63539 0 14.6578 0 20C0 25.3422 2.08031 30.3647 5.85781 34.1421C9.63531 37.9195 14.6578 40 20 40C25.3422 40 30.3647 37.9196 34.1422 34.1421C37.9197 30.3646 40 25.3422 40 20C40 14.6578 37.9197 9.63531 34.1422 5.85789ZM20 37.6331C10.2771 37.6331 2.36687 29.7229 2.36687 20C2.36687 10.2771 10.2771 2.36687 20 2.36687C29.7229 2.36687 37.6331 10.2771 37.6331 20C37.6331 29.7229 29.7229 37.6331 20 37.6331Z"
          fill="#1976D2"/>
    <path d="M19.9997 3.92563C19.9561 3.92563 19.9126 3.92696 19.869 3.92727C19.858 3.92696 19.8472 3.92563 19.8362 3.92563C19.8176 3.92563 19.7995 3.9275 19.7812 3.92836C11.0423 4.04555 3.96514 11.1703 3.92623 19.9276C3.92615 19.9338 3.92529 19.9397 3.92529 19.9458C3.92529 19.9495 3.92584 19.9531 3.92584 19.9566C3.92584 19.9712 3.92529 19.9855 3.92529 19.9999C3.92529 28.8634 11.1362 36.0743 19.9997 36.0743C28.8632 36.0743 36.0741 28.8634 36.0741 20C36.0741 11.1366 28.8633 3.92563 19.9997 3.92563ZM21.1832 33.6559V32.1556C21.1832 31.502 20.6533 30.9722 19.9997 30.9722C19.3462 30.9722 18.8163 31.502 18.8163 32.1556V33.6559C12.1821 33.0858 6.88318 27.7706 6.33896 21.1291H7.62615C8.27975 21.1291 8.80959 20.5993 8.80959 19.9457C8.80959 19.2921 8.27975 18.7623 7.62615 18.7623H6.34873C6.93646 12.226 12.1312 6.99766 18.6528 6.35868V7.57227C18.6528 8.22586 19.1826 8.75571 19.8362 8.75571C20.4898 8.75571 21.0197 8.22586 21.0197 7.57227V6.33039C27.6392 6.81961 32.9663 12.0302 33.6362 18.5988H32.2097C31.5561 18.5988 31.0263 19.1287 31.0263 19.7823C31.0263 20.4359 31.5561 20.9657 32.2097 20.9657H33.6729C33.2029 27.6832 27.8718 33.0812 21.1832 33.6559Z"
          fill="#1976D2"/>
    <path d="M24.7903 15.2094C24.3283 14.7471 23.579 14.7471 23.1169 15.2094L19.9999 18.3264L13.9543 12.2809C13.4922 11.8187 12.7429 11.8187 12.2807 12.2809C11.8185 12.7431 11.8185 13.4923 12.2807 13.9545L19.163 20.8368C19.3849 21.0587 19.6859 21.1834 19.9998 21.1834C20.3136 21.1834 20.6147 21.0587 20.8366 20.8368L24.7903 16.883C25.2525 16.4209 25.2525 15.6716 24.7903 15.2094Z"
          fill="#1976D2"/>
</svg>
