<svg width="56" height="50" viewBox="0 0 134 120" fill="none" xmlns="http://www.w3.org/2000/svg">
    <path d="M133.073 53.6107C133.335 53.9038 133.507 54.2644 133.568 54.6503C133.63 55.0361 133.579 55.4313 133.421 55.7896C133.261 56.1462 133.001 56.45 132.671 56.6647C132.341 56.8793 131.956 56.9957 131.561 57H70.2439C69.7018 57 69.182 56.7875 68.7987 56.4091C68.4154 56.0308 68.2 55.5176 68.2 54.9826V10.4175C68.2 9.8824 68.4154 9.36926 68.7987 8.99092C69.182 8.61258 69.7018 8.40002 70.2439 8.40002H131.561C131.956 8.40094 132.342 8.51478 132.673 8.72776C133.004 8.94074 133.265 9.24375 133.425 9.60015C133.585 9.95654 133.637 10.3511 133.574 10.736C133.512 11.1209 133.338 11.4798 133.073 11.7691L113.881 32.6899L133.073 53.6107Z"
          fill="#004BA0"/>
    <path d="M125.27 53.6107C125.533 53.9038 125.706 54.2644 125.768 54.6503C125.83 55.0361 125.779 55.4313 125.62 55.7896C125.459 56.1462 125.197 56.45 124.865 56.6647C124.533 56.8793 124.145 56.9957 123.748 57H70.2573C69.7117 57 69.1884 56.7875 68.8026 56.4091C68.4168 56.0308 68.2 55.5176 68.2 54.9826V10.4175C68.2 9.8824 68.4168 9.36926 68.8026 8.99092C69.1884 8.61258 69.7117 8.40002 70.2573 8.40002H123.748C124.145 8.40094 124.534 8.51478 124.867 8.72776C125.2 8.94074 125.463 9.24375 125.624 9.60015C125.785 9.95654 125.837 10.3511 125.774 10.736C125.711 11.1209 125.536 11.4798 125.27 11.7691L105.952 32.6899L125.27 53.6107Z"
          fill="#1976D2"/>
    <path d="M70.5 0H62.9C61.8507 0 61 0.895464 61 2.00008V103C61 104.105 61.8507 105 62.9 105H70.5C71.5493 105 72.4 104.105 72.4 103V2.00008C72.4 0.895464 71.5493 0 70.5 0Z"
          fill="#828282"/>
    <path d="M96.4 110.4V117.979C96.4 118.515 96.2029 119.029 95.852 119.408C95.5012 119.787 95.0253 120 94.5291 120H38.8709C38.3747 120 37.8988 119.787 37.548 119.408C37.1971 119.029 37 118.515 37 117.979V110.4C36.9991 109.928 37.1514 109.47 37.4303 109.107L40.6669 104.862L43.23 101.528C43.4052 101.299 43.6253 101.115 43.8745 100.989C44.1236 100.863 44.3955 100.798 44.6706 100.8H88.7294C89.0045 100.798 89.2764 100.863 89.5255 100.989C89.7747 101.115 89.9948 101.299 90.17 101.528L95.9697 109.107C96.2486 109.47 96.4009 109.928 96.4 110.4V110.4Z"
          fill="#004BA0"/>
    <path d="M92.8 114.5V120H38.8756C38.3782 120 37.9011 119.789 37.5494 119.414C37.1976 119.039 37 118.531 37 118V110.501C36.9991 110.033 37.1518 109.58 37.4314 109.221L40.6762 105.021C40.7629 105.004 40.8509 104.998 40.9388 105.001H85.1099C85.3856 104.999 85.6582 105.063 85.908 105.188C86.1578 105.312 86.3785 105.494 86.5541 105.721L92.3686 113.22C92.6482 113.58 92.8009 114.033 92.8 114.5V114.5Z"
          fill="#1976D2"/>
    <path d="M66.4 0V100.8H72.4V1.99604C72.4 1.46666 72.1893 0.958956 71.8142 0.584626C71.4391 0.210296 70.9304 0 70.4 0H66.4Z"
          fill="#828282"/>
</svg>
