<svg width="50" height="50" viewBox="0 0 200 200" fill="none" xmlns="http://www.w3.org/2000/svg">
<path d="M199.122 89.3512C199.558 89.8396 199.845 90.4406 199.947 91.0837C200.05 91.7269 199.964 92.3855 199.701 92.9826C199.435 93.577 199.002 94.0833 198.452 94.4411C197.902 94.7988 197.26 94.9928 196.602 95H94.4065C93.503 95 92.6366 94.6458 91.9977 94.0152C91.3589 93.3846 91 92.5294 91 91.6376V17.3624C91 16.4706 91.3589 15.6154 91.9977 14.9848C92.6366 14.3543 93.503 14 94.4065 14H196.602C197.26 14.0015 197.903 14.1913 198.455 14.5462C199.006 14.9012 199.441 15.4062 199.708 16.0002C199.975 16.5942 200.061 17.2517 199.957 17.8933C199.853 18.5348 199.563 19.1329 199.122 19.6152L167.135 54.4832L199.122 89.3512Z" fill="#004BA0"/>
<path d="M186.117 89.3512C186.556 89.8396 186.843 90.4406 186.947 91.0837C187.05 91.7269 186.964 92.3855 186.699 92.9826C186.432 93.577 185.995 94.0833 185.442 94.4411C184.888 94.7988 184.242 94.9928 183.579 95H94.4289C93.5195 95 92.6473 94.6458 92.0043 94.0152C91.3613 93.3846 91 92.5294 91 91.6376V17.3624C91 16.4706 91.3613 15.6154 92.0043 14.9848C92.6473 14.3543 93.5195 14 94.4289 14H183.579C184.242 14.0015 184.89 14.1913 185.445 14.5462C185.999 14.9012 186.438 15.4062 186.706 16.0002C186.974 16.5942 187.062 17.2517 186.957 17.8933C186.852 18.5348 186.56 19.1329 186.117 19.6152L153.92 54.4832L186.117 89.3512Z" fill="#1976D2"/>
<path d="M94.8333 0H82.1667C80.4178 0 79 1.49244 79 3.33346V171.667C79 173.508 80.4178 175 82.1667 175H94.8333C96.5822 175 98 173.508 98 171.667V3.33346C98 1.49244 96.5822 0 94.8333 0Z" fill="#828282"/>
<path d="M138 184V196.632C138 197.525 137.671 198.382 137.087 199.013C136.502 199.645 135.709 200 134.882 200H42.1181C41.2911 200 40.498 199.645 39.9133 199.013C39.3285 198.382 39 197.525 39 196.632V184C38.9986 183.213 39.2523 182.45 39.7172 181.844L45.1115 174.771L49.3833 169.213C49.6753 168.831 50.0422 168.524 50.4575 168.314C50.8727 168.105 51.3259 167.997 51.7843 168H125.216C125.674 167.997 126.127 168.105 126.543 168.314C126.958 168.524 127.325 168.831 127.617 169.213L137.283 181.844C137.748 182.45 138.001 183.213 138 184V184Z" fill="#004BA0"/>
<path d="M132 190.834V200H42.1261C41.297 200 40.5019 199.649 39.9156 199.024C39.3294 198.399 39 197.551 39 196.667V184.168C38.9986 183.389 39.253 182.634 39.719 182.034L45.1271 175.035C45.2714 175.007 45.4181 174.996 45.5647 175.001H119.183C119.643 174.999 120.097 175.105 120.513 175.313C120.93 175.52 121.297 175.824 121.59 176.201L131.281 188.701C131.747 189.3 132.001 190.055 132 190.834V190.834Z" fill="#1976D2"/>
<path d="M88 0V168H98V3.32673C98 2.44443 97.6488 1.59826 97.0237 0.974377C96.3986 0.350494 95.5507 0 94.6667 0H88Z" fill="#828282"/>
</svg>
