<svg width="100%" height="100%" viewBox="0 0 512 336" fill="none" xmlns="http://www.w3.org/2000/svg">
<path d="M38.345 335.724H473.655C494.832 335.724 512 318.557 512 297.379V223.908H0V297.379C0 318.557 17.167 335.724 38.345 335.724Z" fill="#73AF00"/>
<path d="M512 38.621C512 17.444 494.833 0.276001 473.655 0.276001H38.345C17.167 0.276001 0 17.443 0 38.621V112.092H512V38.621Z" fill="#FF4B55"/>
<path d="M512 112.09H0V223.9H512V112.09Z" fill="#FFE15A"/>
<path d="M244.598 117.956C244.598 117.956 244.371 118.24 243.945 118.773C243.59 119.265 243.057 120.021 242.475 121.027C241.33 123.026 240.128 126.125 240.095 129.819C240.083 131.62 240.455 133.807 241.069 135.546C241.735 137.466 242.84 139.302 244.237 140.942C245.636 142.597 247.505 143.873 249.504 144.815C250.495 145.318 251.583 145.607 252.662 145.873C253.197 146.036 253.767 146.044 254.316 146.152C254.592 146.204 254.878 146.181 255.157 146.203L255.579 146.222L255.79 146.233L255.895 146.239L255.948 146.242L255.974 146.243C255.889 146.246 256.201 146.239 255.79 146.25C256.474 146.21 257.304 146.205 257.868 146.136C258.36 146.021 258.774 146.041 259.338 145.874C260.418 145.608 261.505 145.319 262.496 144.816C264.494 143.874 266.364 142.598 267.763 140.943C269.16 139.303 270.265 137.467 270.931 135.547C271.569 133.594 271.91 131.725 271.905 129.811C271.874 126.133 270.671 123.023 269.526 121.026C268.948 120.024 268.413 119.263 268.032 118.75C267.636 118.245 267.425 117.974 267.425 117.974L267.372 117.907C266.991 117.421 267.077 116.72 267.563 116.339C267.947 116.039 268.467 116.03 268.854 116.278C268.854 116.278 269.18 116.487 269.791 116.878C270.369 117.312 271.265 117.925 272.23 118.917C274.167 120.835 276.681 124.251 277.588 129.215C278.037 131.591 278.086 134.465 277.467 137.29C276.867 140.144 275.65 143.095 273.685 145.677C271.755 148.271 269.162 150.565 266.079 152.112C264.558 152.923 262.903 153.512 261.205 153.922C260.391 154.161 259.358 154.26 258.438 154.405C257.576 154.5 256.963 154.502 256.212 154.555L255.92 154.556L255.838 154.552L255.674 154.544L255.346 154.527L254.689 154.492C254.252 154.457 253.813 154.463 253.38 154.388C252.517 154.236 251.639 154.165 250.797 153.922C249.099 153.513 247.443 152.923 245.923 152.112C242.84 150.565 240.247 148.27 238.317 145.677C236.353 143.094 235.136 140.143 234.535 137.29C233.893 134.25 233.973 131.694 234.415 129.206C235.32 124.257 237.836 120.829 239.772 118.915C240.733 117.927 241.632 117.308 242.235 116.854C242.815 116.49 243.126 116.295 243.126 116.295C243.652 115.965 244.346 116.123 244.676 116.649C244.936 117.067 244.888 117.592 244.598 117.956Z" fill="#73AF00"/>
<path d="M253.782 205.866V219.837C253.782 221.231 252.097 221.929 251.112 220.944L250.343 220.175C249.704 219.536 249.345 218.67 249.345 217.767V205.866H253.782Z" fill="#FF4B55"/>
<path d="M247.126 203.647V213.788C247.126 214.397 247.368 214.982 247.799 215.413L249.344 216.958V203.647H247.126V203.647Z" fill="#FFE15A"/>
<path d="M244.908 203.647V209.089C244.908 209.866 245.217 210.611 245.765 211.16L247.126 212.521V203.647H244.908Z" fill="#73AF00"/>
<path d="M258.219 205.866V219.837C258.219 221.231 259.904 221.929 260.889 220.944L261.658 220.175C262.297 219.536 262.656 218.67 262.656 217.767V205.866H258.219Z" fill="#FF4B55"/>
<path d="M262.942 203.647V213.788C262.942 214.397 262.7 214.982 262.269 215.413L260.724 216.958V203.647H262.942V203.647Z" fill="#FFE15A"/>
<path d="M267.093 201.758V207.2C267.093 207.977 266.784 208.722 266.236 209.271L264.875 210.632V201.758H267.093Z" fill="#73AF00"/>
<path d="M267.093 163.715L291.496 145.967V182.465C291.496 192.939 283.005 201.429 272.532 201.429C268.978 201.429 265.495 200.43 262.481 198.547L249.346 190.337V163.407L267.093 163.715Z" fill="#FF4B55"/>
<path d="M282.622 152.42V178.027C282.622 188.501 274.131 196.991 263.658 196.991C262.083 196.991 260.531 196.764 259.018 196.381L249.345 190.335V163.405L267.093 163.713L282.622 152.42Z" fill="#FFE15A"/>
<path d="M275.967 157.261V173.792C275.967 184.266 267.476 192.756 257.003 192.756C255.428 192.756 253.875 192.529 252.363 192.146L249.345 190.26V163.406L267.093 163.714L275.967 157.261Z" fill="#73AF00"/>
<path d="M292.826 141.974L302.589 137.094L295.489 145.967H291.496L292.826 141.974Z" fill="#F5F5F5"/>
<path d="M280.404 174.807L304.807 157.059V193.557C304.807 204.031 296.316 212.521 285.843 212.521C282.289 212.521 278.806 211.522 275.792 209.639L262.657 201.429V174.499L280.404 174.807Z" fill="#FF4B55"/>
<path d="M289.278 168.353V184.884C289.278 195.358 280.787 203.848 270.314 203.848C268.739 203.848 267.187 203.621 265.674 203.238L262.656 201.352V174.5L280.404 174.808L289.278 168.353Z" fill="#73AF00"/>
<path d="M306.137 153.066L315.9 148.185L308.8 157.059H304.807L306.137 153.066Z" fill="#F5F5F5"/>
<path d="M273.748 170.37L298.151 152.622V189.12C298.151 199.594 289.66 208.084 279.187 208.084C275.633 208.084 272.15 207.085 269.136 205.202L256 196.992V170.062L273.748 170.37Z" fill="#FF4B55"/>
<path d="M289.278 159.076V184.683C289.278 195.157 280.787 203.647 270.314 203.647C268.739 203.647 267.187 203.42 265.674 203.037L256 196.992V170.062L273.748 170.37L289.278 159.076Z" fill="#FFE15A"/>
<path d="M282.622 163.916V180.447C282.622 190.921 274.131 199.411 263.658 199.411C262.083 199.411 260.531 199.184 259.018 198.801L256 196.916V170.062L273.748 170.37L282.622 163.916Z" fill="#73AF00"/>
<path d="M299.482 148.629L309.244 143.748L302.144 152.622H298.152L299.482 148.629Z" fill="#F5F5F5"/>
<path d="M244.908 163.715L220.505 145.967V182.465C220.505 192.939 228.996 201.429 239.469 201.429C243.023 201.429 246.506 200.43 249.52 198.547L262.655 190.337V163.407L244.908 163.715Z" fill="#FF4B55"/>
<path d="M229.378 152.42V178.027C229.378 188.501 237.869 196.991 248.342 196.991C249.917 196.991 251.469 196.764 252.982 196.381L262.655 190.335V163.405L244.907 163.713L229.378 152.42Z" fill="#FFE15A"/>
<path d="M236.034 157.261V173.792C236.034 184.266 244.525 192.756 254.998 192.756C256.573 192.756 258.126 192.529 259.638 192.146L262.656 190.26V163.406L244.908 163.714L236.034 157.261Z" fill="#73AF00"/>
<path d="M219.174 141.974L209.412 137.094L216.512 145.967H220.504L219.174 141.974Z" fill="#F5F5F5"/>
<path d="M231.597 174.807L207.194 157.059V193.557C207.194 204.031 215.685 212.521 226.158 212.521C229.712 212.521 233.195 211.522 236.209 209.639L249.344 201.429V174.499L231.597 174.807Z" fill="#FF4B55"/>
<path d="M222.723 168.353V184.884C222.723 195.358 231.214 203.848 241.687 203.848C243.262 203.848 244.814 203.621 246.327 203.238L249.345 201.352V174.5L231.597 174.808L222.723 168.353Z" fill="#73AF00"/>
<path d="M205.863 153.066L196.102 148.185L203.201 157.059H207.193L205.863 153.066Z" fill="#F5F5F5"/>
<path d="M238.252 170.37L213.849 152.622V189.12C213.849 199.594 222.34 208.084 232.813 208.084C236.367 208.084 239.85 207.085 242.864 205.202L255.999 196.992V170.062L238.252 170.37Z" fill="#FF4B55"/>
<path d="M222.723 159.076V184.683C222.723 195.157 231.214 203.647 241.687 203.647C243.262 203.647 244.814 203.42 246.327 203.037L256 196.991V170.061L238.252 170.369L222.723 159.076Z" fill="#FFE15A"/>
<path d="M229.378 163.916V180.447C229.378 190.921 237.869 199.411 248.342 199.411C249.917 199.411 251.469 199.184 252.982 198.801L256 196.915V170.061L238.252 170.369L229.378 163.916Z" fill="#73AF00"/>
<path d="M226.947 203.354L224.022 200.429C222.249 198.656 222.296 195.765 224.128 194.051L272.545 148.555L278.82 154.83L233.324 203.247C231.612 205.08 228.722 205.129 226.947 203.354Z" fill="#FFBE5A"/>
<path d="M225.49 204.108C226.715 204.108 227.708 203.115 227.708 201.89C227.708 200.665 226.715 199.672 225.49 199.672C224.265 199.672 223.272 200.665 223.272 201.89C223.272 203.115 224.265 204.108 225.49 204.108Z" fill="#FFBE5A"/>
<path d="M277.254 150.13C275.521 148.398 273.415 147.695 272.548 148.562C271.682 149.428 272.384 151.534 274.117 153.267C275.849 154.999 277.956 155.701 278.822 154.835C279.688 153.969 278.986 151.862 277.254 150.13Z" fill="#F5F5F5"/>
<path d="M285.053 203.354L287.978 200.429C289.751 198.656 289.704 195.765 287.872 194.051L239.455 148.555L233.18 154.83L278.676 203.247C280.39 205.08 283.279 205.129 285.053 203.354Z" fill="#FFBE5A"/>
<path d="M286.51 204.108C287.735 204.108 288.728 203.115 288.728 201.89C288.728 200.665 287.735 199.672 286.51 199.672C285.285 199.672 284.292 200.665 284.292 201.89C284.292 203.115 285.285 204.108 286.51 204.108Z" fill="#FFBE5A"/>
<path d="M237.892 153.269C239.625 151.537 240.327 149.43 239.461 148.564C238.594 147.698 236.488 148.4 234.756 150.133C233.023 151.865 232.321 153.971 233.187 154.838C234.053 155.704 236.16 155.002 237.892 153.269Z" fill="#F5F5F5"/>
<path d="M256 201.434C266.834 201.434 275.616 191.005 275.616 178.14C275.616 165.275 266.834 154.846 256 154.846C245.166 154.846 236.384 165.275 236.384 178.14C236.384 191.005 245.166 201.434 256 201.434Z" fill="#FFBE5A"/>
<path d="M256 157.059L257.042 161.578L259.428 157.602L259.021 162.221L262.52 159.178L260.706 163.446L264.974 161.632L261.93 165.13L266.55 164.724L262.573 167.111L267.093 168.152L262.573 169.193L266.55 171.58L261.93 171.174L264.974 174.671L260.706 172.857L262.52 177.126L259.021 174.082L259.428 178.701L257.042 174.726L256 179.244L254.959 174.726L252.573 178.701L252.979 174.082L249.481 177.126L251.294 172.857L247.027 174.671L250.07 171.174L245.451 171.58L249.427 169.193L244.908 168.152L249.427 167.111L245.451 164.724L250.07 165.13L247.027 161.632L251.294 163.446L249.481 159.178L252.979 162.221L252.573 157.602L254.959 161.578L256 157.059Z" fill="#FF4B55"/>
<path d="M280.542 177.719C280.542 177.719 273.193 179.66 268.41 175.639C263.094 171.17 259.108 169.06 257.4 168.268C256.815 167.997 256.161 167.997 255.575 168.267C254.351 168.832 252.099 170.003 250.107 171.757C247.195 174.323 238.252 179.383 236.45 179.383V190.412L250.523 202.608L267.162 202.122L280.542 177.719Z" fill="#73AF00"/>
<path d="M256 206.975C241.932 206.975 230.487 194.037 230.487 178.135C230.487 162.233 241.931 149.295 256 149.295C270.069 149.295 281.513 162.233 281.513 178.135C281.513 194.037 270.068 206.975 256 206.975ZM256 155.95C245.602 155.95 237.143 165.903 237.143 178.135C237.143 190.367 245.602 200.32 256 200.32C266.398 200.32 274.857 190.367 274.857 178.135C274.857 165.903 266.398 155.95 256 155.95Z" fill="#3CC8FF"/>
<path d="M252.178 200.946L252.667 202.411L254.212 202.423C254.412 202.424 254.494 202.68 254.334 202.798L253.092 203.716L253.558 205.189C253.619 205.38 253.401 205.538 253.238 205.421L251.981 204.523L250.724 205.421C250.562 205.537 250.344 205.379 250.404 205.189L250.87 203.716L249.628 202.798C249.467 202.679 249.55 202.424 249.75 202.423L251.295 202.411L251.784 200.946C251.847 200.756 252.115 200.756 252.178 200.946Z" fill="#FFBE5A"/>
<path d="M245.242 197.964L245.731 199.429L247.276 199.441C247.476 199.442 247.558 199.698 247.398 199.816L246.156 200.734L246.622 202.207C246.683 202.398 246.465 202.556 246.302 202.439L245.045 201.541L243.788 202.439C243.626 202.555 243.408 202.397 243.468 202.207L243.934 200.734L242.692 199.816C242.531 199.697 242.614 199.442 242.814 199.441L244.359 199.429L244.848 197.964C244.911 197.774 245.18 197.774 245.242 197.964Z" fill="#FFBE5A"/>
<path d="M239.673 192.904L240.162 194.369L241.707 194.381C241.907 194.382 241.989 194.638 241.829 194.756L240.587 195.674L241.053 197.147C241.114 197.338 240.896 197.496 240.733 197.379L239.476 196.481L238.219 197.379C238.057 197.495 237.839 197.337 237.899 197.147L238.365 195.674L237.123 194.756C236.962 194.637 237.045 194.382 237.245 194.381L238.79 194.369L239.279 192.904C239.342 192.714 239.61 192.714 239.673 192.904Z" fill="#FFBE5A"/>
<path d="M235.875 186.167L236.364 187.632L237.909 187.644C238.109 187.645 238.191 187.901 238.031 188.019L236.789 188.937L237.255 190.41C237.316 190.601 237.098 190.759 236.935 190.642L235.678 189.744L234.421 190.642C234.259 190.758 234.041 190.6 234.101 190.41L234.567 188.937L233.325 188.019C233.164 187.9 233.247 187.645 233.447 187.644L234.992 187.632L235.481 186.167C235.544 185.977 235.812 185.977 235.875 186.167Z" fill="#FFBE5A"/>
<path d="M234.199 178.333L234.688 179.798L236.233 179.81C236.433 179.811 236.515 180.067 236.355 180.185L235.113 181.103L235.579 182.576C235.64 182.767 235.422 182.925 235.259 182.808L234.002 181.91L232.745 182.808C232.583 182.924 232.365 182.766 232.425 182.576L232.891 181.103L231.649 180.185C231.488 180.066 231.571 179.811 231.771 179.81L233.316 179.798L233.805 178.333C233.867 178.143 234.136 178.143 234.199 178.333Z" fill="#FFBE5A"/>
<path d="M259.812 200.946L259.323 202.411L257.778 202.423C257.578 202.424 257.496 202.68 257.656 202.798L258.898 203.716L258.432 205.189C258.371 205.38 258.589 205.538 258.752 205.421L260.009 204.523L261.266 205.421C261.428 205.537 261.646 205.379 261.586 205.189L261.12 203.716L262.362 202.798C262.523 202.679 262.44 202.424 262.24 202.423L260.695 202.411L260.206 200.946C260.143 200.756 259.875 200.756 259.812 200.946Z" fill="#FFBE5A"/>
<path d="M266.748 197.964L266.259 199.429L264.714 199.441C264.514 199.442 264.431 199.698 264.592 199.816L265.834 200.734L265.368 202.207C265.307 202.398 265.525 202.556 265.688 202.439L266.945 201.541L268.202 202.439C268.364 202.555 268.582 202.397 268.522 202.207L268.056 200.734L269.298 199.816C269.459 199.697 269.376 199.442 269.176 199.441L267.631 199.429L267.142 197.964C267.079 197.774 266.81 197.774 266.748 197.964Z" fill="#FFBE5A"/>
<path d="M272.317 192.904L271.828 194.369L270.283 194.381C270.083 194.382 270.001 194.638 270.161 194.756L271.403 195.674L270.937 197.147C270.876 197.338 271.094 197.496 271.257 197.379L272.514 196.481L273.771 197.379C273.933 197.495 274.151 197.337 274.091 197.147L273.625 195.674L274.867 194.756C275.028 194.637 274.945 194.382 274.745 194.381L273.2 194.369L272.711 192.904C272.649 192.714 272.38 192.714 272.317 192.904Z" fill="#FFBE5A"/>
<path d="M276.115 186.167L275.626 187.632L274.081 187.644C273.881 187.645 273.799 187.901 273.959 188.019L275.201 188.937L274.735 190.41C274.674 190.601 274.892 190.759 275.055 190.642L276.312 189.744L277.569 190.642C277.731 190.758 277.949 190.6 277.889 190.41L277.423 188.937L278.665 188.019C278.826 187.9 278.743 187.645 278.543 187.644L276.998 187.632L276.509 186.167C276.446 185.977 276.178 185.977 276.115 186.167Z" fill="#FFBE5A"/>
<path d="M277.791 178.333L277.302 179.798L275.757 179.81C275.557 179.811 275.474 180.067 275.635 180.185L276.877 181.103L276.411 182.576C276.35 182.767 276.568 182.925 276.731 182.808L277.988 181.91L279.245 182.808C279.407 182.924 279.625 182.766 279.565 182.576L279.099 181.103L280.341 180.185C280.502 180.066 280.419 179.811 280.219 179.81L278.674 179.798L278.185 178.333C278.123 178.143 277.855 178.143 277.791 178.333Z" fill="#FFBE5A"/>
<path d="M246.361 192.358L247.098 195.884H247.416V193.478C247.416 193.478 247.94 195.156 248.682 195.884H249.282C248.995 195.515 248.479 194.749 248.479 193.957C248.479 192.866 249.347 192.717 249.347 191.55H250.091V195.883H250.526L251.332 192.022C251.332 192.022 251.996 194.437 253.246 195.883H253.802C253.401 195.294 252.568 193.774 252.721 191.476C252.721 191.476 253.912 190.88 253.912 189.268V186.974C253.912 186.545 254.261 186.196 254.69 186.196H255.225C255.225 186.196 254.429 184.652 253.578 184.428V183.46L252.937 184.429C252.325 184.561 251.964 185.127 251.964 185.733V187.13C251.964 187.559 251.616 187.908 251.186 187.908H248.405C247.582 187.908 246.263 188.731 246.263 189.786C246.263 190.841 247.054 191.533 247.054 191.533L246.361 192.358Z" fill="#F5F5F5"/>
<path d="M258.819 188.843H258.564C256.548 188.953 255.422 190.279 255.422 190.279L257.467 192.324V196.172H259.914V192.324L261.959 190.279C261.961 190.279 260.835 188.954 258.819 188.843Z" fill="#FFBE5A"/>
<path d="M263.859 182.55H263.12V196.184H263.859V182.55Z" fill="#F5F5F5"/>
<path d="M263.511 182.445L259.524 187.264C259.524 187.264 259.004 184.941 261.327 182.654L256.197 183.59C256.197 183.59 257.757 180.678 261.847 180.99L257.653 177.489C257.653 177.489 261.258 177.282 263.095 179.985C263.095 179.985 264.134 176.866 267.046 176.727L264.643 180.378C264.643 180.378 267.046 179.153 270.374 180.228L265.417 181.546C265.417 181.546 268.19 181.823 269.334 185.879L265.036 182.933C265.036 182.933 266.354 184.493 265.868 187.543L263.511 182.445Z" fill="#F5F5F5"/>
<path d="M212.519 148.629L202.756 143.748L209.856 152.622H213.849L212.519 148.629Z" fill="#F5F5F5"/>
<path d="M262.941 142.978L289.278 134.874L275.297 129.632C272.807 128.697 270.168 128.22 267.508 128.22H264.875C263.65 128.22 262.657 129.213 262.657 130.438V132.656H256H249.345V130.438C249.345 129.213 248.352 128.22 247.127 128.22H244.494C241.834 128.22 239.195 128.699 236.705 129.632L222.724 134.874L249.061 142.978C250.371 143.381 251.005 144.864 250.393 146.091L247.127 152.622H264.875L261.609 146.091C260.995 144.865 261.63 143.381 262.941 142.978Z" fill="#825546"/>
<path d="M256 139.306C258.45 139.306 260.436 137.32 260.436 134.87C260.436 132.42 258.45 130.434 256 130.434C253.55 130.434 251.564 132.42 251.564 134.87C251.564 137.32 253.55 139.306 256 139.306Z" fill="#F5F5F5"/>
<path d="M258.219 136.763C258.219 137.988 257.226 138.981 256.001 138.981H247.127L250.914 135.194C251.33 134.778 251.894 134.544 252.483 134.544H256C257.226 134.546 258.219 135.539 258.219 136.763Z" fill="#FFBE5A"/>
</svg>
