<svg width="100%" height="100%" viewBox="0 0 1531 217" fill="none" xmlns="http://www.w3.org/2000/svg">
    <path d="M218.75 151.867C218.75 158.508 216.732 165.604 212.695 173.156C208.789 180.708 202.734 187.935 194.531 194.836C186.458 201.607 176.237 207.076 163.867 211.242C151.497 215.409 137.565 217.492 122.07 217.492C89.1276 217.492 63.4115 207.922 44.9219 188.781C26.4323 169.51 17.1875 143.729 17.1875 111.438C17.1875 89.5625 21.4193 70.2266 29.8828 53.4297C38.3464 36.6328 50.5859 23.6771 66.6016 14.5625C82.6172 5.31771 101.758 0.695312 124.023 0.695312C137.826 0.695312 150.456 2.71354 161.914 6.75C173.503 10.7865 183.268 15.9948 191.211 22.375C199.284 28.7552 205.404 35.5911 209.57 42.8828C213.867 50.0443 216.016 56.75 216.016 63C216.016 69.3802 213.607 74.7839 208.789 79.2109C204.102 83.638 198.372 85.8516 191.602 85.8516C187.174 85.8516 183.464 84.7448 180.469 82.5312C177.604 80.1875 174.349 76.4766 170.703 71.3984C164.193 61.5026 157.357 54.0807 150.195 49.1328C143.164 44.1849 134.18 41.7109 123.242 41.7109C107.487 41.7109 94.7917 47.8958 85.1562 60.2656C75.5208 72.5052 70.7031 89.3021 70.7031 110.656C70.7031 120.682 71.9401 129.927 74.4141 138.391C76.888 146.724 80.4688 153.885 85.1562 159.875C89.8438 165.734 95.5078 170.227 102.148 173.352C108.789 176.346 116.081 177.844 124.023 177.844C134.701 177.844 143.815 175.37 151.367 170.422C159.049 165.474 165.82 157.922 171.68 147.766C174.935 141.776 178.451 137.089 182.227 133.703C186.003 130.318 190.625 128.625 196.094 128.625C202.604 128.625 208.008 131.099 212.305 136.047C216.602 140.995 218.75 146.268 218.75 151.867ZM465.039 109.484C465.039 125.37 462.565 140.018 457.617 153.43C452.669 166.841 445.508 178.365 436.133 188C426.758 197.635 415.56 205.057 402.539 210.266C389.518 215.344 374.87 217.883 358.594 217.883C342.448 217.883 327.93 215.279 315.039 210.07C302.148 204.862 290.951 197.44 281.445 187.805C272.07 178.039 264.909 166.581 259.961 153.43C255.143 140.148 252.734 125.5 252.734 109.484C252.734 93.3385 255.208 78.5599 260.156 65.1484C265.104 51.737 272.201 40.2786 281.445 30.7734C290.69 21.2682 301.888 13.9766 315.039 8.89844C328.19 3.6901 342.708 1.08594 358.594 1.08594C374.74 1.08594 389.388 3.6901 402.539 8.89844C415.69 14.1068 426.953 21.5286 436.328 31.1641C445.703 40.7995 452.799 52.2578 457.617 65.5391C462.565 78.8203 465.039 93.4688 465.039 109.484ZM411.523 109.484C411.523 87.7396 406.706 70.8125 397.07 58.7031C387.565 46.5938 374.74 40.5391 358.594 40.5391C348.177 40.5391 338.997 43.2734 331.055 48.7422C323.112 54.0807 316.992 62.0234 312.695 72.5703C308.398 83.1172 306.25 95.4219 306.25 109.484C306.25 123.417 308.333 135.591 312.5 146.008C316.797 156.424 322.852 164.432 330.664 170.031C338.607 175.5 347.917 178.234 358.594 178.234C374.74 178.234 387.565 172.18 397.07 160.07C406.706 147.831 411.523 130.969 411.523 109.484ZM684.57 113.391V184.289C684.57 195.487 682.031 203.885 676.953 209.484C671.875 215.083 665.169 217.883 656.836 217.883C648.763 217.883 642.188 215.083 637.109 209.484C632.161 203.885 629.688 195.487 629.688 184.289V99.3281C629.688 85.9167 629.232 75.5 628.32 68.0781C627.409 60.6562 624.935 54.6016 620.898 49.9141C616.862 45.0964 610.482 42.6875 601.758 42.6875C584.31 42.6875 572.786 48.6771 567.188 60.6562C561.719 72.6354 558.984 89.8229 558.984 112.219V184.289C558.984 195.357 556.445 203.755 551.367 209.484C546.419 215.083 539.844 217.883 531.641 217.883C523.568 217.883 516.927 215.083 511.719 209.484C506.641 203.755 504.102 195.357 504.102 184.289V31.75C504.102 21.724 506.38 14.1068 510.938 8.89844C515.625 3.6901 521.745 1.08594 529.297 1.08594C536.589 1.08594 542.643 3.5599 547.461 8.50781C552.409 13.3255 554.883 20.0312 554.883 28.625V33.7031C564.128 22.6354 574.023 14.4974 584.57 9.28906C595.117 4.08073 606.836 1.47656 619.727 1.47656C633.138 1.47656 644.661 4.14583 654.297 9.48438C663.932 14.8229 671.875 22.8958 678.125 33.7031C687.109 22.7656 696.745 14.6927 707.031 9.48438C717.318 4.14583 728.711 1.47656 741.211 1.47656C755.794 1.47656 768.359 4.34115 778.906 10.0703C789.453 15.7995 797.331 24.0026 802.539 34.6797C807.096 44.3151 809.375 59.4844 809.375 80.1875V184.289C809.375 195.487 806.836 203.885 801.758 209.484C796.68 215.083 789.974 217.883 781.641 217.883C773.568 217.883 766.927 215.083 761.719 209.484C756.641 203.755 754.102 195.357 754.102 184.289V94.6406C754.102 83.1823 753.581 74.0026 752.539 67.1016C751.628 60.2005 749.023 54.4062 744.727 49.7188C740.43 45.0312 733.919 42.6875 725.195 42.6875C718.164 42.6875 711.458 44.7708 705.078 48.9375C698.828 53.1042 693.945 58.7031 690.43 65.7344C686.523 74.7188 684.57 90.6042 684.57 113.391ZM910.352 30.9688V37.4141C920.378 25.0443 930.794 15.9948 941.602 10.2656C952.409 4.40625 964.648 1.47656 978.32 1.47656C994.727 1.47656 1009.83 5.70833 1023.63 14.1719C1037.43 22.6354 1048.31 35.0052 1056.25 51.2812C1064.32 67.5573 1068.36 86.8281 1068.36 109.094C1068.36 125.5 1066.02 140.604 1061.33 154.406C1056.77 168.078 1050.46 179.602 1042.38 188.977C1034.31 198.221 1024.74 205.383 1013.67 210.461C1002.73 215.409 990.951 217.883 978.32 217.883C963.086 217.883 950.26 214.823 939.844 208.703C929.557 202.583 919.727 193.599 910.352 181.75V261.828C910.352 285.266 901.823 296.984 884.766 296.984C874.74 296.984 868.099 293.924 864.844 287.805C861.589 281.815 859.961 273.026 859.961 261.438V31.3594C859.961 21.2031 862.174 13.651 866.602 8.70312C871.029 3.625 877.083 1.08594 884.766 1.08594C892.318 1.08594 898.438 3.6901 903.125 8.89844C907.943 13.9766 910.352 21.3333 910.352 30.9688ZM1014.84 108.508C1014.84 94.4453 1012.7 82.401 1008.4 72.375C1004.1 62.2188 998.112 54.4714 990.43 49.1328C982.878 43.6641 974.479 40.9297 965.234 40.9297C950.521 40.9297 938.086 46.724 927.93 58.3125C917.904 69.901 912.891 86.9583 912.891 109.484C912.891 130.708 917.904 147.245 927.93 159.094C937.956 170.812 950.391 176.672 965.234 176.672C974.089 176.672 982.292 174.133 989.844 169.055C997.396 163.846 1003.45 156.099 1008.01 145.812C1012.57 135.526 1014.84 123.091 1014.84 108.508ZM1245.9 187.805C1233.01 197.831 1220.51 205.383 1208.4 210.461C1196.42 215.409 1182.94 217.883 1167.97 217.883C1154.3 217.883 1142.25 215.214 1131.84 209.875C1121.55 204.406 1113.61 197.049 1108.01 187.805C1102.41 178.56 1099.61 168.534 1099.61 157.727C1099.61 143.143 1104.23 130.708 1113.48 120.422C1122.72 110.135 1135.42 103.234 1151.56 99.7188C1154.95 98.9375 1163.35 97.1797 1176.76 94.4453C1190.17 91.7109 1201.63 89.237 1211.13 87.0234C1220.77 84.6797 1231.18 81.8802 1242.38 78.625C1241.73 64.5625 1238.87 54.276 1233.79 47.7656C1228.84 41.125 1218.49 37.8047 1202.73 37.8047C1189.19 37.8047 1178.97 39.6927 1172.07 43.4688C1165.3 47.2448 1159.44 52.9089 1154.49 60.4609C1149.67 68.013 1146.22 73.026 1144.14 75.5C1142.19 77.8438 1137.89 79.0156 1131.25 79.0156C1125.26 79.0156 1120.05 77.1276 1115.62 73.3516C1111.33 69.4453 1109.18 64.4974 1109.18 58.5078C1109.18 49.1328 1112.5 40.0182 1119.14 31.1641C1125.78 22.3099 1136.13 15.0182 1150.2 9.28906C1164.26 3.5599 1181.77 0.695312 1202.73 0.695312C1226.17 0.695312 1244.6 3.49479 1258.01 9.09375C1271.42 14.5625 1280.86 23.2865 1286.33 35.2656C1291.93 47.2448 1294.73 63.1302 1294.73 82.9219C1294.73 95.4219 1294.66 106.034 1294.53 114.758C1294.53 123.482 1294.47 133.182 1294.34 143.859C1294.34 153.885 1295.96 164.367 1299.22 175.305C1302.6 186.112 1304.3 193.078 1304.3 196.203C1304.3 201.672 1301.69 206.685 1296.48 211.242C1291.41 215.669 1285.61 217.883 1279.1 217.883C1273.63 217.883 1268.23 215.344 1262.89 210.266C1257.55 205.057 1251.89 197.57 1245.9 187.805ZM1242.38 110.656C1234.57 113.521 1223.18 116.581 1208.2 119.836C1193.36 122.961 1183.07 125.305 1177.34 126.867C1171.61 128.299 1166.15 131.229 1160.94 135.656C1155.73 139.953 1153.12 146.008 1153.12 153.82C1153.12 161.893 1156.18 168.794 1162.3 174.523C1168.42 180.122 1176.43 182.922 1186.33 182.922C1196.88 182.922 1206.58 180.643 1215.43 176.086C1224.41 171.398 1230.99 165.409 1235.16 158.117C1239.97 150.044 1242.38 136.763 1242.38 118.273V110.656ZM1493.95 62.2188L1396.29 171.398H1500.78C1509.24 171.398 1515.62 173.417 1519.92 177.453C1524.22 181.359 1526.37 186.438 1526.37 192.688C1526.37 198.677 1524.22 203.56 1519.92 207.336C1515.76 211.112 1509.38 213 1500.78 213H1356.25C1346.09 213 1338.48 210.786 1333.4 206.359C1328.45 201.932 1325.98 195.878 1325.98 188.195C1325.98 183.638 1327.73 179.081 1331.25 174.523C1334.77 169.836 1342.06 161.307 1353.12 148.938C1364.84 135.917 1375.46 124.133 1384.96 113.586C1394.6 103.039 1403.52 93.2083 1411.72 84.0938C1419.92 74.849 1426.69 67.0365 1432.03 60.6562C1437.5 54.276 1441.86 48.8073 1445.12 44.25H1365.82C1354.88 44.25 1346.61 43.2734 1341.02 41.3203C1335.42 39.3672 1332.62 34.224 1332.62 25.8906C1332.62 19.7708 1334.7 14.888 1338.87 11.2422C1343.16 7.59635 1349.22 5.77344 1357.03 5.77344H1479.49C1490.82 5.77344 1499.48 7.46615 1505.47 10.8516C1511.59 14.1068 1514.65 20.0312 1514.65 28.625C1514.65 31.4896 1514.06 34.4844 1512.89 37.6094C1511.72 40.6042 1510.42 43.0781 1508.98 45.0312C1507.55 46.9844 1505.6 49.3932 1503.12 52.2578C1500.65 54.9922 1497.59 58.3125 1493.95 62.2188Z"
          fill="#1976D2"/>
    <mask id="mask0_1532_5395" style="mask-type:alpha" maskUnits="userSpaceOnUse" x="245" y="0" width="227"
          height="218">
        <path d="M358.355 217.641C420.602 217.641 471.062 169.064 471.062 109.141C471.062 49.2186 420.602 0.641479 358.355 0.641479C296.109 0.641479 245.648 49.2186 245.648 109.141C245.648 169.064 296.109 217.641 358.355 217.641Z"
              fill="white"/>
    </mask>
    <g mask="url(#mask0_1532_5395)">
        <path d="M358.355 217.641C420.602 217.641 471.062 169.064 471.062 109.141C471.062 49.2186 420.602 0.641479 358.355 0.641479C296.109 0.641479 245.648 49.2186 245.648 109.141C245.648 169.064 296.109 217.641 358.355 217.641Z"
              fill="#1976D2"/>
    </g>
    <path d="M423.26 32.4348C422.746 30.7952 420.96 29.8703 419.269 30.3663L367.93 45.4539C367.088 41.3126 363.315 38.1787 358.8 38.1787C353.668 38.1787 349.493 42.2264 349.493 47.2017V50.8722L295.585 66.7151C293.894 67.2119 292.939 68.9438 293.451 70.5831C293.87 71.9227 295.139 72.7859 296.512 72.7859C296.819 72.7859 297.132 72.7427 297.441 72.6516L349.493 57.3543V63.5951C344.246 66.6644 340.729 72.2444 340.729 78.6065V78.6129H331.302C327.533 78.6129 324.467 81.5855 324.467 85.2396V89.5016C324.427 89.5037 324.388 89.5028 324.348 89.5053C321.026 89.7184 317.954 91.5105 316.218 94.2899C315.972 94.6825 315.731 95.0774 315.492 95.4735C315.393 95.6379 315.296 95.8035 315.198 95.9688C315.067 96.1909 314.935 96.4127 314.805 96.6356C314.672 96.8645 314.541 97.0947 314.41 97.3249C314.327 97.4719 314.243 97.6188 314.16 97.7665C314 98.0522 313.841 98.3388 313.685 98.6259C313.647 98.6948 313.609 98.764 313.572 98.8328C308.295 108.552 304.974 119.142 303.774 130.04C303.767 130.106 303.758 130.173 303.751 130.239C303.724 130.488 303.701 130.736 303.676 130.985C303.655 131.201 303.633 131.419 303.613 131.637C303.592 131.866 303.573 132.095 303.554 132.325C303.542 132.471 303.528 132.616 303.517 132.76C303.515 132.789 303.515 132.818 303.512 132.847C303.35 134.977 303.265 137.115 303.265 139.26C303.265 155.118 307.744 170.668 316.218 184.231C318.07 187.196 321.441 189.037 325.016 189.037H358.801H392.585C396.16 189.037 399.53 187.196 401.382 184.231C409.857 170.668 414.335 155.117 414.335 139.26C414.335 137.12 414.25 134.986 414.088 132.861C414.086 132.828 414.086 132.794 414.084 132.76C414.07 132.592 414.055 132.425 414.04 132.257C414.024 132.061 414.008 131.864 413.99 131.667C413.966 131.404 413.94 131.141 413.913 130.877C413.893 130.673 413.874 130.469 413.851 130.265C413.833 130.091 413.811 129.916 413.792 129.741C412.564 118.954 409.259 108.474 404.036 98.8468C403.993 98.7692 403.952 98.6921 403.909 98.6144C403.756 98.3335 403.601 98.0537 403.444 97.7746C403.357 97.6198 403.27 97.4653 403.182 97.3112C403.055 97.0872 402.927 96.8639 402.797 96.6412C402.665 96.4114 402.529 96.1825 402.393 95.9539C402.298 95.7944 402.205 95.6347 402.109 95.4763C401.87 95.0789 401.628 94.6832 401.382 94.2899C399.625 91.4779 396.501 89.6796 393.133 89.5019V85.2399C393.133 81.5858 390.067 78.6133 386.298 78.6133H376.871V78.6067C376.871 72.2446 373.354 66.6648 368.107 63.5954V51.8839L421.125 36.3029C422.816 35.806 423.771 34.074 423.26 32.4348ZM355.892 55.474V48.9919V47.2017C355.892 45.6468 357.196 44.382 358.801 44.382C360.404 44.382 361.709 45.6468 361.709 47.2017V47.2823V53.7645V61.3166C360.761 61.1675 359.79 61.0868 358.801 61.0868C357.81 61.0868 356.839 61.1675 355.892 61.3169V55.474ZM355.601 182.834H325.016C323.665 182.833 322.391 182.138 321.691 181.017C315.69 171.412 311.928 160.939 310.403 150.246C314.66 154.232 320.402 156.498 326.345 156.498H355.601V182.834ZM395.909 181.017C395.21 182.138 393.936 182.833 392.585 182.833H361.999V156.497H391.254C397.198 156.497 402.939 154.232 407.197 150.245C405.672 160.939 401.91 171.412 395.909 181.017ZM392.585 95.6878V95.6872C393.936 95.6872 395.21 96.3831 395.909 97.5035C396.137 97.8689 396.361 98.2361 396.584 98.604C396.695 98.7901 396.806 98.9774 396.916 99.1647C397.013 99.3297 397.112 99.4951 397.208 99.6607C397.368 99.9349 397.525 100.21 397.681 100.486C397.711 100.537 397.74 100.588 397.768 100.639C403.403 110.658 406.823 121.85 407.703 133.225C408.045 137.653 406.509 141.894 403.379 145.166C400.259 148.425 395.84 150.294 391.254 150.294H358.801H326.345C321.76 150.294 317.341 148.425 314.221 145.166C311.091 141.894 309.555 137.653 309.897 133.225C310.777 121.849 314.198 110.657 319.833 100.636C319.861 100.587 319.888 100.539 319.916 100.49C320.073 100.212 320.232 99.9355 320.393 99.6595C320.488 99.4951 320.585 99.3313 320.682 99.1675C320.793 98.9796 320.904 98.7913 321.017 98.6043C321.239 98.2364 321.463 97.8692 321.691 97.5038C322.391 96.3835 323.665 95.6878 325.016 95.6878H327.666H389.934H392.585ZM373.672 84.8159H386.298C386.539 84.8159 386.735 85.0057 386.735 85.2393V89.4839H330.865V85.2393C330.865 85.0057 331.061 84.8159 331.302 84.8159H343.928H373.672ZM370.473 78.6065V78.6129H347.127V78.6065C347.127 75.1983 348.691 72.1398 351.158 70.0632C352.869 68.6232 355.013 67.6573 357.375 67.3773C357.842 67.3217 358.317 67.2898 358.8 67.2898C359.282 67.2898 359.757 67.3217 360.225 67.3773C362.586 67.6573 364.731 68.6229 366.442 70.0632C368.908 72.1395 370.473 75.1983 370.473 78.6065Z"
          fill="white"/>
    <path d="M353.906 117.51C352.449 116.508 350.418 116.825 349.37 118.217L339.609 131.184C338.561 132.576 338.892 134.517 340.35 135.519C340.924 135.914 341.587 136.104 342.245 136.104C343.255 136.104 344.251 135.655 344.886 134.812L354.646 121.844C355.694 120.452 355.363 118.511 353.906 117.51Z"
          fill="white"/>
    <path d="M362.94 108.651C362.899 108.457 362.84 108.264 362.762 108.077C362.685 107.893 362.589 107.715 362.478 107.549C362.366 107.38 362.236 107.224 362.094 107.083C361.951 106.942 361.793 106.813 361.622 106.699C361.455 106.589 361.276 106.494 361.087 106.417C360.901 106.34 360.706 106.282 360.508 106.242C360.109 106.162 359.7 106.162 359.297 106.242C359.102 106.282 358.907 106.34 358.718 106.417C358.532 106.494 358.352 106.589 358.185 106.699C358.015 106.813 357.857 106.942 357.714 107.083C357.572 107.224 357.442 107.38 357.327 107.549C357.215 107.715 357.12 107.893 357.042 108.077C356.965 108.264 356.906 108.457 356.866 108.651C356.825 108.85 356.807 109.052 356.807 109.252C356.807 109.451 356.826 109.654 356.866 109.85C356.906 110.047 356.965 110.24 357.042 110.424C357.12 110.611 357.215 110.789 357.327 110.955C357.442 111.123 357.572 111.28 357.714 111.421C357.857 111.562 358.015 111.69 358.185 111.801C358.352 111.912 358.532 112.007 358.718 112.083C358.907 112.161 359.102 112.219 359.297 112.259C359.498 112.298 359.703 112.32 359.904 112.32C360.719 112.32 361.518 111.992 362.094 111.421C362.236 111.28 362.366 111.123 362.478 110.955C362.589 110.789 362.685 110.611 362.762 110.424C362.84 110.24 362.899 110.047 362.94 109.85C362.98 109.654 363.001 109.451 363.001 109.252C363.001 109.052 362.98 108.85 362.94 108.651Z"
          fill="white"/>
    <path d="M386.461 105.236C385.042 104.229 383.063 104.548 382.042 105.947L359.726 136.527C358.705 137.927 359.028 139.878 360.447 140.885C361.007 141.281 361.653 141.472 362.294 141.472C363.278 141.472 364.248 141.021 364.867 140.173L387.182 109.593C388.205 108.194 387.881 106.243 386.461 105.236Z"
          fill="white"/>
</svg>
