<svg width="100%" height="100%" viewBox="0 0 1277 346" fill="none" xmlns="http://www.w3.org/2000/svg">
<path d="M99.9 64.6C104.3 64.6 109 65.1 114 66.1C119.2 67.1 124 68.4 128.4 70C132.8 71.6 136.6 73.4 139.8 75.4C143 77.2 144.9 79 145.5 80.8C145.5 76.2 146.7 72.5 149.1 69.7C151.7 66.7 155.3 65.2 159.9 65.2C169.7 65.2 174.6 70.5 174.6 81.1C174.6 82.9 174.3 87.7 173.7 95.5V95.2C173.3 100 172.9 104.1 172.5 107.5C172.3 110.7 172.2 113.2 172.2 115C172.2 119.8 172.5 125 173.1 130.6L174 141.4V144.7C174 155.9 169 161.5 159 161.5C148 161.5 142.7 156.1 143.1 145.3C143.1 143.5 143.1 141.7 143.1 139.9C143.3 138.1 143.4 136.4 143.4 134.8C143.8 122 139.9 111.7 131.7 103.9C123.7 96.1 113.1 92.2 99.9 92.2C82.3 92.2 68.6 99.1 58.8 112.9C49 126.7 44.1 145.9 44.1 170.5C44.1 195.7 49.2 215.3 59.4 229.3C69.6 243.1 83.8 250 102 250C111.8 250 120.5 247.7 128.1 243.1C135.7 238.3 141.1 232 144.3 224.2C145.3 221.6 146 218.6 146.4 215.2C147 211.8 147.3 207.8 147.3 203.2C147.3 191.8 152.6 186.1 163.2 186.1C174.4 186.1 180 191.8 180 203.2C180 225 172.3 242.8 156.9 256.6C141.9 270.4 122.5 277.3 98.7 277.3C71.5 277.3 49.5 267.7 32.7 248.5C24.5 238.9 18.4 227.9 14.4 215.5C10.6 202.9 8.69998 188.8 8.69998 173.2C8.69998 157 10.7 142.5 14.7 129.7C18.7 116.7 24.9 105.1 33.3 94.9C49.9 74.7 72.1 64.6 99.9 64.6ZM515.916 94.6V94.3L555.816 224.8L599.616 84.7C602.816 74.7 608.716 69.7 617.316 69.7H618.816C620.816 69.7 623.616 70 627.216 70.6C631.216 71.6 633.616 72.1 634.416 72.1C636.016 72.3 637.816 72.5 639.816 72.7C641.816 72.7 644.016 72.7 646.416 72.7C651.816 72.7 656.016 72.4 659.016 71.8L667.716 70.3C668.516 69.9 670.416 69.7 673.416 69.7C685.616 69.7 691.716 74.4 691.716 83.8C691.716 92.6 687.016 97 677.616 97C676.416 97 675.116 97 673.716 97C672.516 96.8 671.316 96.6 670.116 96.4C668.916 96.2 667.416 96.1 665.616 96.1C664.016 95.9 663.316 95.7 663.516 95.5C657.316 95.7 654.216 101.6 654.216 113.2V133.3L653.916 158.8V183.1L654.216 228.7C654.216 240.3 657.416 246.1 663.816 246.1C664.616 246.1 665.316 246.1 665.916 246.1C666.716 245.9 667.516 245.8 668.316 245.8C670.516 245.4 672.116 245.2 673.116 245.2C674.116 245.2 674.816 245.2 675.216 245.2C675.816 245.2 676.316 245.2 676.716 245.2C677.116 245 677.416 244.9 677.616 244.9C687.016 244.9 691.716 249.3 691.716 258.1C691.716 262.7 690.116 266.5 686.916 269.5C683.716 272.5 679.516 273.5 674.316 272.5C670.316 272.1 667.316 271.9 665.316 271.9C663.316 272.1 660.916 271.9 658.116 271.3C653.316 270.9 649.316 270.5 646.116 270.1C642.916 269.7 639.616 269.5 636.216 269.5C632.016 269.5 627.816 269.7 623.616 270.1C619.616 270.3 615.516 270.8 611.316 271.6C607.716 272.2 604.316 272.5 601.116 272.5C590.316 272.5 584.916 268 584.916 259C584.916 249.8 590.416 245.2 601.416 245.2C602.616 245.2 603.516 245.2 604.116 245.2C604.916 245 605.716 245.1 606.516 245.5C607.516 245.7 608.416 245.8 609.216 245.8C610.016 245.8 610.616 245.8 611.016 245.8H613.416C617.416 245.8 620.016 239.9 621.216 228.1C621.416 226.1 621.516 222.6 621.516 217.6C621.716 212.6 621.816 206.4 621.816 199C621.816 195.8 621.816 191.9 621.816 187.3C621.816 182.7 621.916 177.4 622.116 171.4C622.116 167.8 622.216 163.5 622.416 158.5C622.616 153.3 622.716 148.9 622.716 145.3V115.6L576.216 260.2C574.616 264.4 572.016 267.8 568.416 270.4C565.016 272.8 560.716 274 555.516 274C549.116 274 544.316 273 541.116 271C538.116 269 535.816 265.4 534.216 260.2C526.616 236.8 518.916 213 511.116 188.8C503.516 164.6 496.016 140.6 488.616 116.8L490.116 228.4C490.316 239.8 492.516 245.5 496.716 245.5C498.316 245.5 500.816 245.1 504.216 244.3H508.716C519.516 244.3 524.916 249 524.916 258.4C524.916 267.8 519.416 272.5 508.416 272.5C507.616 272.5 506.816 272.5 506.016 272.5C505.216 272.5 504.316 272.4 503.316 272.2H503.616C503.216 272 502.616 271.9 501.816 271.9L488.016 269.8C484.016 269.2 479.416 268.9 474.216 268.9C464.016 268.9 457.416 269.2 454.416 269.8L442.116 272.2C441.516 272.2 441.016 272.3 440.616 272.5H438.216C426.016 272.5 419.916 267.8 419.916 258.4C419.916 254.4 421.316 251.2 424.116 248.8C426.916 246.2 430.116 244.9 433.716 244.9C435.116 244.9 436.716 245 438.516 245.2C440.316 245.4 441.916 245.6 443.316 245.8C444.116 246 445.116 246.1 446.316 246.1C446.916 246.1 447.416 246.2 447.816 246.4C454.216 246.4 457.416 240.6 457.416 229V113.2C457.416 102 454.316 96.1 448.116 95.5C448.116 95.7 447.216 95.9 445.416 96.1C443.616 96.1 442.216 96.2 441.216 96.4C440.016 96.6 438.716 96.8 437.316 97C435.916 97 434.716 97 433.716 97C424.516 97 419.916 92.6 419.916 83.8C419.916 74.4 425.916 69.7 437.916 69.7C438.316 69.7 438.916 69.7 439.716 69.7C440.716 69.7 441.616 69.8 442.416 70L452.316 71.2C457.116 71.8 461.616 72.1 465.816 72.1C467.616 72.1 469.616 72 471.816 71.8C474.216 71.6 476.916 71.3 479.916 70.9C483.116 70.5 485.916 70.2 488.316 70C490.716 69.8 492.716 69.7 494.316 69.7C504.316 69.7 510.816 75.4 513.816 86.8L515.916 94.6ZM740.695 113.2C740.695 101.6 737.395 95.8 730.795 95.8C730.395 95.8 729.995 95.8 729.595 95.8C729.195 95.8 728.495 95.9 727.495 96.1C727.095 96.1 726.695 96.2 726.295 96.4C725.895 96.4 725.495 96.4 725.095 96.4H725.695C722.095 97 719.195 97.3 716.995 97.3C707.595 97.3 702.895 92.8 702.895 83.8C702.895 74.4 708.795 69.7 720.595 69.7C721.595 69.7 722.495 69.7 723.295 69.7C724.095 69.7 724.895 69.8 725.695 70H725.395L739.495 71.8C744.295 72.4 749.895 72.7 756.295 72.7C760.695 72.7 766.395 72.4 773.395 71.8H773.095C780.895 71 787.795 70.5 793.795 70.3C799.995 69.9 805.195 69.7 809.395 69.7C822.595 69.7 833.495 70.7 842.095 72.7C848.295 74.5 854.095 77.2 859.495 80.8C865.095 84.2 869.795 88.3 873.595 93.1C877.595 97.9 880.695 103.3 882.895 109.3C885.295 115.1 886.495 121.3 886.495 127.9C886.495 147.3 879.895 162.2 866.695 172.6C853.695 182.8 834.595 187.9 809.395 187.9H788.695C785.695 187.9 783.095 187.9 780.895 187.9C778.695 187.9 777.095 187.8 776.095 187.6C775.295 187.8 774.795 188.2 774.595 188.8C774.595 189.2 774.595 190.4 774.595 192.4V198.1C774.595 222.5 775.195 236.9 776.395 241.3C777.195 244.5 779.895 246.1 784.495 246.1C785.495 246.1 786.395 246.1 787.195 246.1C787.995 245.9 788.895 245.7 789.895 245.5C790.895 245.5 791.895 245.5 792.895 245.5C794.095 245.3 794.995 245.2 795.595 245.2C796.195 245.2 796.695 245.2 797.095 245.2C797.495 245 797.895 244.9 798.295 244.9C807.495 244.9 812.095 249.3 812.095 258.1C812.095 267.7 805.995 272.5 793.795 272.5C793.395 272.3 792.995 272.2 792.595 272.2C792.195 272.2 791.695 272.2 791.095 272.2C790.695 272.2 790.295 272.1 789.895 271.9L775.495 269.8C771.495 269.2 765.695 268.9 758.095 268.9C751.695 268.9 746.395 269.2 742.195 269.8L725.395 272.2C724.795 272.2 724.195 272.3 723.595 272.5H721.195C709.195 272.5 703.195 267.8 703.195 258.4C703.195 254.4 704.495 251.2 707.095 248.8C709.895 246.2 713.195 244.9 716.995 244.9C719.795 244.9 722.695 245.2 725.695 245.8C726.495 245.8 727.295 245.9 728.095 246.1C728.895 246.1 729.795 246.1 730.795 246.1C737.395 246.1 740.695 240.3 740.695 228.7V113.2ZM775.795 100.6C774.995 101.6 774.595 106.1 774.595 114.1V156.7C774.595 159.3 776.995 160.9 781.795 161.5C782.995 161.5 783.995 161.6 784.795 161.8C785.595 161.8 786.495 161.8 787.495 161.8C788.495 161.8 789.695 161.8 791.095 161.8C792.695 161.6 794.795 161.5 797.395 161.5C803.595 161.3 809.495 161 815.095 160.6C820.695 160.2 825.795 159.5 830.395 158.5C844.995 154.7 852.295 144.8 852.295 128.8C852.295 107 838.295 96.1 810.295 96.1C789.295 96.1 777.795 97.6 775.795 100.6ZM1004.62 207.7C1003.82 205.7 1003.02 204.5 1002.22 204.1C1001.62 203.5 1000.22 203.2 998.016 203.2H946.716C944.316 203.2 942.616 203.8 941.616 205C940.816 206 939.516 208.9 937.716 213.7L929.316 236.2C928.716 237.8 928.416 239.2 928.416 240.4C928.416 244 930.516 245.8 934.716 245.8C935.516 245.8 936.616 245.8 938.016 245.8C939.416 245.6 940.916 245.4 942.516 245.2C944.116 245 945.616 244.9 947.016 244.9C948.416 244.7 949.716 244.6 950.916 244.6C962.116 244.6 967.716 249.3 967.716 258.7C967.716 267.7 961.716 272.2 949.716 272.2C948.916 272.2 948.016 272.1 947.016 271.9C946.016 271.9 945.016 271.8 944.016 271.6H942.816L928.416 269.5C927.216 269.3 925.416 269.2 923.016 269.2C920.616 269 918.216 268.9 915.816 268.9C913.016 268.9 910.316 269 907.716 269.2C905.316 269.2 903.516 269.3 902.316 269.5L890.316 271.3C887.716 271.7 885.316 272 883.116 272.2C881.116 272.4 879.316 272.5 877.716 272.5C866.916 272.5 861.516 268 861.516 259C861.516 249.6 866.816 244.9 877.416 244.9C878.416 244.9 879.116 244.9 879.516 244.9C880.116 244.7 880.916 244.8 881.916 245.2H884.616C887.816 245.2 890.316 243.8 892.116 241C893.316 239.4 895.116 235.1 897.516 228.1L951.216 83.2C954.816 73.4 962.416 68.5 974.016 68.5C985.216 68.5 992.616 73.4 996.216 83.2L1047.82 226C1050.62 233.8 1053.02 239.1 1055.02 241.9C1057.22 244.5 1060.02 245.8 1063.42 245.8C1064.82 245.8 1065.82 245.7 1066.42 245.5C1067.82 245.5 1068.92 245.5 1069.72 245.5C1070.72 245.3 1071.62 245.2 1072.42 245.2C1073.22 245.2 1073.92 245.1 1074.52 244.9C1085.52 244.9 1091.02 249.3 1091.02 258.1C1091.02 267.3 1085.72 271.9 1075.12 271.9C1074.12 271.9 1072.92 271.9 1071.52 271.9C1070.32 271.9 1069.22 271.8 1068.22 271.6C1067.82 271.6 1067.42 271.5 1067.02 271.3C1066.62 271.3 1066.32 271.3 1066.12 271.3C1060.12 270.5 1054.92 270 1050.52 269.8C1046.12 269.4 1042.52 269.2 1039.72 269.2C1036.32 269.2 1031.72 269.4 1025.92 269.8C1020.32 270.2 1013.52 270.8 1005.52 271.6C1005.12 271.6 1004.62 271.6 1004.02 271.6C1003.62 271.8 1003.22 271.9 1002.82 271.9C1001.62 272.1 1000.32 272.2 998.916 272.2C997.716 272.2 996.716 272.2 995.916 272.2C984.916 272.2 979.416 267.6 979.416 258.4C979.416 249.2 985.316 244.6 997.116 244.6C998.116 244.6 999.316 244.7 1000.72 244.9C1002.12 244.9 1003.62 245 1005.22 245.2C1006.62 245.4 1008.02 245.6 1009.42 245.8C1010.82 245.8 1011.82 245.8 1012.42 245.8C1015.42 245.8 1016.92 244.5 1016.92 241.9C1016.92 241.7 1016.82 241.3 1016.62 240.7C1016.42 240.1 1016.12 239.3 1015.72 238.3L1014.82 235.6V235.9L1004.62 207.7ZM950.616 178.6C950.416 178.8 950.316 178.7 950.316 178.3L950.616 178.6ZM950.316 178.3C950.316 177.9 950.316 177.6 950.316 177.4C950.516 177 950.616 177 950.616 177.4C950.416 177.6 950.316 177.8 950.316 178V178.3ZM950.616 177.1C950.616 176.9 950.416 176.6 950.016 176.2H950.916C950.716 176.4 950.616 176.7 950.616 177.1ZM994.416 177.7C994.216 177.5 994.116 177.3 994.116 177.1C994.116 176.9 994.016 176.6 993.816 176.2H995.616C994.816 176.6 994.416 177.1 994.416 177.7ZM972.816 111.4C969.016 122.2 965.216 133 961.416 143.8C957.816 154.6 954.316 165.4 950.916 176.2H993.816V175.6L972.816 111.4ZM1136.94 245.8H1199.64C1207.24 245.8 1213.54 245.6 1218.54 245.2C1223.54 244.6 1227.14 243.5 1229.34 241.9C1232.94 239.7 1234.74 234.4 1234.74 226C1234.74 224.8 1234.64 223.4 1234.44 221.8C1234.24 220.2 1234.14 218.3 1234.14 216.1C1233.74 213.7 1233.44 211.2 1233.24 208.6C1233.24 205.8 1233.24 203.3 1233.24 201.1C1233.24 190.7 1238.44 185.5 1248.84 185.5C1259.04 185.5 1264.14 190.9 1264.14 201.7C1264.14 202.5 1264.04 203.7 1263.84 205.3C1263.84 206.7 1263.74 208.3 1263.54 210.1C1263.14 213.3 1262.84 216.8 1262.64 220.6C1262.64 224.2 1262.64 227.7 1262.64 231.1C1262.64 233.7 1262.64 235.8 1262.64 237.4C1262.64 238.8 1262.74 240 1262.94 241C1263.54 247.6 1263.84 252.3 1263.84 255.1C1263.84 266.9 1256.74 272.8 1242.54 272.8C1240.34 272.8 1238.04 272.8 1235.64 272.8C1233.44 272.8 1231.24 272.7 1229.04 272.5C1220.64 272.1 1211.84 271.8 1202.64 271.6C1193.44 271.4 1184.34 271.3 1175.34 271.3C1165.74 271.3 1154.84 271.6 1142.64 272.2C1140.84 272.4 1138.44 272.5 1135.44 272.5C1132.64 272.5 1129.74 272.5 1126.74 272.5C1115.74 272.5 1108.24 271.1 1104.24 268.3C1100.44 265.3 1098.54 260 1098.54 252.4C1098.54 249 1099.24 245.7 1100.64 242.5C1102.04 239.1 1103.94 235.9 1106.34 232.9L1222.44 96.1H1161.24C1151.04 96.1 1144.14 98 1140.54 101.8C1136.94 105.4 1135.14 112.1 1135.14 121.9C1135.14 122.9 1135.14 124.2 1135.14 125.8C1135.14 127.2 1135.24 128.8 1135.44 130.6C1135.44 132.2 1135.44 133.9 1135.44 135.7C1135.64 137.5 1135.74 138.8 1135.74 139.6C1135.74 152 1130.44 158.2 1119.84 158.2C1109.64 158.2 1104.54 152.9 1104.54 142.3C1104.54 138.3 1104.84 132.8 1105.44 125.8C1105.84 122.2 1106.14 119.2 1106.34 116.8C1106.54 114.2 1106.64 112 1106.64 110.2C1106.64 109.2 1106.54 107.8 1106.34 106C1106.34 104 1106.24 101.9 1106.04 99.7C1105.84 97.5 1105.64 95.4 1105.44 93.4C1105.44 91.2 1105.44 89.4 1105.44 88C1105.44 75.2 1112.34 68.9 1126.14 69.1C1127.34 69.1 1128.54 69.2 1129.74 69.4C1131.14 69.4 1132.44 69.4 1133.64 69.4C1137.44 69.8 1142.54 69.8 1148.94 69.4H1159.44C1161.84 69.6 1163.74 69.7 1165.14 69.7C1166.74 69.7 1167.94 69.7 1168.74 69.7L1228.14 69.4H1239.84C1256.84 69.4 1265.34 75.5 1265.34 87.7C1265.34 93.1 1262.94 98.6 1258.14 104.2L1136.94 245.8Z" fill="#333333"/>
<path d="M302.5 291C367.946 291 421 237.946 421 172.5C421 107.054 367.946 54 302.5 54C237.054 54 184 107.054 184 172.5C184 237.946 237.054 291 302.5 291Z" fill="#D8D8D8" stroke="black" stroke-width="6"/>
<path d="M302.5 272.4C357.673 272.4 402.4 227.673 402.4 172.5C402.4 117.327 357.673 72.6 302.5 72.6C247.327 72.6 202.6 117.327 202.6 172.5C202.6 227.673 247.327 272.4 302.5 272.4Z" fill="#FBFBFB" stroke="#1C7FEA" stroke-width="7.2"/>
<path d="M303 244.76C342.632 244.76 374.76 212.632 374.76 173C374.76 133.368 342.632 101.24 303 101.24C263.368 101.24 231.24 133.368 231.24 173C231.24 212.632 263.368 244.76 303 244.76Z" stroke="#EAF6FF" stroke-width="6.48"/>
<path d="M379.393 250.975L368.645 240.227C368.449 240.031 368.133 240.031 367.937 240.227C367.742 240.422 367.742 240.738 367.937 240.934L378.685 251.682C378.881 251.877 379.197 251.877 379.393 251.682C379.588 251.487 379.588 251.17 379.393 250.975Z" fill="#D8D8D8" stroke="#EAF6FF" stroke-width="9.72"/>
<path d="M383.975 99.2266L373.227 109.975C373.031 110.17 373.031 110.487 373.227 110.682C373.422 110.877 373.738 110.877 373.934 110.682L384.682 99.9337C384.877 99.7385 384.877 99.4219 384.682 99.2266C384.486 99.0314 384.17 99.0314 383.975 99.2266Z" fill="#D8D8D8" stroke="#EAF6FF" stroke-width="9.72"/>
<path d="M236.975 240.227L226.227 250.975C226.031 251.17 226.031 251.487 226.227 251.682C226.422 251.877 226.739 251.877 226.934 251.682L237.682 240.934C237.877 240.738 237.877 240.422 237.682 240.227C237.487 240.031 237.17 240.031 236.975 240.227Z" fill="#D8D8D8" stroke="#EAF6FF" stroke-width="9.72"/>
<path d="M232.393 109.975L221.645 99.2266C221.449 99.0314 221.133 99.0314 220.937 99.2266C220.742 99.4219 220.742 99.7385 220.937 99.9337L231.685 110.682C231.881 110.877 232.197 110.877 232.393 110.682C232.588 110.486 232.588 110.17 232.393 109.975Z" fill="#D8D8D8" stroke="#EAF6FF" stroke-width="9.72"/>
<path d="M300.07 88.5444L300.038 88.512C300.729 89.9592 301.366 91.2984 301.949 92.5296C302.554 93.7608 303.148 94.9704 303.731 96.1584C304.314 97.3248 304.898 98.5236 305.481 99.7548C306.086 100.986 306.734 102.325 307.425 103.772V93.534C307.425 91.9356 307.414 91.0824 307.392 90.9744C307.241 90.1752 306.917 89.7432 306.42 89.6784C306.399 89.7 306.291 89.7216 306.096 89.7432C305.924 89.7432 305.783 89.754 305.675 89.7756C305.524 89.7972 305.373 89.8188 305.222 89.8404C305.092 89.8404 304.973 89.8404 304.865 89.8404C304.455 89.8404 304.098 89.7 303.796 89.4192C303.494 89.1168 303.342 88.782 303.342 88.4148C303.342 87.378 303.99 86.8596 305.286 86.8596C305.394 86.8596 305.47 86.8596 305.513 86.8596C305.578 86.838 305.664 86.8488 305.772 86.892L307.133 87.0864C307.436 87.1296 307.727 87.162 308.008 87.1836C308.31 87.2052 308.58 87.216 308.818 87.216C309.293 87.216 309.984 87.1512 310.892 87.0216L311.993 86.8596C312.08 86.8596 312.155 86.8488 312.22 86.8272H312.479C313.732 86.8272 314.358 87.3348 314.358 88.35C314.358 89.3436 313.764 89.8404 312.576 89.8404C312.468 89.8404 312.382 89.8512 312.317 89.8728C312.274 89.8728 312.22 89.8512 312.155 89.808H311.928C311.518 89.808 311.248 89.916 311.118 90.132C311.01 90.348 310.935 90.8232 310.892 91.5576C310.892 91.86 310.881 92.1624 310.859 92.4648C310.838 92.7456 310.827 93.0372 310.827 93.3396L310.762 96.5148V104.809C310.762 106.408 310.568 107.531 310.179 108.179C309.79 108.805 309.099 109.118 308.105 109.118C306.874 109.118 305.859 108.308 305.06 106.688L297.899 91.8492V104.032C297.899 105.284 298.256 105.911 298.968 105.911C299.012 105.911 299.098 105.911 299.228 105.911C299.357 105.889 299.498 105.878 299.649 105.878C299.778 105.857 299.951 105.835 300.167 105.814C300.405 105.792 300.502 105.781 300.459 105.781C301.474 105.781 301.982 106.267 301.982 107.239C301.982 108.254 301.334 108.762 300.038 108.762H299.811C299.768 108.74 299.714 108.73 299.649 108.73C299.606 108.73 299.573 108.73 299.552 108.73L298.288 108.535H298.32C297.953 108.492 297.608 108.46 297.284 108.438C296.96 108.395 296.657 108.373 296.376 108.373C296.16 108.373 295.869 108.395 295.502 108.438C295.156 108.46 294.778 108.492 294.368 108.535L292.845 108.73C292.758 108.73 292.683 108.74 292.618 108.762H292.294C291.063 108.762 290.447 108.254 290.447 107.239C290.447 106.31 290.955 105.846 291.97 105.846C291.992 105.846 292.024 105.857 292.067 105.878C292.11 105.878 292.164 105.878 292.229 105.878H292.845C293.039 105.943 293.244 105.976 293.46 105.976C294.152 105.976 294.497 105.349 294.497 104.096V101.926L294.53 99.1716V96.5148L294.497 91.59C294.497 90.3156 294.141 89.6784 293.428 89.6784C293.32 89.6784 293.212 89.6892 293.104 89.7108C293.061 89.7108 293.018 89.7216 292.974 89.7432C292.953 89.7432 292.92 89.7432 292.877 89.7432C292.704 89.7864 292.532 89.8188 292.359 89.8404C292.186 89.8404 292.046 89.8404 291.938 89.8404C290.922 89.8404 290.415 89.3544 290.415 88.3824C290.415 87.3672 291.03 86.8596 292.262 86.8596C292.326 86.8596 292.413 86.8596 292.521 86.8596C292.629 86.8596 292.737 86.8704 292.845 86.892C293.342 86.9352 293.784 86.9784 294.173 87.0216C294.584 87.0432 294.918 87.054 295.178 87.054C295.437 87.054 295.88 87.0216 296.506 86.9568C297.111 86.892 297.597 86.8596 297.964 86.8596C298.418 86.8596 298.774 86.9352 299.033 87.0864C299.314 87.2376 299.541 87.4644 299.714 87.7668L300.07 88.5444Z" fill="black"/>
<path d="M369.407 160.558C369.407 159.305 369.05 158.678 368.337 158.678C368.186 158.678 368.003 158.7 367.787 158.743C367.463 158.808 367.149 158.84 366.847 158.84C366.437 158.84 366.08 158.711 365.778 158.452C365.497 158.171 365.357 157.814 365.357 157.382C365.357 156.367 365.972 155.86 367.203 155.86C367.225 155.86 367.29 155.86 367.398 155.86C367.506 155.86 367.614 155.87 367.722 155.892L370.217 156.086C370.778 156.13 371.189 156.173 371.448 156.216C371.729 156.238 372.02 156.238 372.323 156.216L379.839 155.989C379.947 155.989 380.477 155.957 381.427 155.892H381.395C381.567 155.87 381.729 155.86 381.881 155.86C382.032 155.86 382.183 155.86 382.334 155.86C383.781 155.86 384.505 156.486 384.505 157.739C384.505 157.804 384.494 157.987 384.473 158.29C384.451 158.57 384.419 158.927 384.375 159.359C384.332 159.661 384.3 159.974 384.278 160.298C384.278 160.622 384.278 160.903 384.278 161.141C384.278 161.486 384.278 161.789 384.278 162.048C384.3 162.286 384.321 162.469 384.343 162.599C384.386 162.901 384.419 163.171 384.44 163.409C384.462 163.646 384.473 163.852 384.473 164.024C384.473 165.083 383.922 165.612 382.82 165.612C381.719 165.612 381.168 164.921 381.168 163.538V161.918C381.168 160.363 380.909 159.478 380.39 159.262H380.423C379.883 159.046 378.554 158.938 376.437 158.938C375.098 158.938 374.267 158.97 373.943 159.035C373.316 159.251 373.003 159.726 373.003 160.46V162.599C372.981 162.75 372.971 162.88 372.971 162.988C372.971 163.074 372.971 163.139 372.971 163.182V163.571C372.971 164.154 373.014 164.489 373.1 164.575C373.316 164.618 373.532 164.64 373.748 164.64H375.044C375.973 164.64 376.448 164.359 376.47 163.798C376.448 163.754 376.427 163.625 376.405 163.409C376.405 163.193 376.394 163.009 376.373 162.858V162.89C376.308 162.502 376.275 162.102 376.275 161.692C376.275 160.59 376.826 160.039 377.928 160.039C379.029 160.039 379.58 160.622 379.58 161.789C379.58 161.897 379.559 162.124 379.515 162.469C379.494 162.815 379.44 163.258 379.353 163.798C379.224 164.748 379.159 165.569 379.159 166.26C379.159 166.454 379.17 166.746 379.191 167.135C379.213 167.502 379.245 167.934 379.289 168.431L379.451 169.468C379.515 169.921 379.548 170.31 379.548 170.634C379.548 171.671 378.997 172.189 377.895 172.189C376.815 172.189 376.275 171.606 376.275 170.44C376.275 170.332 376.275 170.18 376.275 169.986C376.297 169.792 376.319 169.608 376.34 169.435C376.34 169.349 376.34 169.23 376.34 169.079C376.362 168.928 376.373 168.798 376.373 168.69C376.394 168.56 376.405 168.474 376.405 168.431C376.427 168.366 376.437 168.377 376.437 168.463C376.437 167.858 376.027 167.556 375.206 167.556H373.781C373.413 167.556 373.187 167.632 373.1 167.783C373.035 167.934 373.003 168.258 373.003 168.755V170.699C373.003 170.872 373.003 171.066 373.003 171.282C373.003 171.476 373.014 171.714 373.035 171.995C373.057 172.34 373.068 172.632 373.068 172.87C373.068 173.086 373.068 173.248 373.068 173.356C373.089 174.112 373.187 174.533 373.359 174.619C373.467 174.706 373.899 174.749 374.655 174.749H378.9C379.915 174.749 380.606 174.598 380.973 174.295C381.362 173.971 381.557 173.399 381.557 172.578C381.557 172.47 381.557 172.34 381.557 172.189C381.557 172.038 381.546 171.865 381.524 171.671C381.524 171.606 381.513 171.541 381.492 171.476C381.492 171.39 381.492 171.314 381.492 171.25C381.47 170.99 381.459 170.731 381.459 170.472C381.459 170.191 381.459 169.975 381.459 169.824C381.459 168.593 382.01 167.977 383.112 167.977C384.257 167.977 384.829 168.604 384.829 169.856C384.829 169.986 384.829 170.148 384.829 170.342C384.829 170.537 384.818 170.753 384.797 170.99C384.797 171.055 384.786 171.152 384.764 171.282C384.764 171.39 384.764 171.487 384.764 171.574C384.764 171.682 384.753 171.79 384.732 171.898C384.732 172.006 384.732 172.114 384.732 172.222C384.71 172.459 384.699 172.664 384.699 172.837C384.699 173.01 384.699 173.161 384.699 173.291C384.699 173.42 384.699 173.593 384.699 173.809C384.699 174.025 384.71 174.284 384.732 174.587C384.732 174.673 384.732 174.749 384.732 174.814C384.753 174.857 384.764 174.9 384.764 174.943C384.786 175.116 384.797 175.289 384.797 175.462C384.797 175.613 384.797 175.742 384.797 175.85C384.797 177.125 384.149 177.762 382.853 177.762C382.766 177.762 382.647 177.762 382.496 177.762C382.345 177.762 382.215 177.751 382.107 177.73C382.043 177.73 381.967 177.719 381.881 177.697C381.816 177.697 381.751 177.697 381.686 177.697C381.297 177.632 380.941 177.6 380.617 177.6C380.293 177.578 379.958 177.568 379.613 177.568C379.289 177.568 378.932 177.578 378.543 177.6C378.155 177.6 377.712 177.6 377.215 177.6C376.481 177.578 375.789 177.568 375.141 177.568C374.515 177.546 373.932 177.535 373.392 177.535C371.448 177.535 369.536 177.6 367.657 177.73C367.571 177.73 367.506 177.74 367.463 177.762H367.203C365.972 177.762 365.357 177.244 365.357 176.207C365.357 175.256 365.853 174.781 366.847 174.781C366.869 174.781 366.901 174.792 366.944 174.814C366.987 174.814 367.052 174.814 367.139 174.814C367.203 174.814 367.29 174.824 367.398 174.846C367.506 174.846 367.614 174.846 367.722 174.846C367.83 174.868 367.938 174.889 368.046 174.911C368.154 174.911 368.251 174.911 368.337 174.911C369.05 174.911 369.407 174.284 369.407 173.032V160.558Z" fill="black"/>
<path d="M302.225 227.309C304.017 227.309 305.519 227.762 306.728 228.67C306.901 227.957 307.376 227.6 308.154 227.6C309.212 227.6 309.741 228.194 309.741 229.382V229.577C309.741 229.598 309.731 229.631 309.709 229.674C309.709 229.717 309.709 229.76 309.709 229.804C309.666 230.041 309.623 230.408 309.579 230.905C309.558 231.402 309.547 231.964 309.547 232.59C309.547 232.612 309.547 232.655 309.547 232.72C309.569 232.763 309.579 232.828 309.579 232.914C309.579 232.979 309.579 233.065 309.579 233.173C309.579 233.281 309.59 233.411 309.612 233.562L309.709 234.761C309.752 234.869 309.763 234.955 309.741 235.02C309.741 235.063 309.741 235.139 309.741 235.247C309.741 236.543 309.18 237.191 308.057 237.191C306.912 237.191 306.339 236.629 306.339 235.506V235.344L306.404 234.469C306.426 234.318 306.437 234.188 306.437 234.08C306.437 233.972 306.437 233.886 306.437 233.821C306.437 232.72 306.059 231.856 305.303 231.229C304.568 230.603 303.542 230.29 302.225 230.29C301.015 230.29 300.065 230.581 299.373 231.164C298.682 231.748 298.337 232.536 298.337 233.53C298.337 234.674 298.833 235.506 299.827 236.024C300.129 236.197 300.561 236.348 301.123 236.478C301.706 236.608 302.387 236.737 303.164 236.867C304.331 237.083 305.389 237.331 306.339 237.612C307.29 237.893 307.992 238.217 308.445 238.584C309.18 239.167 309.741 239.848 310.13 240.625C310.519 241.403 310.713 242.278 310.713 243.25C310.713 245.323 309.947 247.03 308.413 248.369C306.901 249.643 304.979 250.28 302.646 250.28C300.615 250.28 298.866 249.773 297.397 248.758C297.397 249.794 296.857 250.313 295.777 250.313C294.632 250.313 294.06 249.73 294.06 248.563C294.06 248.477 294.071 248.39 294.092 248.304L294.222 246.684C294.287 245.885 294.319 245.377 294.319 245.161C294.319 244.988 294.297 244.751 294.254 244.448C294.233 244.146 294.2 243.779 294.157 243.347C294.114 242.915 294.081 242.548 294.06 242.245C294.038 241.943 294.027 241.673 294.027 241.435C294.027 240.204 294.589 239.588 295.712 239.588C296.879 239.588 297.462 240.204 297.462 241.435V242.083C297.44 242.148 297.429 242.234 297.429 242.342C297.429 242.45 297.429 242.569 297.429 242.699C297.429 244.124 297.872 245.258 298.758 246.101C299.665 246.922 300.896 247.332 302.451 247.332C303.877 247.332 305 247.008 305.821 246.36C306.663 245.69 307.085 244.772 307.085 243.606C307.085 242.785 306.793 242.105 306.21 241.565C305.627 241.025 304.817 240.647 303.78 240.431L301.998 240.107C301.091 239.956 300.281 239.783 299.568 239.588C298.877 239.394 298.283 239.2 297.786 239.005C296.792 238.573 296.004 237.904 295.421 236.996C294.837 236.068 294.546 235.031 294.546 233.886C294.546 231.942 295.269 230.344 296.717 229.091C298.099 227.903 299.935 227.309 302.225 227.309Z" fill="black"/>
<path d="M229.725 178.28C226.809 178.28 224.487 177.233 222.759 175.138C221.095 173.042 220.264 170.256 220.264 166.778C220.264 163.279 221.106 160.493 222.791 158.419C224.497 156.346 226.863 155.309 229.887 155.309C232.803 155.309 235.092 156.313 236.755 158.322C238.462 160.331 239.315 163.009 239.315 166.357C239.315 169.986 238.451 172.87 236.723 175.008C235.081 177.19 232.749 178.28 229.725 178.28ZM229.789 158.419C227.953 158.419 226.539 159.143 225.545 160.59C224.551 162.037 224.055 164.089 224.055 166.746C224.055 169.446 224.551 171.53 225.545 172.999C226.539 174.446 227.943 175.17 229.757 175.17C231.485 175.17 232.867 174.436 233.904 172.967C234.984 171.476 235.524 169.37 235.524 166.649C235.524 163.992 235.027 161.962 234.034 160.558C233.062 159.132 231.647 158.419 229.789 158.419Z" fill="black"/>
<path fill-rule="evenodd" clip-rule="evenodd" d="M341.1 134.546L321.298 173.106L341.177 212.177L302.399 192.447L263.622 212.177L283.554 173L302.399 191.844L320.701 173.542L319.949 172.791L302.557 190.184L283.465 171.092L284.393 170.163L266.622 134.622L302.164 152.392L302.557 152L303.737 153.178L304.283 153.451L341.1 134.546Z" fill="#1C7FEA"/>
<path fill-rule="evenodd" clip-rule="evenodd" d="M288 186V185.607L249 172.608L288 159.607V159L301.5 117L315 159L356.796 172.608L315.162 186.162L301.608 227.796L288 186Z" fill="#430C45"/>
</svg>
