<svg width="100%" height="100%" viewBox="0 0 40 40" fill="none" xmlns="http://www.w3.org/2000/svg">
<g clip-path="url(#clip0)">
<path d="M38.7488 17.4989C38.0588 17.4989 37.4989 18.0589 37.4989 18.7488V32.903L27.4995 36.9027V23.7485C27.4995 23.0586 26.9395 22.4986 26.2496 22.4986C25.5596 22.4986 24.9997 23.0586 24.9997 23.7485V36.9002L15.0003 32.9005V13.0967L20.7924 15.414C21.4249 15.669 22.1598 15.359 22.4173 14.7166C22.6748 14.0766 22.3623 13.3492 21.7199 13.0917L14.2378 10.0969C14.2378 10.0969 14.2378 10.0969 14.2353 10.0969L14.2153 10.0894C13.9178 9.96936 13.5854 9.96936 13.2879 10.0894L13.2654 10.0969C13.2654 10.0969 13.2654 10.0969 13.2629 10.0969L0.786172 15.089C0.313701 15.279 0.0012207 15.7365 0.0012207 16.249V38.7476C0.0012207 39.1626 0.208708 39.55 0.551186 39.7825C0.761173 39.925 1.00366 39.9975 1.25114 39.9975C1.40863 39.9975 1.56612 39.9675 1.71611 39.9075L13.7504 35.0953L25.7621 39.9C25.7621 39.9 25.7621 39.9 25.7646 39.9L25.7871 39.91C26.0846 40.03 26.4171 40.03 26.7145 39.91L26.737 39.9C26.737 39.9 26.737 39.9 26.7395 39.9L39.2163 34.9103C39.6862 34.7178 39.9987 34.2604 39.9987 33.7479V18.7488C39.9987 18.0589 39.4388 17.4989 38.7488 17.4989ZM12.5004 32.9005L2.50106 36.9002V17.0939L12.5004 13.0942V32.9005Z" fill="#1976D2"/>
<path d="M31.2493 4.99969C29.1819 4.99969 27.4995 6.68209 27.4995 8.74946C27.4995 10.8168 29.1819 12.4992 31.2493 12.4992C33.3166 12.4992 34.999 10.8168 34.999 8.74946C34.999 6.68209 33.3166 4.99969 31.2493 4.99969ZM31.2493 9.99938C30.5593 9.99938 29.9994 9.43942 29.9994 8.74946C29.9994 8.0595 30.5593 7.49954 31.2493 7.49954C31.9392 7.49954 32.4992 8.0595 32.4992 8.74946C32.4992 9.43942 31.9392 9.99938 31.2493 9.99938Z" fill="#1976D2"/>
<path d="M31.2492 0C26.4245 0 22.4998 3.92476 22.4998 8.74945C22.4998 13.2392 29.5193 21.1912 30.3193 22.0836C30.5568 22.3461 30.8942 22.4986 31.2492 22.4986C31.6042 22.4986 31.9417 22.3461 32.1792 22.0836C32.9791 21.1912 39.9987 13.2392 39.9987 8.74945C39.9987 3.92476 36.0739 0 31.2492 0ZM31.2492 19.3413C28.5194 16.104 24.9996 11.1343 24.9996 8.74945C24.9996 5.30467 27.8044 2.49984 31.2492 2.49984C34.694 2.49984 37.4988 5.30467 37.4988 8.74945C37.4988 11.1318 33.979 16.104 31.2492 19.3413Z" fill="#1976D2"/>
</g>
<defs>
<clipPath id="clip0">
<rect width="40" height="40" fill="white"/>
</clipPath>
</defs>
</svg>
