<svg width="100" height="132" viewBox="0 0 100 132" fill="none" xmlns="http://www.w3.org/2000/svg">
<g clip-path="url(#clip0_1703_5651)">
<path d="M96.872 43.7472C95.147 43.7472 93.7472 45.1472 93.7472 46.872V82.2575L68.7487 92.2567V59.3712C68.7487 57.6465 67.3487 56.2465 65.624 56.2465C63.899 56.2465 62.4992 57.6465 62.4992 59.3712V92.2505L37.5007 82.2512V32.7417L51.981 38.535C53.5622 39.1725 55.3995 38.3975 56.0432 36.7915C56.687 35.1915 55.9057 33.373 54.2997 32.7292L35.5945 25.2422C35.5945 25.2422 35.5945 25.2422 35.5882 25.2422L35.5382 25.2235C34.7945 24.9234 33.9635 24.9234 33.2197 25.2235L33.1635 25.2422C33.1635 25.2422 33.1635 25.2422 33.1572 25.2422L1.96543 37.7225C0.784252 38.1975 0.00305176 39.3412 0.00305176 40.6225V96.869C0.00305176 97.9065 0.52177 98.875 1.37796 99.4562C1.90293 99.8125 2.50915 99.9937 3.12785 99.9937C3.52157 99.9937 3.9153 99.9187 4.29027 99.7687L34.376 87.7382L64.4052 99.75C64.4052 99.75 64.4052 99.75 64.4115 99.75L64.4677 99.775C65.2115 100.075 66.0427 100.075 66.7862 99.775L66.8425 99.75C66.8425 99.75 66.8425 99.75 66.8487 99.75L98.0407 87.2757C99.2155 86.7945 99.9967 85.651 99.9967 84.3697V46.872C99.9967 45.1472 98.597 43.7472 96.872 43.7472ZM31.251 82.2512L6.25265 92.2505V42.7347L31.251 32.7355V82.2512Z" fill="white"/>
<path d="M78.1232 12.4993C72.9547 12.4993 68.7487 16.7053 68.7487 21.8737C68.7487 27.042 72.9547 31.248 78.1232 31.248C83.2915 31.248 87.4975 27.042 87.4975 21.8737C87.4975 16.7053 83.2915 12.4993 78.1232 12.4993ZM78.1232 24.9985C76.3982 24.9985 74.9985 23.5986 74.9985 21.8737C74.9985 20.1488 76.3982 18.7489 78.1232 18.7489C79.848 18.7489 81.248 20.1488 81.248 21.8737C81.248 23.5986 79.848 24.9985 78.1232 24.9985Z" fill="white"/>
<path d="M78.123 0C66.0613 0 56.2495 9.8119 56.2495 21.8736C56.2495 33.098 73.7983 52.978 75.7983 55.209C76.392 55.8652 77.2355 56.2465 78.123 56.2465C79.0105 56.2465 79.8543 55.8652 80.448 55.209C82.4478 52.978 99.9968 33.098 99.9968 21.8736C99.9968 9.8119 90.1848 0 78.123 0ZM78.123 48.3532C71.2985 40.26 62.499 27.8357 62.499 21.8736C62.499 13.2617 69.511 6.2496 78.123 6.2496C86.735 6.2496 93.747 13.2617 93.747 21.8736C93.747 27.8295 84.9475 40.26 78.123 48.3532Z" fill="white"/>
</g>
<rect x="9" y="104" width="82" height="28" rx="10" fill="white"/>
<path d="M19.1289 108.938H22.1055L26.4883 121.465L30.8711 108.938H33.8477L27.6836 126H25.293L19.1289 108.938ZM17.5234 108.938H20.4883L21.0273 121.148V126H17.5234V108.938ZM32.4883 108.938H35.4648V126H31.9492V121.148L32.4883 108.938ZM45.6953 111.855L41.0547 126H37.3164L43.6562 108.938H46.0352L45.6953 111.855ZM49.5508 126L44.8984 111.855L44.5234 108.938H46.9258L53.3008 126H49.5508ZM49.3398 119.648V122.402H40.3281V119.648H49.3398ZM61.5273 119.918H57.1797V117.176H61.5273C62.1992 117.176 62.7461 117.066 63.168 116.848C63.5898 116.621 63.8984 116.309 64.0938 115.91C64.2891 115.512 64.3867 115.062 64.3867 114.562C64.3867 114.055 64.2891 113.582 64.0938 113.145C63.8984 112.707 63.5898 112.355 63.168 112.09C62.7461 111.824 62.1992 111.691 61.5273 111.691H58.3984V126H54.8828V108.938H61.5273C62.8633 108.938 64.0078 109.18 64.9609 109.664C65.9219 110.141 66.6562 110.801 67.1641 111.645C67.6719 112.488 67.9258 113.453 67.9258 114.539C67.9258 115.641 67.6719 116.594 67.1641 117.398C66.6562 118.203 65.9219 118.824 64.9609 119.262C64.0078 119.699 62.8633 119.918 61.5273 119.918ZM75.3438 111.855L70.7031 126H66.9648L73.3047 108.938H75.6836L75.3438 111.855ZM79.1992 126L74.5469 111.855L74.1719 108.938H76.5742L82.9492 126H79.1992ZM78.9883 119.648V122.402H69.9766V119.648H78.9883Z" fill="#1976D2"/>
<defs>
<clipPath id="clip0_1703_5651">
<rect width="100" height="100" fill="white"/>
</clipPath>
</defs>
</svg>
