<svg width="100%" height="100%" viewBox="0 0 50 50" fill="none" xmlns="http://www.w3.org/2000/svg">
    <g clip-path="url(#clip0_1610_7005)">
        <path d="M37.8328 17.1062C37.714 16.823 37.5684 16.5561 37.399 16.3086H39.9413C42.4183 16.3086 44.4335 14.2933 44.4335 11.8164C44.4335 9.33944 42.4183 7.32421 39.9413 7.32421H32.121C32.6182 6.60136 32.9101 5.72685 32.9101 4.78515C32.9101 2.3082 30.8949 0.292969 28.4179 0.292969H4.49218C2.01523 0.292969 0 2.3082 0 4.78515C0 7.2621 2.01523 9.27733 4.49218 9.27733H12.3125C11.8153 10.0002 11.5234 10.8747 11.5234 11.8164C11.5234 12.7581 11.8152 13.6326 12.3125 14.3554H9.76561C7.28866 14.3554 5.27343 16.3707 5.27343 18.8476C5.27343 20.2702 5.93886 21.5396 6.97411 22.3632C5.93886 23.1869 5.27343 24.4563 5.27343 25.8789C5.27343 27.3014 5.93886 28.5708 6.97411 29.3945C5.93886 30.2181 5.27343 31.4875 5.27343 32.9101C5.27343 34.3326 5.93886 35.6021 6.97411 36.4257C5.93886 37.2493 5.27343 38.5188 5.27343 39.9413C5.27343 42.4183 7.28866 44.4335 9.76561 44.4335H21.2744C24.3062 47.6764 28.6193 49.707 33.3985 49.707C42.5526 49.707 50 42.2596 50 33.1055C50 25.4867 44.8408 19.051 37.8328 17.1062ZM39.9413 9.27733C41.3414 9.27733 42.4804 10.4164 42.4804 11.8164C42.4804 13.2164 41.3414 14.3554 39.9413 14.3554H33.6913H16.0156C14.6155 14.3554 13.4765 13.2164 13.4765 11.8164C13.4765 10.4164 14.6155 9.27733 16.0156 9.27733H39.9413ZM4.49218 7.32421C3.09208 7.32421 1.95312 6.18515 1.95312 4.78515C1.95312 3.38515 3.09208 2.24609 4.49218 2.24609H28.4179C29.818 2.24609 30.957 3.38515 30.957 4.78515C30.957 6.18515 29.818 7.32421 28.4179 7.32421H4.49218ZM9.76561 16.3086H33.6913C34.0847 16.3086 34.4614 16.4 34.7993 16.5636C34.3373 16.5249 33.8703 16.504 33.3985 16.504C28.814 16.504 24.6578 18.372 21.6505 21.3867H9.76561C8.36561 21.3867 7.22655 20.2476 7.22655 18.8476C7.22655 17.4476 8.36561 16.3086 9.76561 16.3086ZM9.76561 23.3398H19.9819C18.8733 24.8586 18.0162 26.5717 17.4718 28.4179H9.76561C8.36551 28.4179 7.22655 27.279 7.22655 25.8789C7.22655 24.4789 8.36551 23.3398 9.76561 23.3398ZM9.76561 30.371H17.0234C16.8753 31.261 16.7969 32.1742 16.7969 33.1055C16.7969 33.901 16.8545 34.6832 16.9632 35.4492H9.76561C8.36551 35.4492 7.22655 34.3102 7.22655 32.9101C7.22655 31.51 8.36551 30.371 9.76561 30.371ZM9.76561 42.4804C8.36551 42.4804 7.22655 41.3414 7.22655 39.9413C7.22655 38.5412 8.36551 37.4023 9.76561 37.4023H17.3619C17.8547 39.2395 18.6551 40.9517 19.7049 42.4804H9.76561ZM33.3985 49.707C25.3213 49.707 16.8057 41.7196 16.8057 33.6425C16.8057 25.5654 25.3213 16.504 33.3985 16.504C41.4756 16.504 50 25.0284 50 33.1055C50 41.1826 41.4756 49.707 33.3985 49.707Z"
              fill="white"/>
        <path d="M33.0653 20.7128C30.6604 20.7128 28.3096 21.4282 26.3101 22.7685C24.3105 24.1088 22.7521 26.0137 21.8318 28.2425C20.9115 30.4713 20.6707 32.9239 21.1399 35.2899C21.609 37.656 22.7671 39.8294 24.4676 41.5353C26.168 43.2411 28.3345 44.4028 30.6932 44.8735C33.0518 45.3441 35.4966 45.1025 37.7183 44.1793C39.9401 43.2561 41.8391 41.6928 43.1751 39.6869C44.5112 37.681 45.2243 35.3228 45.2243 32.9103C45.2212 29.6763 43.9392 26.5756 41.6596 24.2888C39.38 22.002 36.2891 20.7159 33.0653 20.7128V20.7128ZM33.0653 43.935C30.8917 43.935 28.7669 43.2884 26.9596 42.077C25.1523 40.8656 23.7437 39.1438 22.9119 37.1293C22.0801 35.1148 21.8625 32.8981 22.2866 30.7595C22.7106 28.6209 23.7573 26.6565 25.2943 25.1147C26.8312 23.5729 28.7894 22.5229 30.9213 22.0975C33.0531 21.6721 35.2628 21.8904 37.2709 22.7249C39.2791 23.5593 40.9954 24.9724 42.203 26.7854C43.4106 28.5984 44.0552 30.7299 44.0552 32.9103C44.0521 35.8333 42.8932 38.6357 40.8329 40.7025C38.7725 42.7694 35.979 43.9319 33.0653 43.935V43.935Z"
              fill="white"/>
        <path d="M37.4736 31.5323C37.4207 31.5323 37.3682 31.5218 37.3193 31.5015C37.2703 31.4811 37.2259 31.4513 37.1884 31.4138C37.151 31.3762 37.1213 31.3316 37.101 31.2825C37.0807 31.2334 37.0703 31.1808 37.0703 31.1276C37.0703 31.0745 37.0807 31.0219 37.101 30.9728C37.1213 30.9237 37.151 30.8791 37.1884 30.8415C37.2259 30.8039 37.2703 30.7741 37.3193 30.7538C37.3682 30.7335 37.4207 30.723 37.4736 30.723C37.5258 30.7228 37.5776 30.7331 37.6257 30.7532C37.6739 30.7734 37.7176 30.803 37.7542 30.8403C38.0274 31.0976 38.3879 31.2408 38.7626 31.2408C39.1373 31.2408 39.4979 31.0976 39.771 30.8403C40.0366 30.5722 40.1856 30.2096 40.1856 29.8316C40.1856 29.4537 40.0366 29.0911 39.771 28.823C39.3929 28.4435 38.9273 28.1634 38.4155 28.0076C37.9037 27.8518 37.3614 27.8252 36.8368 27.93C36.3123 28.0348 35.8216 28.2679 35.4084 28.6086C34.9951 28.9492 34.6721 29.3869 34.4679 29.8829C34.2637 30.3788 34.1846 30.9176 34.2378 31.4515C34.2909 31.9854 34.4745 32.4979 34.7724 32.9436C35.0703 33.3892 35.4733 33.7542 35.9455 34.0062C36.4177 34.2582 36.9446 34.3894 37.4795 34.3881C37.5456 34.3885 37.6107 34.4052 37.6689 34.4368C37.7271 34.4684 37.7766 34.5138 37.8132 34.5691C37.8497 34.6244 37.8722 34.6879 37.8785 34.754C37.8849 34.82 37.8749 34.8866 37.8495 34.9479C37.8242 35.0092 37.7842 35.0633 37.733 35.1054C37.6819 35.1475 37.6213 35.1764 37.5564 35.1895C37.4915 35.2025 37.4245 35.1994 37.3611 35.1803C37.2977 35.1612 37.24 35.1268 37.193 35.0801C36.9199 34.8228 36.5593 34.6796 36.1847 34.6796C35.81 34.6796 35.4494 34.8228 35.1763 35.0801C35.0441 35.2125 34.9392 35.3697 34.8676 35.5427C34.7961 35.7158 34.7592 35.9014 34.7592 36.0887C34.7592 36.2761 34.7961 36.4616 34.8676 36.6347C34.9392 36.8078 35.0441 36.965 35.1763 37.0974C35.5542 37.4768 36.0195 37.7568 36.5311 37.9126C37.0427 38.0684 37.5846 38.0952 38.109 37.9907C38.6334 37.8861 39.1239 37.6534 39.5372 37.3132C39.9505 36.973 40.2737 36.5358 40.4783 36.0402C40.6829 35.5447 40.7624 35.0063 40.7099 34.4725C40.6574 33.9388 40.4744 33.4263 40.1773 32.9805C39.8801 32.5346 39.4779 32.1692 39.0063 31.9166C38.5347 31.664 38.0083 31.532 37.4736 31.5323V31.5323ZM37.4736 36.8745C36.9251 36.8797 36.3963 36.6692 36.0005 36.2881C35.977 36.2647 35.9584 36.2368 35.9456 36.2061C35.9329 36.1754 35.9264 36.1425 35.9264 36.1093C35.9264 36.076 35.9329 36.0431 35.9456 36.0124C35.9584 35.9817 35.977 35.9538 36.0005 35.9304C36.0484 35.8842 36.1123 35.8583 36.1788 35.8583C36.2453 35.8583 36.3092 35.8842 36.3571 35.9304C36.5032 36.0782 36.6772 36.1953 36.8689 36.2748C37.0606 36.3544 37.2662 36.3948 37.4736 36.3937C37.8907 36.3937 38.2907 36.2275 38.5856 35.9316C38.8805 35.6358 39.0461 35.2346 39.0461 34.8162C39.0461 34.3978 38.8805 33.9966 38.5856 33.7008C38.2907 33.4049 37.8907 33.2387 37.4736 33.2387C37.1308 33.2401 36.7929 33.1566 36.49 32.9954C36.1872 32.8343 35.9287 32.6005 35.7375 32.315C35.5464 32.0295 35.4285 31.701 35.3944 31.3588C35.3603 31.0166 35.411 30.6712 35.542 30.3534C35.673 30.0355 35.8803 29.7551 36.1454 29.537C36.4104 29.3189 36.7251 29.1698 37.0615 29.1031C37.3978 29.0364 37.7454 29.0541 38.0732 29.1546C38.4011 29.2551 38.6992 29.4353 38.9409 29.6792C38.9644 29.7026 38.9831 29.7305 38.9958 29.7612C39.0085 29.7919 39.0151 29.8248 39.0151 29.858C39.0151 29.8913 39.0085 29.9242 38.9958 29.9549C38.9831 29.9856 38.9644 30.0135 38.9409 30.0369C38.8912 30.0794 38.828 30.1028 38.7626 30.1028C38.6973 30.1028 38.634 30.0794 38.5843 30.0369C38.4015 29.8531 38.1764 29.7175 37.9288 29.6419C37.6812 29.5664 37.4189 29.5533 37.1651 29.6038C36.9112 29.6543 36.6738 29.7669 36.4737 29.9316C36.2737 30.0963 36.1172 30.3079 36.0182 30.5478C35.9193 30.7876 35.8808 31.0483 35.9063 31.3066C35.9319 31.5649 36.0205 31.813 36.1645 32.0287C36.3084 32.2444 36.5032 32.4211 36.7316 32.5432C36.96 32.6653 37.2149 32.729 37.4736 32.7286C38.0057 32.7569 38.5067 32.9889 38.8734 33.3767C39.2401 33.7646 39.4444 34.2787 39.4444 34.8133C39.4444 35.3478 39.2401 35.862 38.8734 36.2498C38.5067 36.6377 38.0057 36.8697 37.4736 36.898V36.8745Z"
              fill="white"/>
        <path d="M33.9426 34.1653C33.9435 33.3998 33.7311 32.6492 33.3293 31.9985C32.9274 31.3477 32.3522 30.8226 31.6686 30.4825C31.7339 30.2277 31.7673 29.9657 31.768 29.7026C31.7649 28.8435 31.4233 28.0204 30.8177 27.413C30.2122 26.8055 29.3917 26.4628 28.5353 26.4597H26.7114C26.327 26.4597 25.9582 26.6129 25.6863 26.8857C25.4145 27.1584 25.2617 27.5283 25.2617 27.914V36.8276C25.2633 37.2123 25.4167 37.5807 25.6884 37.8522C25.9601 38.1236 26.328 38.276 26.7114 38.276H29.8623C30.9465 38.2729 31.9852 37.8383 32.7502 37.0675C33.5153 36.2968 33.9441 35.2529 33.9426 34.1653V34.1653ZM29.8506 37.0973H26.7114C26.6749 37.0981 26.6385 37.0916 26.6045 37.0781C26.5705 37.0646 26.5395 37.0444 26.5134 37.0187C26.4872 36.993 26.4665 36.9624 26.4523 36.9286C26.4381 36.8947 26.4308 36.8584 26.4309 36.8217V27.8964C26.4301 27.8593 26.4368 27.8223 26.4506 27.7878C26.4644 27.7533 26.485 27.7219 26.5113 27.6956C26.5375 27.6693 26.5687 27.6486 26.6031 27.6348C26.6375 27.6209 26.6744 27.6142 26.7114 27.615H28.5353C29.0847 27.6181 29.6104 27.8396 29.9972 28.2309C30.384 28.6223 30.6004 29.1515 30.5988 29.7026C30.5982 30.0007 30.5324 30.2949 30.4059 30.5646C30.3729 30.6394 30.3558 30.7203 30.3558 30.8021C30.3558 30.8839 30.3729 30.9648 30.4059 31.0396C30.4385 31.1168 30.4872 31.186 30.5487 31.2426C30.6102 31.2993 30.6831 31.342 30.7625 31.368C31.4303 31.5785 32.0006 32.0224 32.3697 32.619C32.7389 33.2156 32.8823 33.9252 32.7741 34.619C32.6658 35.3127 32.3129 35.9444 31.7796 36.3992C31.2463 36.854 30.5681 37.1017 29.8681 37.0973H29.8506Z"
              fill="white"/>
        <path d="M27.5709 31.2273H28.5354C28.923 31.2032 29.2868 31.0318 29.5528 30.7479C29.8187 30.4641 29.9668 30.0892 29.9668 29.6997C29.9668 29.3101 29.8187 28.9353 29.5528 28.6514C29.2868 28.3676 28.923 28.1962 28.5354 28.1721H27.5709C27.4159 28.1721 27.2672 28.2338 27.1575 28.3438C27.0479 28.4538 26.9863 28.6029 26.9863 28.7585V30.6409C26.9863 30.7964 27.0479 30.9456 27.1575 31.0555C27.2672 31.1655 27.4159 31.2273 27.5709 31.2273ZM28.1555 29.3449H28.5354C28.6214 29.356 28.7004 29.3981 28.7576 29.4634C28.8149 29.5287 28.8465 29.6127 28.8465 29.6997C28.8465 29.7866 28.8149 29.8706 28.7576 29.9359C28.7004 30.0012 28.6214 30.0433 28.5354 30.0545H28.1555V29.3449Z"
              fill="white"/>
        <path d="M29.8624 31.7903H27.5709C27.4159 31.7903 27.2672 31.8521 27.1575 31.962C27.0479 32.072 26.9863 32.2212 26.9863 32.3767V35.9597C26.9863 36.1152 27.0479 36.2644 27.1575 36.3744C27.2672 36.4844 27.4159 36.5461 27.5709 36.5461H29.8624C30.4707 36.5158 31.0441 36.2521 31.464 35.8094C31.8838 35.3668 32.118 34.7792 32.118 34.1682C32.118 33.5572 31.8838 32.9696 31.464 32.527C31.0441 32.0844 30.4707 31.8206 29.8624 31.7903V31.7903ZM29.8624 35.3733H28.1555V32.9631H29.8624C30.1725 32.9631 30.4699 33.0867 30.6891 33.3066C30.9084 33.5266 31.0315 33.8249 31.0315 34.136C31.0403 34.2953 31.0165 34.4548 30.9617 34.6046C30.9069 34.7544 30.8221 34.8915 30.7127 35.0073C30.6033 35.1231 30.4714 35.2153 30.3252 35.2783C30.179 35.3412 30.0215 35.3735 29.8624 35.3733V35.3733Z"
              fill="white"/>
        <path d="M33.0657 39.9474C32.7593 39.9474 32.4598 40.0385 32.2051 40.2093C31.9503 40.38 31.7518 40.6227 31.6345 40.9067C31.5173 41.1906 31.4866 41.5031 31.5464 41.8045C31.6061 42.106 31.7537 42.3829 31.9703 42.6002C32.187 42.8175 32.463 42.9656 32.7635 43.0255C33.064 43.0855 33.3755 43.0547 33.6585 42.9371C33.9416 42.8195 34.1835 42.6203 34.3537 42.3647C34.524 42.1092 34.6148 41.8087 34.6148 41.5014C34.6148 41.0892 34.4516 40.6939 34.1611 40.4025C33.8706 40.1111 33.4766 39.9474 33.0657 39.9474V39.9474ZM33.0657 41.8825C32.9906 41.8825 32.9171 41.8602 32.8546 41.8183C32.7921 41.7764 32.7434 41.7169 32.7147 41.6472C32.6859 41.5776 32.6784 41.5009 32.693 41.427C32.7077 41.3531 32.7439 41.2851 32.797 41.2318C32.8502 41.1785 32.9179 41.1422 32.9916 41.1275C33.0653 41.1128 33.1417 41.1204 33.2111 41.1492C33.2805 41.1781 33.3399 41.2269 33.3816 41.2896C33.4234 41.3523 33.4457 41.426 33.4457 41.5014C33.4489 41.5534 33.4414 41.6055 33.4238 41.6544C33.4061 41.7034 33.3786 41.7483 33.343 41.7862C33.3074 41.8241 33.2644 41.8543 33.2167 41.8749C33.169 41.8955 33.1176 41.9061 33.0657 41.906V41.8825Z"
              fill="white"/>
        <path d="M33.0657 25.8733C33.3721 25.8733 33.6716 25.7822 33.9263 25.6114C34.1811 25.4407 34.3796 25.1979 34.4969 24.914C34.6141 24.63 34.6448 24.3176 34.585 24.0161C34.5253 23.7147 34.3777 23.4378 34.1611 23.2204C33.9444 23.0031 33.6684 22.8551 33.3679 22.7951C33.0674 22.7352 32.756 22.766 32.4729 22.8836C32.1898 23.0012 31.9479 23.2004 31.7777 23.4559C31.6075 23.7115 31.5166 24.0119 31.5166 24.3193C31.5166 24.7314 31.6798 25.1267 31.9703 25.4181C32.2608 25.7096 32.6549 25.8733 33.0657 25.8733V25.8733ZM33.0657 23.9381C33.1409 23.9381 33.2143 23.9605 33.2768 24.0024C33.3393 24.0442 33.388 24.1038 33.4168 24.1734C33.4455 24.2431 33.453 24.3197 33.4384 24.3937C33.4237 24.4676 33.3875 24.5355 33.3344 24.5888C33.2812 24.6421 33.2135 24.6784 33.1398 24.6931C33.0661 24.7079 32.9897 24.7003 32.9203 24.6715C32.8509 24.6426 32.7915 24.5937 32.7498 24.5311C32.708 24.4684 32.6857 24.3947 32.6857 24.3193C32.6825 24.2673 32.69 24.2152 32.7077 24.1662C32.7253 24.1172 32.7528 24.0724 32.7884 24.0345C32.824 23.9966 32.867 23.9664 32.9147 23.9458C32.9624 23.9252 33.0138 23.9146 33.0657 23.9147V23.9381Z"
              fill="white"/>
        <path d="M33.0658 15.9042C29.7129 15.9042 26.4353 16.9016 23.6475 18.7703C20.8597 20.6389 18.6868 23.2949 17.4037 26.4024C16.1206 29.5098 15.7849 32.9292 16.439 36.2281C17.0931 39.5269 18.7077 42.5571 21.0786 44.9355C23.4494 47.3138 26.47 48.9335 29.7585 49.5897C33.047 50.2459 36.4555 49.9091 39.5532 48.6219C42.6509 47.3348 45.2985 45.1551 47.1612 42.3584C49.024 39.5618 50.0183 36.2738 50.0183 32.9103C50.0183 28.4 48.2322 24.0745 45.053 20.8852C41.8738 17.6959 37.5618 15.9042 33.0658 15.9042V15.9042ZM47.0136 40.3109L45.6223 39.5075C46.0155 38.7558 46.3421 37.9709 46.5985 37.1619L48.1476 37.6017C47.8566 38.539 47.4768 39.4462 47.0136 40.3109V40.3109ZM44.6227 43.677L43.4886 42.5393C44.0595 41.9165 44.5758 41.2455 45.0319 40.5338L46.4232 41.3372C45.8965 42.1713 45.2937 42.9546 44.6227 43.677V43.677ZM41.4543 46.31L40.6652 44.9143C41.3787 44.4574 42.0515 43.9394 42.6761 43.3662L43.8101 44.5038C43.0827 45.1782 42.294 45.7829 41.4543 46.31ZM37.7423 48.0399L37.3273 46.4859C38.1337 46.2287 38.9162 45.901 39.6655 45.5066L40.4664 46.9023C39.5969 47.3684 38.6847 47.7493 37.7423 48.0399ZM25.6885 46.9023L26.4894 45.5066C27.2388 45.901 28.0212 46.2287 28.8277 46.4859L28.4126 48.0399C27.4703 47.7493 26.558 47.3684 25.6885 46.9023V46.9023ZM22.3331 44.5038L23.4672 43.3662C24.088 43.9389 24.7569 44.4568 25.4664 44.9143L24.6655 46.31C23.834 45.7817 23.0532 45.177 22.3331 44.5038V44.5038ZM19.7084 41.3254L21.0997 40.5338C21.5552 41.2496 22.0715 41.9245 22.6429 42.551L21.5089 43.6887C20.8366 42.9589 20.2339 42.1677 19.7084 41.3254V41.3254ZM17.9839 37.6017L19.533 37.1853C19.7894 37.9943 20.1161 38.7792 20.5092 39.531L19.118 40.3109C18.6547 39.4462 18.275 38.539 17.9839 37.6017V37.6017ZM19.118 25.5097L20.5092 26.3131C20.1161 27.0649 19.7894 27.8498 19.533 28.6588L17.9839 28.2483C18.2732 27.301 18.653 26.3839 19.118 25.5097V25.5097ZM21.5089 22.1437L22.6429 23.2813C22.072 23.9042 21.5557 24.5752 21.0997 25.2869L19.7084 24.4952C20.2345 23.657 20.8372 22.8698 21.5089 22.1437V22.1437ZM24.6772 19.5107L25.4664 20.9064C24.7528 21.3633 24.08 21.8813 23.4555 22.4545L22.3214 21.3168C23.0489 20.6425 23.8376 20.0378 24.6772 19.5107V19.5107ZM28.4185 17.7807L28.8335 19.3348C28.027 19.592 27.2446 19.9197 26.4952 20.3141L25.6885 18.9184C26.5599 18.452 27.4741 18.071 28.4185 17.7807V17.7807ZM40.443 18.9184L39.6422 20.3141C38.8928 19.9197 38.1104 19.592 37.3039 19.3348L37.7423 17.7807C38.6766 18.0727 39.581 18.4537 40.443 18.9184V18.9184ZM43.7984 21.3168L42.6644 22.4545C42.0435 21.8818 41.3746 21.3638 40.6652 20.9064L41.466 19.5107C42.2975 20.039 43.0784 20.6437 43.7984 21.3168V21.3168ZM46.4232 24.4952L45.0319 25.2869C44.5764 24.5711 44.06 23.8962 43.4886 23.2696L44.6227 22.132C45.2949 22.8617 45.8977 23.6529 46.4232 24.4952ZM48.1476 28.2483L46.5985 28.6647C46.3421 27.8556 46.0155 27.0707 45.6223 26.319L47.0136 25.5156C47.4782 26.3879 47.858 27.303 48.1476 28.2483V28.2483ZM48.8491 32.3239H47.2299C47.1939 31.4751 47.0824 30.6312 46.8967 29.8023L48.4516 29.3918C48.6756 30.3545 48.8087 31.3362 48.8491 32.3239V32.3239ZM33.0658 45.9581C30.4933 45.9581 27.9786 45.1929 25.8397 43.7592C23.7007 42.3255 22.0336 40.2877 21.0492 37.9035C20.0648 35.5193 19.8072 32.8959 20.309 30.3648C20.8109 27.8338 22.0497 25.5089 23.8687 23.6841C25.6877 21.8594 28.0053 20.6167 30.5283 20.1132C33.0513 19.6098 35.6665 19.8682 38.0432 20.8557C40.4199 21.8433 42.4512 23.5157 43.8804 25.6614C45.3096 27.8071 46.0724 30.3297 46.0724 32.9103C46.0693 36.3699 44.698 39.6868 42.2594 42.1331C39.8209 44.5794 36.5144 45.955 33.0658 45.9581V45.9581ZM36.164 19.0357C35.3377 18.8494 34.4965 18.7375 33.6503 18.7014V17.077C34.6344 17.1118 35.613 17.2394 36.5732 17.4582L36.164 19.0357ZM32.4812 18.7014C31.6351 18.7375 30.7938 18.8494 29.9676 19.0357L29.5584 17.4758C30.518 17.2511 31.4966 17.1176 32.4812 17.077V18.7014ZM19.2349 29.8023C19.0492 30.6312 18.9377 31.4751 18.9017 32.3239H17.2824C17.3171 31.3368 17.4443 30.3551 17.6624 29.3918L19.2349 29.8023ZM17.2824 33.4968H18.9017C18.9377 34.3456 19.0492 35.1895 19.2349 36.0183L17.6799 36.4288C17.4559 35.4662 17.3228 34.4845 17.2824 33.4968V33.4968ZM29.9676 46.785C30.7938 46.9713 31.6351 47.0832 32.4812 47.1192V48.7436C31.4972 48.7089 30.5186 48.5813 29.5584 48.3625L29.9676 46.785ZM33.6503 47.1192C34.4965 47.0832 35.3377 46.9713 36.164 46.785L36.5732 48.3449C35.6135 48.5696 34.6349 48.7031 33.6503 48.7436V47.1192ZM46.8967 36.0183C47.0824 35.1895 47.1939 34.3456 47.2299 33.4968H48.8491C48.8145 34.4839 48.6873 35.4656 48.4691 36.4288L46.8967 36.0183Z"
              fill="white"/>
    </g>
    <defs>
        <clipPath id="clip0_1610_7005">
            <rect width="50" height="50" fill="white"/>
        </clipPath>
    </defs>
</svg>
