<svg width="100%" height="100%" viewBox="0 0 364 364" fill="none" xmlns="http://www.w3.org/2000/svg">
    <g clip-path="url(#clip0_1601_6985)">
        <path d="M364 51.3605C364.021 43.4064 358.855 36.3676 351.26 34.0038L244.487 0.279197C244.28 0.21853 244.074 0.206397 243.88 0.16393L243.558 0.103263C242.749 -0.0154208 241.923 0.0320546 241.132 0.242797C241.071 0.242797 241.01 0.242797 240.95 0.242797L121.376 36.1211L23.66 5.266C18.1322 3.52759 12.107 4.52537 7.43472 7.95291C2.76244 11.3805 0.00156905 16.8281 -1.01019e-05 22.6227V312.64C-0.0346461 320.605 5.13449 327.66 12.74 330.027L119.513 363.751C120.676 364.109 121.918 364.109 123.081 363.751L242.63 327.885L340.304 358.74C342.093 359.309 343.959 359.6 345.836 359.602C355.858 359.552 363.962 351.424 363.982 341.402L364 51.3605ZM12.1333 312.64V22.6227C12.1333 19.2722 14.8495 16.5561 18.2 16.5561C18.8275 16.5583 19.4512 16.6544 20.0503 16.8412L115.267 46.9137V285.024C111.963 284.963 109.226 287.572 109.127 290.875C109.029 294.177 111.607 296.944 114.909 297.079H115.267V349.652L16.38 318.427C13.8525 317.632 12.1332 315.289 12.1333 312.64V312.64ZM127.4 349.78V297C129.802 296.823 132.193 296.525 134.565 296.108C136.696 295.716 138.457 294.216 139.183 292.174C139.909 290.132 139.49 287.857 138.085 286.207C136.679 284.557 134.5 283.783 132.369 284.175C130.791 284.466 129.111 284.654 127.4 284.782V46.9804L236.6 14.2204V72.9943C229.809 73.2843 223.083 74.4319 216.58 76.4098C214.373 76.9459 212.651 78.6695 212.116 80.8766C211.581 83.0836 212.324 85.4044 214.041 86.891C215.757 88.3776 218.161 88.781 220.269 87.9365C225.59 86.317 231.092 85.3613 236.649 85.0912V317.02L127.4 349.78ZM349.385 346.273C347.829 347.427 345.812 347.759 343.968 347.165L248.733 317.087V85.2368C254.153 85.7286 259.455 87.108 264.428 89.3197C267.48 90.7034 271.076 89.3508 272.46 86.2985C273.844 83.2461 272.491 79.65 269.439 78.2662C262.887 75.3617 255.882 73.611 248.733 73.0913V14.3417L347.62 45.5729C350.148 46.3678 351.867 48.711 351.867 51.3605V341.378C351.875 343.314 350.952 345.136 349.385 346.273V346.273Z"
              fill="#1976D2"/>
        <path d="M331.889 220.177C329.52 217.809 325.68 217.809 323.311 220.177L303.333 240.155L283.356 220.177C280.975 217.878 277.192 217.911 274.851 220.251C272.511 222.591 272.478 226.375 274.778 228.756L294.755 248.733L274.778 268.711C273.2 270.234 272.568 272.489 273.123 274.611C273.678 276.732 275.335 278.388 277.456 278.943C279.577 279.499 281.833 278.866 283.356 277.289L303.333 257.311L323.311 277.289C325.691 279.588 329.475 279.555 331.815 277.215C334.155 274.875 334.188 271.091 331.889 268.711L311.912 248.733L331.889 228.756C334.257 226.387 334.257 222.546 331.889 220.177V220.177Z"
              fill="#1976D2"/>
        <path d="M60.5575 194.133H60.5999C63.934 194.133 66.6433 191.443 66.6666 188.109V186.356C66.7333 182.874 66.7333 179.385 66.7333 175.933C66.7333 172.583 64.0172 169.867 60.6667 169.867C57.3161 169.867 54.6 172.583 54.6 175.933C54.6 179.355 54.6 182.807 54.5454 186.247V188.006C54.5292 189.616 55.1538 191.167 56.2815 192.316C57.4091 193.465 58.9474 194.119 60.5575 194.133V194.133Z"
              fill="#1976D2"/>
        <path d="M61.516 230.533C63.1218 230.43 64.6209 229.694 65.6836 228.485C66.7462 227.277 67.2853 225.696 67.1823 224.09C66.9335 220.196 66.7819 216.204 66.6969 212.218C66.6266 208.867 63.8534 206.208 60.5029 206.279C57.1523 206.349 54.4932 209.122 54.5636 212.473C54.6607 216.671 54.8123 220.808 55.0732 224.867C55.2783 228.065 57.9353 230.552 61.1399 230.545C61.2733 230.533 61.3825 230.533 61.516 230.533V230.533Z"
              fill="#1976D2"/>
        <path d="M70.4097 247.314C69.9715 245.135 68.3772 243.371 66.2542 242.714C64.1311 242.058 61.8191 242.615 60.2278 244.166C58.6364 245.717 58.0205 248.014 58.6222 250.153C59.6703 254.63 61.0908 259.011 62.8689 263.251C63.6745 265.312 65.5385 266.771 67.7328 267.058C69.9271 267.345 72.1035 266.414 73.4119 264.629C74.7203 262.844 74.9531 260.489 74.0194 258.482C72.5143 254.864 71.3071 251.129 70.4097 247.314V247.314Z"
              fill="#1976D2"/>
        <path d="M93.639 279.801C90.6664 278.376 87.8876 276.578 85.3701 274.45C82.8204 272.272 78.9879 272.573 76.8101 275.123C74.6322 277.673 74.9337 281.505 77.4835 283.683C80.788 286.485 84.4375 288.852 88.3428 290.727C91.3389 292.073 94.8624 290.791 96.2919 287.833C97.7213 284.876 96.5373 281.318 93.6208 279.807L93.639 279.801Z"
              fill="#1976D2"/>
        <path d="M158.947 267.977C157.16 270.353 155.14 272.544 152.916 274.517C151.179 275.916 150.35 278.155 150.757 280.349C151.164 282.542 152.742 284.334 154.865 285.017C156.989 285.7 159.316 285.162 160.924 283.617C163.769 281.107 166.35 278.314 168.629 275.281C169.935 273.547 170.217 271.248 169.368 269.25C168.519 267.253 166.669 265.859 164.515 265.595C162.36 265.331 160.228 266.237 158.922 267.971L158.947 267.977Z"
              fill="#1976D2"/>
        <path d="M179.228 230.655C175.942 229.996 172.745 232.126 172.087 235.411C171.316 239.299 170.35 243.146 169.193 246.938C168.556 249.01 169.073 251.264 170.548 252.852C172.024 254.44 174.235 255.12 176.348 254.636C178.461 254.151 180.156 252.577 180.793 250.505C182.072 246.315 183.137 242.063 183.984 237.765C184.623 234.49 182.498 231.313 179.228 230.655Z"
              fill="#1976D2"/>
        <path d="M182.055 194.133H181.836C178.567 194.131 175.884 196.72 175.77 199.988C175.624 203.949 175.424 207.923 175.133 211.89C175.011 213.499 175.535 215.091 176.589 216.312C177.643 217.534 179.141 218.285 180.75 218.4H181.199C184.384 218.408 187.033 215.953 187.266 212.776C187.569 208.663 187.782 204.526 187.927 200.412C187.984 198.8 187.397 197.231 186.295 196.053C185.193 194.875 183.667 194.184 182.055 194.133V194.133Z"
              fill="#1976D2"/>
        <path d="M182.115 182H182.146C183.756 181.992 185.296 181.344 186.429 180.199C187.561 179.055 188.192 177.507 188.182 175.897L188.091 163.763C188.071 160.418 185.346 157.72 182 157.733C180.385 157.733 178.836 158.377 177.697 159.523C176.559 160.669 175.924 162.221 175.933 163.836L176.024 175.97C176.044 179.315 178.769 182.013 182.115 182Z"
              fill="#1976D2"/>
        <path d="M182.188 145.6H182.692C185.857 145.611 188.499 143.186 188.758 140.031C189.098 135.918 189.583 132.017 190.202 128.431C190.772 125.129 188.557 121.991 185.255 121.421C181.953 120.852 178.814 123.067 178.245 126.369C177.565 130.306 177.031 134.565 176.661 139.036C176.523 140.639 177.028 142.232 178.065 143.463C179.101 144.694 180.585 145.463 182.188 145.6V145.6Z"
              fill="#1976D2"/>
        <path d="M189.28 108.405C190.188 108.927 191.217 109.201 192.265 109.2C194.454 109.204 196.476 108.029 197.555 106.124C199.413 102.82 201.734 99.799 204.447 97.1515C206.015 95.6473 206.658 93.4194 206.134 91.3107C205.61 89.202 203.998 87.5346 201.909 86.9393C199.819 86.344 197.571 86.9117 196.014 88.4277C192.471 91.8802 189.441 95.8233 187.017 100.136C185.361 103.045 186.374 106.745 189.28 108.405V108.405Z"
              fill="#1976D2"/>
        <path d="M287.56 112.063C289.141 115.019 292.819 116.132 295.774 114.551C298.729 112.969 299.843 109.292 298.262 106.337C295.739 101.586 292.687 97.1371 289.162 93.0748C286.952 90.5726 283.136 90.3256 280.622 92.5222C278.109 94.7187 277.842 98.5335 280.025 101.059C282.944 104.431 285.472 108.122 287.56 112.063Z"
              fill="#1976D2"/>
        <path d="M296.448 140.364C296.973 144.109 297.246 147.885 297.267 151.667C297.267 155.017 299.983 157.733 303.333 157.733C306.684 157.733 309.4 155.017 309.4 151.667C309.383 147.329 309.071 142.997 308.466 138.702C308.192 136.535 306.774 134.682 304.754 133.851C302.733 133.02 300.422 133.34 298.703 134.688C296.984 136.036 296.123 138.204 296.448 140.364V140.364Z"
              fill="#1976D2"/>
        <path d="M303.333 194.133C306.684 194.133 309.4 191.417 309.4 188.067V175.933C309.4 172.583 306.684 169.867 303.333 169.867C299.983 169.867 297.267 172.583 297.267 175.933V188.067C297.267 191.417 299.983 194.133 303.333 194.133Z"
              fill="#1976D2"/>
        <path d="M303.333 206.267C299.983 206.267 297.267 208.983 297.267 212.333V218.4C297.267 221.75 299.983 224.467 303.333 224.467C306.684 224.467 309.4 221.75 309.4 218.4V212.333C309.4 208.983 306.684 206.267 303.333 206.267Z"
              fill="#1976D2"/>
        <path d="M56.875 156.405C59.0914 158.179 62.242 158.179 64.4583 156.405C65.7869 155.337 97.0667 129.936 97.0667 97.0665C97.0667 76.9633 80.7698 60.6665 60.6667 60.6665C40.5635 60.6665 24.2667 76.9633 24.2667 97.0665C24.2667 129.936 55.5464 155.337 56.875 156.405ZM60.6667 72.7998C74.0688 72.7998 84.9333 83.6644 84.9333 97.0665C84.9333 117.93 68.3349 136.203 60.6667 143.525C52.9984 136.203 36.4 117.93 36.4 97.0665C36.4 83.6644 47.2646 72.7998 60.6667 72.7998V72.7998Z"
              fill="#1976D2"/>
        <path d="M60.6667 103.133C64.0172 103.133 66.7333 100.417 66.7333 97.0667C66.7333 93.7161 64.0172 91 60.6667 91C57.3161 91 54.6 93.7161 54.6 97.0667C54.6 100.417 57.3161 103.133 60.6667 103.133Z"
              fill="#1976D2"/>
    </g>
    <path d="M253.311 157.086C247.956 154.33 241.899 153.24 235.919 153.957C236.485 145.409 234.164 136.918 229.328 129.845C223.876 122.287 216.735 116.106 208.474 111.794C200.212 107.481 191.058 105.156 181.74 105.003C173.518 104.909 165.394 106.796 158.054 110.504C150.715 114.211 144.375 119.631 139.572 126.305C134.186 134.457 132.026 144.322 133.513 153.979C124.854 153.159 116.172 155.298 108.885 160.049C101.598 164.799 96.1375 171.88 93.3941 180.134C91.9558 184.667 91.6245 189.479 92.4278 194.166C93.2311 198.853 95.1457 203.28 98.0112 207.075C101.211 211.305 105.325 214.757 110.046 217.173C114.768 219.589 119.974 220.907 125.276 221.028H238.783C247.422 221.176 255.768 217.894 261.991 211.9C268.214 205.906 271.806 197.689 271.981 189.05C272.196 182.505 270.558 176.031 267.255 170.376C263.952 164.721 259.118 160.114 253.311 157.086V157.086Z"
          fill="white"/>
    <path d="M181.74 259.702C206.66 259.702 226.861 239.501 226.861 214.582C226.861 189.662 206.66 169.461 181.74 169.461C156.821 169.461 136.62 189.662 136.62 214.582C136.62 239.501 156.821 259.702 181.74 259.702Z"
          fill="#F44336"/>
    <path d="M190.855 214.582L199.189 206.247C200.385 205.036 201.054 203.401 201.048 201.699C201.043 199.996 200.364 198.365 199.16 197.162C197.957 195.958 196.326 195.279 194.623 195.274C192.921 195.269 191.286 195.937 190.075 197.133L181.74 205.467L173.406 197.133C172.194 195.937 170.559 195.268 168.857 195.274C167.155 195.279 165.523 195.958 164.32 197.162C163.116 198.365 162.437 199.996 162.432 201.699C162.427 203.401 163.095 205.036 164.291 206.247L172.625 214.582L164.291 222.916C163.095 224.128 162.427 225.763 162.432 227.465C162.437 229.167 163.116 230.799 164.32 232.002C165.524 233.206 167.155 233.885 168.857 233.89C170.559 233.895 172.194 233.227 173.406 232.031L181.74 223.697L190.075 232.031C191.286 233.227 192.921 233.895 194.623 233.89C196.326 233.885 197.957 233.206 199.16 232.002C200.364 230.798 201.043 229.167 201.048 227.465C201.053 225.763 200.385 224.128 199.189 222.916L190.855 214.582Z"
          fill="#F5F5F5"/>
    <defs>
        <clipPath id="clip0_1601_6985">
            <rect width="364" height="364" fill="white"/>
        </clipPath>
    </defs>
</svg>
