<svg width="50" height="50" viewBox="0 0 120 120" fill="none" xmlns="http://www.w3.org/2000/svg">
<path d="M60 0C47.6634 0 33.5592 19.1611 33.5592 42.7118C33.5592 73.1409 58.3263 117.454 59.2076 119.327C59.4094 119.756 59.6974 120 59.9997 120C60.5768 120 61.1271 119.756 61.5122 119.327C63.1945 117.454 102.712 73.1409 102.712 42.7118C102.712 19.1611 83.5519 0 60 0ZM60 65.0848C47.6437 65.0848 37.627 55.0683 37.627 42.7118C37.627 30.3553 47.6437 20.3391 60 20.3391C72.3562 20.3391 82.373 30.3555 82.373 42.712C82.373 55.0685 72.3562 65.0848 60 65.0848Z" fill="#1976D2"/>
<path d="M59.2078 119.327C58.3263 117.454 33.5595 73.1412 33.5595 42.712C33.5592 19.1611 47.6634 0 60 0C36.4481 0 17.2882 19.1611 17.2882 42.7118C17.2882 73.1409 56.8052 117.454 58.4876 119.327C58.8729 119.756 59.4232 120 60 120C59.6977 120 59.4096 119.756 59.2078 119.327Z" fill="#004BA0"/>
<circle cx="60" cy="43" r="22" fill="white"/>
</svg>
