<svg width="50" height="50" viewBox="0 0 200 200" fill="none" xmlns="http://www.w3.org/2000/svg">
<rect width="200" height="200" rx="10" fill="#1976D2"/>
<g clip-path="url(#clip0_725_972)">
<path d="M167.359 17.3577C166.826 15.6026 164.972 14.6125 163.217 15.1434L109.937 31.2947C109.063 26.8614 105.147 23.5066 100.461 23.5066C95.1351 23.5066 90.8021 27.8396 90.8021 33.1657V37.0949L34.8554 54.0547C33.1006 54.5866 32.1092 56.4406 32.6411 58.1954C33.076 59.6295 34.3929 60.5535 35.8173 60.5535C36.1363 60.5535 36.4607 60.5073 36.7818 60.4097L90.8024 44.034V50.7148C85.3565 54.0005 81.7065 59.9738 81.7065 66.7844V66.7913H71.9232C68.0116 66.7913 64.8294 69.9735 64.8294 73.8852V78.4476C64.7885 78.4499 64.7474 78.4489 64.7065 78.4516C61.2584 78.6797 58.0709 80.5981 56.2683 83.5735C56.0137 83.9938 55.7633 84.4165 55.5156 84.8405C55.4127 85.0165 55.3121 85.1938 55.2105 85.3707C55.074 85.6085 54.9372 85.8459 54.8027 86.0846C54.6646 86.3296 54.5285 86.576 54.3927 86.8224C54.306 86.9798 54.219 87.1371 54.1334 87.2952C53.9674 87.601 53.8023 87.9078 53.6396 88.2152C53.6008 88.2889 53.5616 88.363 53.5228 88.4367C48.0463 98.8415 44.5998 110.178 43.354 121.844C43.3464 121.915 43.3377 121.986 43.3301 122.057C43.3022 122.323 43.278 122.589 43.2524 122.855C43.2302 123.087 43.2073 123.32 43.1867 123.553C43.1651 123.799 43.1455 124.044 43.1259 124.29C43.1133 124.446 43.099 124.601 43.0874 124.756C43.0851 124.787 43.0851 124.818 43.0827 124.849C42.9141 127.129 42.8261 129.418 42.8261 131.714C42.8261 148.69 47.4745 165.336 56.2687 179.855C58.1908 183.029 61.6894 185 65.3991 185H100.462H135.524C139.234 185 142.732 183.029 144.654 179.855C153.449 165.336 158.097 148.689 158.097 131.714C158.097 129.423 158.009 127.139 157.841 124.864C157.838 124.828 157.838 124.792 157.836 124.756C157.822 124.576 157.806 124.397 157.791 124.217C157.774 124.007 157.758 123.796 157.739 123.586C157.714 123.304 157.687 123.022 157.659 122.74C157.638 122.522 157.618 122.303 157.595 122.085C157.576 121.898 157.553 121.711 157.533 121.524C156.259 109.976 152.829 98.7572 147.408 88.4516C147.364 88.3686 147.321 88.286 147.277 88.203C147.118 87.9021 146.957 87.6026 146.794 87.3038C146.704 87.1381 146.613 86.9728 146.522 86.8078C146.39 86.568 146.257 86.329 146.123 86.0906C145.985 85.8445 145.844 85.5995 145.703 85.3548C145.605 85.1841 145.508 85.0131 145.408 84.8435C145.16 84.4181 144.909 83.9945 144.654 83.5735C142.831 80.5633 139.588 78.6382 136.093 78.4479V73.8855C136.093 69.9738 132.911 66.7917 128.999 66.7917H119.216V66.7847C119.216 59.9741 115.566 54.0009 110.12 50.7151V38.178L165.144 21.4985C166.899 20.9666 167.89 19.1125 167.359 17.3577ZM97.443 42.0212V35.0821V33.1657C97.443 31.5012 98.797 30.1472 100.462 30.1472C102.126 30.1472 103.48 31.5012 103.48 33.1657V33.252V40.1911V48.2757C102.497 48.116 101.489 48.0297 100.462 48.0297C99.4339 48.0297 98.4265 48.116 97.443 48.276V42.0212ZM97.1412 178.36H65.3991C63.9973 178.359 62.6752 177.615 61.949 176.415C55.7211 166.133 51.8168 154.921 50.234 143.474C54.6523 147.741 60.6106 150.167 66.7791 150.167H97.1412V178.36V178.36ZM138.974 176.415C138.248 177.615 136.926 178.359 135.524 178.359H103.781V150.166H134.143C140.312 150.166 146.27 147.741 150.689 143.473C149.106 154.921 145.202 166.133 138.974 176.415ZM135.524 85.0699V85.0693C136.926 85.0693 138.248 85.8143 138.974 87.0136C139.211 87.4048 139.443 87.7979 139.674 88.1917C139.79 88.3909 139.905 88.5914 140.019 88.792C140.12 88.9686 140.222 89.1456 140.322 89.3229C140.488 89.6164 140.651 89.9106 140.813 90.2061C140.844 90.2609 140.874 90.3157 140.903 90.3704C146.751 101.096 150.301 113.076 151.214 125.253C151.569 129.994 149.975 134.534 146.726 138.036C143.488 141.525 138.902 143.526 134.143 143.526H100.462H66.7791C62.0204 143.526 57.4341 141.525 54.1968 138.036C50.9475 134.534 49.3538 129.994 49.7091 125.253C50.6222 113.075 54.1725 101.094 60.0209 90.3671C60.0495 90.315 60.078 90.2629 60.1069 90.2107C60.2699 89.9132 60.4346 89.6171 60.6013 89.3216C60.7006 89.1456 60.8012 88.9703 60.9021 88.795C61.0173 88.5938 61.1322 88.3922 61.2491 88.192C61.4795 87.7982 61.7119 87.4051 61.949 87.014C62.6755 85.8147 63.9973 85.0699 65.3995 85.0699H68.1497H132.773H135.524V85.0699ZM115.896 73.4316H128.999C129.25 73.4316 129.453 73.6348 129.453 73.8848V78.4287H71.4696V73.8848C71.4696 73.6348 71.6728 73.4316 71.9229 73.4316H85.0268H115.896ZM112.576 66.7844V66.7913H88.3471V66.7844C88.3471 63.136 89.9704 59.8619 92.5303 57.6389C94.3057 56.0973 96.5316 55.0634 98.9823 54.7636C99.4674 54.7041 99.9602 54.6699 100.461 54.6699C100.962 54.6699 101.455 54.7041 101.94 54.7636C104.391 55.0634 106.617 56.097 108.392 57.6389C110.952 59.8615 112.576 63.136 112.576 66.7844Z" fill="white"/>
<path d="M94.8897 108.368C93.4012 107.297 91.3267 107.636 90.2552 109.124L80.2831 122.986C79.2123 124.475 79.5506 126.55 81.0394 127.621C81.6265 128.043 82.3041 128.246 82.9755 128.246C84.0074 128.246 85.0251 127.766 85.6739 126.865L95.6461 113.002C96.7169 111.514 96.3782 109.439 94.8897 108.368Z" fill="white"/>
<path d="M104.623 98.7121C104.579 98.5029 104.516 98.2937 104.433 98.0912C104.35 97.892 104.247 97.6994 104.128 97.5201C104.008 97.3375 103.869 97.1681 103.716 97.0154C103.563 96.8627 103.394 96.7232 103.211 96.6004C103.032 96.4808 102.84 96.3779 102.637 96.2949C102.438 96.2119 102.229 96.1488 102.016 96.1056C101.588 96.0193 101.15 96.0193 100.718 96.1056C100.509 96.1488 100.3 96.2119 100.097 96.2949C99.8977 96.3779 99.7052 96.4808 99.5259 96.6004C99.3433 96.7232 99.1739 96.8627 99.0212 97.0154C98.8685 97.1681 98.729 97.3375 98.6061 97.5201C98.4866 97.6994 98.3837 97.892 98.3007 98.0912C98.2177 98.2937 98.1546 98.5029 98.1114 98.7121C98.0683 98.9279 98.0483 99.147 98.0483 99.3629C98.0483 99.5787 98.0686 99.7978 98.1114 100.01C98.1546 100.223 98.2177 100.432 98.3007 100.631C98.3837 100.834 98.4866 101.026 98.6061 101.206C98.729 101.388 98.8685 101.558 99.0212 101.71C99.1739 101.863 99.3433 102.002 99.5259 102.122C99.7052 102.242 99.8977 102.344 100.097 102.427C100.3 102.511 100.509 102.574 100.718 102.617C100.934 102.66 101.153 102.683 101.369 102.683C102.242 102.683 103.099 102.328 103.716 101.71C103.869 101.558 104.008 101.388 104.128 101.206C104.247 101.026 104.35 100.834 104.433 100.631C104.516 100.432 104.579 100.223 104.623 100.01C104.666 99.7978 104.689 99.5787 104.689 99.3629C104.689 99.147 104.666 98.9279 104.623 98.7121Z" fill="white"/>
<path d="M129.534 95.3393C128.046 94.2682 125.971 94.6072 124.9 96.0957L101.501 128.621C100.43 130.11 100.769 132.185 102.257 133.256C102.844 133.678 103.522 133.881 104.194 133.881C105.225 133.881 106.243 133.401 106.892 132.499L130.29 99.9738C131.362 98.4853 131.023 96.4104 129.534 95.3393Z" fill="white"/>
</g>
<defs>
<clipPath id="clip0_725_972">
<rect width="170" height="170" fill="white" transform="translate(15 15)"/>
</clipPath>
</defs>
</svg>
