<svg width="100%" height="100%" viewBox="0 0 120 120" fill="none" xmlns="http://www.w3.org/2000/svg">
<path d="M60.3258 25.6588C61.9132 25.6588 63.4198 26.0012 64.7801 26.6115C64.7918 26.48 64.8002 26.3476 64.8002 26.2131V12.8228C64.8002 10.3516 62.797 8.34839 60.3258 8.34839C57.8545 8.34839 55.8513 10.3518 55.8513 12.8228V26.2131C55.8513 26.3476 55.8598 26.48 55.8715 26.6115C57.2316 26.001 58.7381 25.6588 60.3258 25.6588Z" fill="#E0E0E0"/>
<path d="M49.4309 36.5537V38.9024H71.2207V36.5537C71.2207 32.124 68.5755 28.3147 64.7801 26.6115C63.4198 26.0012 61.9132 25.6588 60.3258 25.6588C58.7384 25.6588 57.2318 26.0012 55.8715 26.6115C52.0758 28.3145 49.4309 32.124 49.4309 36.5537Z" fill="#FFC766"/>
<path d="M91.4525 53.0576C91.7096 53.5486 91.9611 54.0415 92.2044 54.5375C91.9611 54.0415 91.7096 53.5486 91.4525 53.0576Z" fill="#4CC9F0"/>
<path d="M96.2677 65.1371C96.4168 65.6635 96.56 66.1911 96.6952 66.7203C96.56 66.1911 96.417 65.6635 96.2677 65.1371Z" fill="#4CC9F0"/>
<path d="M22.3379 75.7318C22.397 75.1717 22.4633 74.6122 22.5374 74.0535C22.4631 74.6122 22.3972 75.1717 22.3379 75.7318Z" fill="#4CC9F0"/>
<path d="M22.5463 73.9843C22.6206 73.43 22.7038 72.8764 22.7926 72.3237C22.7036 72.8766 22.6204 73.43 22.5463 73.9843Z" fill="#4CC9F0"/>
<path d="M89.5159 49.6189C89.8154 50.1134 90.1056 50.6117 90.3903 51.1123C90.1053 50.6119 89.8154 50.1134 89.5159 49.6189C88.5753 48.0657 86.8914 47.1169 85.0757 47.1169C86.8914 47.1169 88.5751 48.0657 89.5159 49.6189Z" fill="#4CC9F0"/>
<path d="M93.0458 56.3213C93.2753 56.8282 93.496 57.338 93.7114 57.8494C93.496 57.338 93.2753 56.8282 93.0458 56.3213Z" fill="#4CC9F0"/>
<path d="M84.1014 93.0679H36.5499C28.2142 93.0679 21.5734 86.0184 22.1605 77.7124C21.2073 90.5927 24.1975 103.7 31.1357 115.155C32.0764 116.708 33.7602 117.657 35.5761 117.657H85.0754C86.8914 117.657 88.5751 116.708 89.5159 115.155C96.4538 103.7 99.444 90.5929 98.4908 77.7126C99.0779 86.0186 92.4371 93.0679 84.1014 93.0679Z" fill="#4CC9F0"/>
<path d="M22.8313 72.0835C22.9199 71.546 23.0155 71.0095 23.118 70.474C23.0155 71.0095 22.9199 71.546 22.8313 72.0835Z" fill="#4CC9F0"/>
<path d="M23.1643 70.2375C23.2721 69.6862 23.3856 69.1357 23.5082 68.5868C23.3858 69.1357 23.2721 69.6862 23.1643 70.2375Z" fill="#4CC9F0"/>
<path d="M93.8235 58.116C94.032 58.6178 94.2341 59.1217 94.4293 59.6274C94.2341 59.1217 94.032 58.6178 93.8235 58.116Z" fill="#4CC9F0"/>
<path d="M97.8587 72.3237C97.9477 72.8764 98.0307 73.43 98.105 73.9843C98.0309 73.43 97.9477 72.8764 97.8587 72.3237Z" fill="#4CC9F0"/>
<path d="M98.3281 75.866C98.3853 76.4186 98.4341 76.9722 98.4767 77.5258C98.4341 76.9722 98.3853 76.4189 98.3281 75.866Z" fill="#4CC9F0"/>
<path d="M94.5252 59.8795C94.7251 60.4045 94.9199 60.9311 95.1052 61.4601C94.9199 60.9311 94.7251 60.4047 94.5252 59.8795Z" fill="#4CC9F0"/>
<path d="M98.1139 74.0535C98.188 74.6124 98.2543 75.1724 98.3134 75.7327C98.2543 75.1724 98.1882 74.6127 98.1139 74.0535Z" fill="#4CC9F0"/>
<path d="M22.1746 77.5258C22.2172 76.9722 22.266 76.4189 22.3232 75.8665C22.266 76.4191 22.2172 76.9722 22.1746 77.5258Z" fill="#4CC9F0"/>
<path d="M90.5209 51.3413C90.7911 51.8206 91.0538 52.3029 91.3105 52.7874C91.0538 52.3029 90.7911 51.8208 90.5209 51.3413Z" fill="#4CC9F0"/>
<path d="M95.7179 63.3C95.8827 63.8211 96.0399 64.3439 96.1909 64.868C96.0399 64.3439 95.8829 63.8211 95.7179 63.3Z" fill="#4CC9F0"/>
<path d="M95.1223 61.5101C95.3066 62.0372 95.4823 62.5665 95.6523 63.0971C95.4823 62.5665 95.3066 62.0372 95.1223 61.5101Z" fill="#4CC9F0"/>
<path d="M92.2878 54.7102C92.5274 55.2019 92.7603 55.696 92.9863 56.1924C92.7603 55.696 92.5271 55.2019 92.2878 54.7102Z" fill="#4CC9F0"/>
<path d="M96.7426 66.9093C96.8797 67.4533 97.0109 67.9984 97.1335 68.5452C97.0109 67.9984 96.8797 67.4533 96.7426 66.9093Z" fill="#4CC9F0"/>
<path d="M24.4609 64.8661C24.6116 64.3435 24.7682 63.822 24.9327 63.3026C24.7684 63.822 24.6116 64.3435 24.4609 64.8661Z" fill="#4CC9F0"/>
<path d="M25.0007 63.0925C25.1694 62.5654 25.3443 62.0395 25.5273 61.5159C25.344 62.0392 25.1694 62.5652 25.0007 63.0925Z" fill="#4CC9F0"/>
<path d="M28.449 54.5329C28.6904 54.041 28.9398 53.5521 29.1948 53.0651C28.94 53.5521 28.6904 54.0412 28.449 54.5329Z" fill="#4CC9F0"/>
<path d="M26.2232 59.625C26.4175 59.1213 26.6188 58.6195 26.8264 58.1196C26.6188 58.6195 26.4175 59.1213 26.2232 59.625Z" fill="#4CC9F0"/>
<path d="M26.9422 57.8444C27.1564 57.3361 27.3758 56.8293 27.6039 56.3254C27.3758 56.8293 27.1562 57.3361 26.9422 57.8444Z" fill="#4CC9F0"/>
<path d="M97.5331 70.4734C97.6358 71.0092 97.7314 71.5459 97.82 72.0835C97.7314 71.5459 97.6358 71.0092 97.5331 70.4734Z" fill="#4CC9F0"/>
<path d="M27.6702 56.1813C27.8931 55.6919 28.1228 55.2049 28.3588 54.7202C28.1228 55.2049 27.8931 55.6919 27.6702 56.1813Z" fill="#4CC9F0"/>
<path d="M97.1429 68.5859C97.2657 69.1355 97.3794 69.6866 97.4872 70.2387C97.3791 69.6866 97.2655 69.1355 97.1429 68.5859Z" fill="#4CC9F0"/>
<path d="M29.3443 52.7811C29.5989 52.3008 29.8595 51.8227 30.1271 51.3474C29.8595 51.8227 29.5989 52.3006 29.3443 52.7811Z" fill="#4CC9F0"/>
<path d="M23.9563 66.7188C24.0913 66.1908 24.234 65.6641 24.3831 65.1389C24.2343 65.6644 24.0913 66.1908 23.9563 66.7188Z" fill="#4CC9F0"/>
<path d="M23.5187 68.5423C23.6408 67.9976 23.7716 67.4543 23.9083 66.9122C23.7716 67.4543 23.6408 67.9974 23.5187 68.5423Z" fill="#4CC9F0"/>
<path d="M25.5468 61.4585C25.7317 60.9312 25.9258 60.4064 26.125 59.8831C25.9258 60.4064 25.7317 60.9312 25.5468 61.4585Z" fill="#4CC9F0"/>
<path d="M30.2673 51.102C30.5483 50.6082 30.8347 50.1163 31.13 49.6283C30.8345 50.1163 30.5483 50.6082 30.2673 51.102Z" fill="#4CC9F0"/>
<path d="M35.5761 47.1169C33.7602 47.1169 32.0764 48.0657 31.1356 49.6189C31.1338 49.6219 31.1319 49.6252 31.1303 49.6283C30.8347 50.1162 30.5485 50.6082 30.2675 51.102C30.2209 51.1838 30.1738 51.2654 30.1274 51.3474C29.8597 51.8227 29.5991 52.3006 29.3446 52.7811C29.2944 52.8757 29.2447 52.9704 29.1953 53.0653C28.9403 53.5524 28.6909 54.0413 28.4495 54.5332C28.419 54.5953 28.3895 54.6579 28.3593 54.7203C28.1232 55.2052 27.8935 55.6922 27.6707 56.1814C27.6486 56.2294 27.6259 56.2772 27.6041 56.3255C27.3761 56.8294 27.1567 57.3361 26.9425 57.8445C26.9038 57.9361 26.8649 58.028 26.8269 58.1199C26.6193 58.6198 26.4179 59.1213 26.2236 59.6252C26.1904 59.7113 26.1582 59.7973 26.1254 59.8833C25.9262 60.4067 25.7322 60.9314 25.5472 61.4588C25.5404 61.4777 25.5343 61.497 25.5278 61.5159C25.3447 62.0395 25.1699 62.5655 25.0011 63.0926C24.9786 63.1627 24.9554 63.2325 24.9332 63.3026C24.7689 63.8222 24.6121 64.3434 24.4614 64.8661C24.4351 64.957 24.4091 65.048 24.3833 65.1391C24.2345 65.6644 24.0915 66.191 23.9565 66.7191C23.9401 66.7833 23.9247 66.848 23.9083 66.9122C23.7716 67.4543 23.6408 67.9976 23.5187 68.5422C23.5154 68.5572 23.5117 68.572 23.5084 68.5868C23.3858 69.1357 23.2724 69.686 23.1646 70.2375C23.1491 70.3165 23.1332 70.3952 23.1182 70.474C23.0155 71.0095 22.9201 71.546 22.8315 72.0834C22.8184 72.1636 22.8058 72.2437 22.7929 72.3236C22.7038 72.8763 22.6208 73.4296 22.5465 73.9842C22.5435 74.0071 22.5409 74.0304 22.5379 74.0533C22.4638 74.6121 22.3975 75.1715 22.3384 75.7317C22.3337 75.7764 22.3283 75.8214 22.3236 75.8662C22.2665 76.4189 22.2177 76.972 22.1751 77.5256C22.1718 77.5671 22.1671 77.6085 22.164 77.65C22.1624 77.6709 22.1624 77.6913 22.161 77.7121C21.5739 86.0184 28.2146 93.0676 36.5504 93.0676H84.1018C92.4376 93.0676 99.0783 86.0184 98.4912 77.7121C98.4898 77.6913 98.4898 77.6709 98.4882 77.65C98.4851 77.6085 98.4802 77.5671 98.4772 77.5256C98.4345 76.9718 98.3858 76.4184 98.3286 75.8657C98.3239 75.8214 98.3187 75.7771 98.314 75.7326C98.2548 75.1722 98.1887 74.6123 98.1146 74.0533C98.1115 74.0301 98.109 74.0069 98.1057 73.9839C98.0314 73.4294 97.9482 72.8761 97.8594 72.3234C97.8465 72.2435 97.8338 72.1636 97.8207 72.0836C97.7321 71.546 97.6365 71.009 97.5338 70.4735C97.5188 70.3952 97.5031 70.3169 97.4876 70.2386C97.3798 69.6867 97.2662 69.1354 97.1433 68.5858C97.1403 68.5722 97.137 68.5589 97.134 68.5453C97.0114 67.9985 96.8804 67.4533 96.743 66.9094C96.7271 66.8463 96.7119 66.7833 96.6959 66.7202C96.5607 66.191 96.4175 65.6634 96.2684 65.137C96.2429 65.0473 96.2173 64.9577 96.1916 64.868C96.0406 64.3439 95.8834 63.821 95.7186 63.3C95.697 63.2323 95.6748 63.1645 95.653 63.0968C95.483 62.5662 95.3073 62.037 95.123 61.5098C95.1172 61.4932 95.1118 61.4766 95.1059 61.4599C94.9205 60.9309 94.7258 60.4043 94.5259 59.8793C94.494 59.7952 94.4623 59.711 94.43 59.6271C94.2348 59.1213 94.0327 58.6174 93.8241 58.1156C93.7871 58.0266 93.7496 57.938 93.7121 57.8492C93.4967 57.3378 93.2759 56.828 93.0465 56.321C93.027 56.2779 93.0066 56.235 92.987 56.1921C92.761 55.6957 92.5281 55.2017 92.2885 54.71C92.2606 54.6525 92.2335 54.5946 92.2053 54.5372C91.962 54.0413 91.7106 53.5484 91.4535 53.0574C91.4063 52.9671 91.359 52.8771 91.3114 52.7871C91.0548 52.3027 90.7918 51.8204 90.5218 51.3411C90.4787 51.2647 90.4346 51.1885 90.391 51.1121C90.1063 50.6117 89.8161 50.1132 89.5166 49.6186C88.5758 48.0654 86.8921 47.1167 85.0761 47.1167H83.1346H37.5174H35.5761V47.1169Z" fill="#ECEFF0"/>
<path d="M40.1811 38.9023C38.7099 38.9023 37.5174 40.0948 37.5174 41.566V47.1172H83.1339V41.566C83.1339 40.0948 81.9414 38.9023 80.4702 38.9023H71.2207H49.4309H40.1811Z" fill="#4CC9F0"/>
<path d="M105.984 4.58707C107.223 4.2116 107.923 2.90286 107.547 1.66419C107.172 0.425287 105.863 -0.273616 104.624 0.101148L67.0141 11.502C66.3972 8.37268 63.6333 6.00456 60.3255 6.00456C56.5659 6.00456 53.5074 9.06314 53.5074 12.8227V15.5963L14.0156 27.5679C12.7769 27.9434 12.0771 29.2521 12.4525 30.4908C12.7596 31.5031 13.6891 32.1553 14.6945 32.1553C14.9198 32.1553 15.1488 32.1227 15.3754 32.0538L53.5076 20.4945V25.2103C49.6634 27.5297 47.0869 31.7461 47.0869 36.5536V36.5585H40.1811C37.4199 36.5585 35.1737 38.8047 35.1737 41.5659V44.7864C35.1449 44.7881 35.1158 44.7874 35.087 44.7893C32.653 44.9503 30.403 46.3045 29.1306 48.4047C28.9508 48.7014 28.7741 48.9998 28.5993 49.2991C28.5266 49.4233 28.4556 49.5485 28.3839 49.6734C28.2875 49.8412 28.191 50.0088 28.0961 50.1773C27.9986 50.3503 27.9025 50.5242 27.8066 50.6981C27.7454 50.8092 27.684 50.9202 27.6236 51.0318C27.5064 51.2477 27.3899 51.4642 27.275 51.6813C27.2476 51.7333 27.22 51.7856 27.1925 51.8376C23.3268 59.1822 20.894 67.1846 20.0146 75.4194C20.0092 75.4695 20.0031 75.5197 19.9977 75.5698C19.978 75.7573 19.9609 75.9448 19.9429 76.1326C19.9272 76.2969 19.911 76.4612 19.8965 76.6255C19.8812 76.7989 19.8674 76.9723 19.8536 77.146C19.8447 77.2557 19.8346 77.3651 19.8264 77.4748C19.8248 77.4969 19.8248 77.5184 19.8231 77.5405C19.7041 79.1497 19.6419 80.7659 19.6419 82.3866C19.6419 94.369 22.9232 106.12 29.1308 116.368C30.4876 118.608 32.9572 120 35.5759 120H60.3258H85.0757C87.6946 120 90.1639 118.608 91.5207 116.368C97.7284 106.12 101.009 94.3688 101.009 82.3866C101.009 80.7694 100.947 79.1567 100.829 77.5512C100.827 77.5257 100.827 77.5004 100.825 77.4748C100.816 77.3478 100.804 77.221 100.794 77.0942C100.782 76.9458 100.77 76.7972 100.757 76.6489C100.739 76.4499 100.72 76.2509 100.701 76.0519C100.686 75.8977 100.672 75.7433 100.655 75.5893C100.642 75.4571 100.626 75.3254 100.611 75.1932C99.7123 67.0421 97.2913 59.1226 93.4642 51.8481C93.4335 51.7895 93.4028 51.7312 93.3718 51.6726C93.2596 51.4602 93.1459 51.2488 93.0313 51.0379C92.9678 50.9209 92.9033 50.8042 92.8391 50.6877C92.7458 50.5185 92.6523 50.3498 92.5576 50.1815C92.4599 50.0078 92.3603 49.8349 92.2609 49.6621C92.1917 49.5417 92.1231 49.421 92.053 49.3012C91.8777 49.001 91.7005 48.7019 91.5205 48.4047C90.2336 46.2799 87.9446 44.921 85.4776 44.7867V41.5661C85.4776 38.805 83.2314 36.5587 80.4702 36.5587H73.5644V36.5538C73.5644 31.7463 70.9879 27.5299 67.1437 25.2106V16.3608L105.984 4.58707ZM33.1405 113.94C28.7443 106.682 25.9883 98.7679 24.8711 90.6872C27.9899 93.6996 32.1957 95.4117 36.5499 95.4117H57.982V115.313H35.5759C34.5863 115.312 33.6531 114.787 33.1405 113.94ZM87.5111 113.94C86.9982 114.787 86.0652 115.312 85.0754 115.312H62.6693V95.4115H84.1012C88.4556 95.4115 92.6612 93.6994 95.7802 90.687C94.663 98.768 91.9072 106.682 87.5111 113.94ZM85.0754 49.4606C86.0652 49.4606 86.9982 49.9865 87.5111 50.8331C87.6784 51.1092 87.8425 51.3867 88.0051 51.6646C88.0871 51.8052 88.168 51.9468 88.2489 52.0884C88.3204 52.2131 88.3921 52.338 88.4628 52.4631C88.5796 52.6703 88.6951 52.878 88.8095 53.0866C88.8308 53.1252 88.8519 53.1639 88.873 53.2026C93.0006 60.7738 95.5063 69.2303 96.1508 77.8255C96.4016 81.1721 95.2766 84.3767 92.9827 86.8489C90.6976 89.3117 87.4602 90.7242 84.1012 90.7242H60.3258H36.5499C33.1909 90.7242 29.9535 89.3117 27.6683 86.8486C25.3747 84.3767 24.2497 81.1721 24.5005 77.8255C25.1451 69.2293 27.6512 60.7722 31.7795 53.2002C31.7996 53.1634 31.8198 53.1266 31.8402 53.0898C31.9553 52.8798 32.0715 52.6708 32.1892 52.4622C32.2592 52.338 32.3303 52.2142 32.4015 52.0905C32.4828 51.9484 32.5639 51.8062 32.6464 51.6649C32.8091 51.3869 32.9731 51.1094 33.1405 50.8333C33.6533 49.9867 34.5863 49.461 35.5761 49.461H37.5174H83.1341H85.0754V49.4606ZM80.4702 41.2458C80.6467 41.2458 80.7901 41.3892 80.7901 41.5657V44.7731H39.8609V41.5657C39.8609 41.3892 40.0044 41.2458 40.1809 41.2458H49.4307H71.2207H80.4702ZM68.8769 36.5536V36.5585H51.7744V36.5536C51.7744 33.9783 52.9203 31.6671 54.7273 30.098C55.9805 29.0098 57.5517 28.2799 59.2816 28.0683C59.6241 28.0264 59.9719 28.0022 60.3255 28.0022C60.6792 28.0022 61.027 28.0264 61.3694 28.0683C63.0994 28.2799 64.6706 29.0096 65.9238 30.098C67.7311 31.6669 68.8769 33.9783 68.8769 36.5536ZM60.3258 23.315C59.6004 23.315 58.8893 23.3759 58.1951 23.4889V19.0737V14.1755V12.8227C58.1951 11.6478 59.1509 10.692 60.3258 10.692C61.5007 10.692 62.4565 11.6478 62.4565 12.8227V12.8837V17.7819V23.4886C61.7623 23.3759 61.0512 23.315 60.3258 23.315Z" fill="black"/>
<path d="M46.6161 79.4971C47.0304 79.795 47.5088 79.9384 47.9827 79.9384C48.7111 79.9384 49.4295 79.5998 49.8875 78.9632L56.9267 69.1781C57.6825 68.1274 57.4435 66.6628 56.3928 65.9067C55.3421 65.1506 53.8777 65.3899 53.1214 66.4406L46.0822 76.2257C45.3263 77.2764 45.5651 78.741 46.6161 79.4971Z" fill="black"/>
<path d="M58.8005 60.4455C58.8591 60.5885 58.9317 60.7244 59.0161 60.851C59.1028 60.9799 59.2012 61.0994 59.3091 61.2073C59.4169 61.3151 59.5364 61.4135 59.6653 61.4979C59.7919 61.5823 59.9278 61.6549 60.0687 61.7135C60.2114 61.7721 60.3591 61.8166 60.5067 61.8471C60.6591 61.8776 60.814 61.894 60.9661 61.894C61.5827 61.894 62.1874 61.6432 62.6231 61.2073C62.7309 61.0994 62.8294 60.9799 62.9137 60.851C62.9981 60.7244 63.0708 60.5885 63.1294 60.4455C63.188 60.3049 63.2325 60.1573 63.263 60.0073C63.2934 59.8573 63.3096 59.7026 63.3096 59.5502C63.3096 59.3979 63.2934 59.2432 63.263 59.0909C63.2325 58.9432 63.188 58.7955 63.1294 58.6526C63.0708 58.512 62.9981 58.376 62.9137 58.2495C62.8294 58.1206 62.7309 58.001 62.6231 57.8932C62.5153 57.7854 62.3958 57.687 62.2669 57.6002C62.1403 57.5159 62.0044 57.4432 61.8614 57.3846C61.7208 57.326 61.5733 57.2815 61.4231 57.251C61.1208 57.1901 60.8116 57.1901 60.5067 57.251C60.3591 57.2815 60.2114 57.326 60.0687 57.3846C59.9278 57.4432 59.7919 57.5159 59.6653 57.6002C59.5364 57.687 59.4169 57.7854 59.3091 57.8932C59.2012 58.001 59.1028 58.1206 59.0161 58.2495C58.9317 58.376 58.8591 58.512 58.8005 58.6526C58.7419 58.7955 58.6973 58.9432 58.6669 59.0909C58.6364 59.2432 58.6223 59.3979 58.6223 59.5502C58.6223 59.7026 58.6366 59.8573 58.6669 60.0073C58.6973 60.1573 58.7419 60.3049 58.8005 60.4455Z" fill="black"/>
<path d="M61.5935 83.4747C62.0079 83.7725 62.4862 83.916 62.9602 83.916C63.6886 83.916 64.4069 83.5773 64.8649 82.9407L81.3815 59.9815C82.1376 58.9308 81.8985 57.4662 80.8478 56.7101C79.7969 55.954 78.3323 56.1933 77.5767 57.244L61.0596 80.2033C60.3038 81.2542 60.5428 82.7188 61.5935 83.4747Z" fill="black"/>
</svg>
