<?xml version="1.0" encoding="UTF-8"?>
<svg width="1395px" height="1200px" viewBox="0 0 1395 1200" version="1.1" xmlns="http://www.w3.org/2000/svg" xmlns:xlink="http://www.w3.org/1999/xlink">
    <title>Artboard</title>
    <g id="Artboard" stroke="none" stroke-width="1" fill="none" fill-rule="evenodd">
        <rect fill="#1976D2" x="0" y="0" width="1395" height="1200"></rect>
        <text id="C-MPAZ" font-family="AmericanTypewriter-Semibold, American Typewriter" font-size="300" font-weight="500">
            <tspan x="45.6" y="682" fill="#FBFBFB">C</tspan>
            <tspan x="236.7" y="682" fill="#000000">   </tspan>
            <tspan x="461.7" y="682" fill="#FBFBFB">MPAZ</tspan>
        </text>
        <g id="Group-5" transform="translate(231.000000, 462.000000)">
            <circle id="Oval" stroke="#000000" stroke-width="6" fill="#D8D8D8" cx="121.5" cy="121.5" r="118.5"></circle>
            <circle id="Oval" stroke="#1C7FEA" stroke-width="7.2" fill="#FBFBFB" cx="121.5" cy="121.5" r="99.9"></circle>
            <g id="Group-3" transform="translate(38.000000, 32.000000)">
                <circle id="Oval" stroke="#EAF6FF" stroke-width="6.48" cx="84" cy="90" r="71.76"></circle>
                <g id="Group-4">
                    <rect id="Rectangle" stroke="#EAF6FF" stroke-width="9.72" fill="#D8D8D8" transform="translate(157.309617, 160.309617) rotate(45.000000) translate(-157.309617, -160.309617) " x="149.209617" y="163.549617" width="16.2" height="1" rx="0.5"></rect>
                    <rect id="Rectangle" stroke="#EAF6FF" stroke-width="9.72" fill="#D8D8D8" transform="translate(157.309617, 19.309617) rotate(-45.000000) translate(-157.309617, -19.309617) " x="149.209617" y="22.5496169" width="16.2" height="1" rx="0.5"></rect>
                    <rect id="Rectangle" stroke="#EAF6FF" stroke-width="9.72" fill="#D8D8D8" transform="translate(10.309617, 160.309617) rotate(-45.000000) translate(-10.309617, -160.309617) " x="2.20961687" y="163.549617" width="16.2" height="1" rx="0.5"></rect>
                    <rect id="Rectangle" stroke="#EAF6FF" stroke-width="9.72" fill="#D8D8D8" transform="translate(10.309617, 19.309617) rotate(45.000000) translate(-10.309617, -19.309617) " x="2.20961687" y="22.5496169" width="16.2" height="1" rx="0.5"></rect>
                    <text id="N" font-family="AmericanTypewriter-Semibold, American Typewriter" font-size="32.4" font-weight="500" fill="#000000">
                        <tspan x="71.1232" y="29">N</tspan>
                    </text>
                    <text id="E" font-family="AmericanTypewriter-Semibold, American Typewriter" font-size="32.4" font-weight="500" fill="#000000">
                        <tspan x="146.0974" y="98">E</tspan>
                    </text>
                    <text id="S" font-family="AmericanTypewriter-Semibold, American Typewriter" font-size="32.4" font-weight="500" fill="#000000">
                        <tspan x="73.4722" y="170">S</tspan>
                    </text>
                    <text id="O" font-family="AmericanTypewriter-Semibold, American Typewriter" font-size="32.4" font-weight="500" fill="#000000">
                        <tspan x="0.389" y="98">O</tspan>
                    </text>
                </g>
                <path d="M82.9807664,36.3103011 L96.2449613,77.5783011 L137.927892,91.1494266 L96.5569613,104.618301 L83.0887664,145.988552 L69.4807664,104.192552 L96.1309613,104.192301 L96.1309613,78.3093011 L95.0679613,78.3093011 L95.0687275,102.906106 L68.0687275,102.906106 L68.0679613,101.593301 L30.3709613,89.0281062 L68.0679613,76.4613011 L68.0687275,75.9061062 L69.7359613,75.9053011 L70.3149613,75.7123011 L82.9807664,36.3103011 Z" id="Combined-Shape" fill="#1C7FEA" transform="translate(84.149427, 91.149427) rotate(45.000000) translate(-84.149427, -91.149427) "></path>
                <path d="M69,103 L69,102.607 L30,89.608 L69,76.607 L69,76 L69,76 L82.5,34 L96,76 L96,76 L137.796,89.608 L96.162,103.162 L82.608,144.796 L69,103 L69,103 Z" id="Combined-Shape" fill="#430C45"></path>
            </g>
        </g>
    </g>
</svg>