<svg width="100%" height="100%" viewBox="0 0 512 336" fill="none" xmlns="http://www.w3.org/2000/svg">
<path d="M473.655 0.276001H38.345C17.167 0.276001 0 17.443 0 38.621V297.38C0 318.557 17.167 335.725 38.345 335.725H473.655C494.832 335.725 512 318.558 512 297.38V38.621C512 17.443 494.833 0.276001 473.655 0.276001Z" fill="#F5F5F5"/>
<path d="M2.10901 26.08H509.89C504.694 11.063 490.438 0.276001 473.655 0.276001H38.345C21.561 0.276001 7.30601 11.063 2.10901 26.08Z" fill="#FF4B55"/>
<path d="M512 103.49H0V129.293H512V103.49Z" fill="#FF4B55"/>
<path d="M512 51.88H0V77.683H512V51.88Z" fill="#FF4B55"/>
<path d="M0 172.074C0 176.949 3.953 180.902 8.828 180.902H512V155.098H0V172.074Z" fill="#FF4B55"/>
<path d="M512 258.32H0V284.124H512V258.32Z" fill="#FF4B55"/>
<path d="M509.891 309.92H2.10901C7.30601 324.937 21.562 335.724 38.345 335.724H473.655C490.439 335.724 504.694 324.937 509.891 309.92Z" fill="#FF4B55"/>
<path d="M512 206.71H0V232.513H512V206.71Z" fill="#FF4B55"/>
<path d="M8.828 180.902H229.518C234.393 180.902 238.346 176.949 238.346 172.074V9.10299C238.346 4.22699 234.393 0.274994 229.518 0.274994H38.345C17.167 0.275994 0 17.443 0 38.621V172.074C0 176.95 3.953 180.902 8.828 180.902Z" fill="#41479B"/>
<path d="M24.789 20.537L26.743 26.397L32.92 26.444C33.72 26.451 34.051 27.471 33.408 27.946L28.439 31.615L30.303 37.504C30.545 38.266 29.676 38.898 29.025 38.432L24 34.841L18.975 38.433C18.324 38.899 17.457 38.267 17.697 37.505L19.561 31.616L14.592 27.947C13.949 27.471 14.28 26.451 15.08 26.445L21.257 26.398L23.211 20.538C23.463 19.778 24.535 19.778 24.789 20.537Z" fill="#F5F5F5"/>
<path d="M24.789 51.191L26.743 57.051L32.92 57.098C33.72 57.105 34.051 58.124 33.408 58.6L28.439 62.27L30.303 68.159C30.545 68.921 29.676 69.553 29.025 69.087L24 65.496L18.975 69.088C18.324 69.553 17.457 68.922 17.697 68.16L19.561 62.271L14.592 58.601C13.949 58.125 14.28 57.106 15.08 57.099L21.257 57.052L23.211 51.192C23.463 50.433 24.535 50.433 24.789 51.191Z" fill="#F5F5F5"/>
<path d="M24.789 81.846L26.743 87.706L32.92 87.753C33.72 87.76 34.051 88.779 33.408 89.255L28.439 92.925L30.303 98.814C30.545 99.576 29.676 100.208 29.025 99.742L24 96.151L18.975 99.743C18.324 100.208 17.457 99.578 17.697 98.815L19.561 92.926L14.592 89.256C13.949 88.78 14.28 87.761 15.08 87.754L21.257 87.707L23.211 81.847C23.463 81.087 24.535 81.087 24.789 81.846Z" fill="#F5F5F5"/>
<path d="M24.789 112.5L26.743 118.36L32.92 118.407C33.72 118.414 34.051 119.434 33.408 119.909L28.439 123.579L30.303 129.468C30.545 130.23 29.676 130.862 29.025 130.396L24 126.805L18.975 130.397C18.324 130.862 17.457 130.231 17.697 129.469L19.561 123.58L14.592 119.91C13.949 119.436 14.28 118.415 15.08 118.408L21.257 118.361L23.211 112.501C23.463 111.741 24.535 111.741 24.789 112.5Z" fill="#F5F5F5"/>
<path d="M24.789 143.154L26.743 149.014L32.92 149.061C33.72 149.068 34.051 150.087 33.408 150.563L28.439 154.233L30.303 160.122C30.545 160.884 29.676 161.516 29.025 161.05L24 157.459L18.975 161.051C18.324 161.516 17.457 160.885 17.697 160.123L19.561 154.234L14.592 150.564C13.949 150.088 14.28 149.069 15.08 149.062L21.257 149.015L23.211 143.155C23.463 142.396 24.535 142.396 24.789 143.154Z" fill="#F5F5F5"/>
<path d="M48.582 35.566L50.536 41.426L56.713 41.473C57.513 41.48 57.844 42.5 57.201 42.975L52.232 46.645L54.096 52.534C54.338 53.296 53.469 53.928 52.818 53.462L47.793 49.87L42.768 53.462C42.117 53.927 41.25 53.296 41.49 52.534L43.354 46.645L38.385 42.975C37.742 42.499 38.073 41.48 38.873 41.473L45.05 41.426L47.004 35.566C47.256 34.808 48.329 34.808 48.582 35.566Z" fill="#F5F5F5"/>
<path d="M48.582 66.221L50.536 72.081L56.713 72.128C57.513 72.135 57.844 73.155 57.201 73.63L52.232 77.3L54.096 83.189C54.338 83.951 53.469 84.583 52.818 84.117L47.793 80.525L42.768 84.117C42.117 84.582 41.25 83.952 41.49 83.189L43.354 77.3L38.385 73.63C37.742 73.156 38.073 72.135 38.873 72.128L45.05 72.081L47.004 66.221C47.256 65.462 48.329 65.462 48.582 66.221Z" fill="#F5F5F5"/>
<path d="M48.582 96.875L50.536 102.735L56.713 102.782C57.513 102.789 57.844 103.808 57.201 104.284L52.232 107.954L54.096 113.843C54.338 114.605 53.469 115.237 52.818 114.771L47.793 111.179L42.768 114.771C42.117 115.236 41.25 114.605 41.49 113.843L43.354 107.954L38.385 104.284C37.742 103.808 38.073 102.789 38.873 102.782L45.05 102.735L47.004 96.875C47.256 96.116 48.329 96.116 48.582 96.875Z" fill="#F5F5F5"/>
<path d="M48.582 127.529L50.536 133.389L56.713 133.436C57.513 133.443 57.844 134.462 57.201 134.938L52.232 138.608L54.096 144.497C54.338 145.259 53.469 145.891 52.818 145.425L47.793 141.833L42.768 145.425C42.117 145.891 41.25 145.259 41.49 144.497L43.354 138.608L38.385 134.938C37.742 134.462 38.073 133.443 38.873 133.436L45.05 133.389L47.004 127.529C47.256 126.771 48.329 126.771 48.582 127.529Z" fill="#F5F5F5"/>
<path d="M72.375 20.537L74.329 26.397L80.506 26.444C81.306 26.451 81.637 27.471 80.994 27.946L76.025 31.615L77.889 37.504C78.131 38.266 77.262 38.898 76.611 38.432L71.586 34.84L66.561 38.432C65.91 38.898 65.043 38.266 65.283 37.504L67.147 31.615L62.178 27.946C61.535 27.47 61.866 26.45 62.666 26.444L68.843 26.397L70.797 20.537C71.049 19.778 72.122 19.778 72.375 20.537Z" fill="#F5F5F5"/>
<path d="M72.375 51.191L74.329 57.051L80.506 57.098C81.306 57.105 81.637 58.124 80.994 58.6L76.025 62.27L77.889 68.159C78.131 68.921 77.262 69.553 76.611 69.087L71.586 65.495L66.561 69.087C65.91 69.552 65.043 68.921 65.283 68.159L67.147 62.27L62.178 58.6C61.535 58.124 61.866 57.105 62.666 57.098L68.843 57.051L70.797 51.191C71.049 50.433 72.122 50.433 72.375 51.191Z" fill="#F5F5F5"/>
<path d="M72.375 81.846L74.329 87.706L80.506 87.753C81.306 87.76 81.637 88.779 80.994 89.255L76.025 92.925L77.889 98.814C78.131 99.576 77.262 100.208 76.611 99.742L71.586 96.15L66.561 99.742C65.91 100.207 65.043 99.577 65.283 98.814L67.147 92.925L62.178 89.255C61.535 88.779 61.866 87.76 62.666 87.753L68.843 87.706L70.797 81.846C71.049 81.087 72.122 81.087 72.375 81.846Z" fill="#F5F5F5"/>
<path d="M72.375 112.5L74.329 118.36L80.506 118.407C81.306 118.414 81.637 119.434 80.994 119.909L76.025 123.579L77.889 129.468C78.131 130.23 77.262 130.862 76.611 130.396L71.586 126.804L66.561 130.396C65.91 130.861 65.043 130.23 65.283 129.468L67.147 123.579L62.178 119.909C61.535 119.435 61.866 118.414 62.666 118.407L68.843 118.36L70.797 112.5C71.049 111.741 72.122 111.741 72.375 112.5Z" fill="#F5F5F5"/>
<path d="M72.375 143.154L74.329 149.014L80.506 149.061C81.306 149.068 81.637 150.087 80.994 150.563L76.025 154.233L77.889 160.122C78.131 160.884 77.262 161.516 76.611 161.05L71.586 157.458L66.561 161.05C65.91 161.515 65.043 160.884 65.283 160.122L67.147 154.233L62.178 150.563C61.535 150.087 61.866 149.068 62.666 149.061L68.843 149.014L70.797 143.154C71.049 142.396 72.122 142.396 72.375 143.154Z" fill="#F5F5F5"/>
<path d="M96.169 35.566L98.1231 41.426L104.3 41.473C105.1 41.48 105.431 42.5 104.788 42.975L99.819 46.645L101.683 52.534C101.925 53.296 101.056 53.928 100.405 53.462L95.38 49.87L90.3551 53.462C89.7041 53.927 88.8371 53.296 89.0771 52.534L90.9411 46.645L85.972 42.975C85.329 42.499 85.66 41.48 86.46 41.473L92.6371 41.426L94.5911 35.566C94.8421 34.808 95.916 34.808 96.169 35.566Z" fill="#F5F5F5"/>
<path d="M96.169 66.221L98.1231 72.081L104.3 72.128C105.1 72.135 105.431 73.155 104.788 73.63L99.819 77.3L101.683 83.189C101.925 83.951 101.056 84.583 100.405 84.117L95.38 80.525L90.3551 84.117C89.7041 84.582 88.8371 83.952 89.0771 83.189L90.9411 77.3L85.972 73.63C85.329 73.156 85.66 72.135 86.46 72.128L92.6371 72.081L94.5911 66.221C94.8421 65.462 95.916 65.462 96.169 66.221Z" fill="#F5F5F5"/>
<path d="M96.169 96.875L98.1231 102.735L104.3 102.782C105.1 102.789 105.431 103.808 104.788 104.284L99.819 107.954L101.683 113.843C101.925 114.605 101.056 115.237 100.405 114.771L95.38 111.179L90.3551 114.771C89.7041 115.236 88.8371 114.605 89.0771 113.843L90.9411 107.954L85.972 104.284C85.329 103.808 85.66 102.789 86.46 102.782L92.6371 102.735L94.5911 96.875C94.8421 96.116 95.916 96.116 96.169 96.875Z" fill="#F5F5F5"/>
<path d="M96.169 127.529L98.1231 133.389L104.3 133.436C105.1 133.443 105.431 134.462 104.788 134.938L99.819 138.608L101.683 144.497C101.925 145.259 101.056 145.891 100.405 145.425L95.38 141.833L90.3551 145.425C89.7041 145.891 88.8371 145.259 89.0771 144.497L90.9411 138.608L85.972 134.938C85.329 134.462 85.66 133.443 86.46 133.436L92.6371 133.389L94.5911 127.529C94.8421 126.771 95.916 126.771 96.169 127.529Z" fill="#F5F5F5"/>
<path d="M119.962 20.537L121.916 26.397L128.093 26.444C128.893 26.451 129.224 27.471 128.581 27.946L123.612 31.615L125.476 37.504C125.718 38.266 124.849 38.898 124.198 38.432L119.172 34.841L114.147 38.433C113.496 38.899 112.629 38.267 112.869 37.505L114.733 31.616L109.764 27.947C109.121 27.471 109.452 26.451 110.252 26.445L116.429 26.398L118.383 20.538C118.636 19.778 119.709 19.778 119.962 20.537Z" fill="#F5F5F5"/>
<path d="M119.962 51.191L121.916 57.051L128.093 57.098C128.893 57.105 129.224 58.124 128.581 58.6L123.612 62.27L125.476 68.159C125.718 68.921 124.849 69.553 124.198 69.087L119.172 65.495L114.147 69.087C113.496 69.552 112.629 68.921 112.869 68.159L114.733 62.27L109.764 58.6C109.121 58.124 109.452 57.105 110.252 57.098L116.429 57.051L118.383 51.191C118.636 50.433 119.709 50.433 119.962 51.191Z" fill="#F5F5F5"/>
<path d="M119.962 81.846L121.916 87.706L128.093 87.753C128.893 87.76 129.224 88.779 128.581 89.255L123.612 92.925L125.476 98.814C125.718 99.576 124.849 100.208 124.198 99.742L119.172 96.149L114.147 99.741C113.496 100.206 112.629 99.575 112.869 98.813L114.733 92.924L109.764 89.254C109.121 88.778 109.452 87.759 110.252 87.752L116.429 87.705L118.383 81.845C118.636 81.087 119.709 81.087 119.962 81.846Z" fill="#F5F5F5"/>
<path d="M119.962 112.5L121.916 118.36L128.093 118.407C128.893 118.414 129.224 119.434 128.581 119.909L123.612 123.579L125.476 129.468C125.718 130.23 124.849 130.862 124.198 130.396L119.172 126.804L114.147 130.396C113.496 130.861 112.629 130.23 112.869 129.468L114.733 123.579L109.764 119.909C109.121 119.435 109.452 118.414 110.252 118.407L116.429 118.36L118.383 112.5C118.636 111.741 119.709 111.741 119.962 112.5Z" fill="#F5F5F5"/>
<path d="M119.962 143.154L121.916 149.014L128.093 149.061C128.893 149.068 129.224 150.087 128.581 150.563L123.612 154.233L125.476 160.122C125.718 160.884 124.849 161.516 124.198 161.05L119.172 157.458L114.147 161.05C113.496 161.515 112.629 160.884 112.869 160.122L114.733 154.233L109.764 150.563C109.121 150.087 109.452 149.068 110.252 149.061L116.429 149.014L118.383 143.154C118.636 142.396 119.709 142.396 119.962 143.154Z" fill="#F5F5F5"/>
<path d="M143.755 35.566L145.709 41.426L151.886 41.473C152.686 41.48 153.017 42.5 152.374 42.975L147.405 46.645L149.269 52.534C149.511 53.296 148.642 53.928 147.991 53.462L142.966 49.87L137.941 53.462C137.29 53.927 136.423 53.296 136.663 52.534L138.527 46.645L133.558 42.975C132.915 42.499 133.246 41.48 134.046 41.473L140.223 41.426L142.177 35.566C142.43 34.808 143.502 34.808 143.755 35.566Z" fill="#F5F5F5"/>
<path d="M143.755 66.221L145.709 72.081L151.886 72.128C152.686 72.135 153.017 73.155 152.374 73.63L147.405 77.3L149.269 83.189C149.511 83.951 148.642 84.583 147.991 84.117L142.966 80.525L137.941 84.117C137.29 84.582 136.423 83.952 136.663 83.189L138.527 77.3L133.558 73.63C132.915 73.156 133.246 72.135 134.046 72.128L140.223 72.081L142.177 66.221C142.43 65.462 143.502 65.462 143.755 66.221Z" fill="#F5F5F5"/>
<path d="M143.755 96.875L145.709 102.735L151.886 102.782C152.686 102.789 153.017 103.808 152.374 104.284L147.405 107.954L149.269 113.843C149.511 114.605 148.642 115.237 147.991 114.771L142.966 111.179L137.941 114.771C137.29 115.236 136.423 114.605 136.663 113.843L138.527 107.954L133.558 104.284C132.915 103.808 133.246 102.789 134.046 102.782L140.223 102.735L142.177 96.875C142.43 96.116 143.502 96.116 143.755 96.875Z" fill="#F5F5F5"/>
<path d="M143.755 127.529L145.709 133.389L151.886 133.436C152.686 133.443 153.017 134.462 152.374 134.938L147.405 138.608L149.269 144.497C149.511 145.259 148.642 145.891 147.991 145.425L142.966 141.833L137.941 145.425C137.29 145.891 136.423 145.259 136.663 144.497L138.527 138.608L133.558 134.938C132.915 134.462 133.246 133.443 134.046 133.436L140.223 133.389L142.177 127.529C142.43 126.771 143.502 126.771 143.755 127.529Z" fill="#F5F5F5"/>
<path d="M167.549 20.537L169.503 26.397L175.68 26.444C176.48 26.451 176.811 27.471 176.168 27.946L171.199 31.615L173.063 37.504C173.305 38.266 172.436 38.898 171.785 38.432L166.76 34.84L161.735 38.432C161.084 38.898 160.217 38.266 160.457 37.504L162.321 31.615L157.352 27.946C156.709 27.47 157.04 26.45 157.84 26.444L164.017 26.397L165.971 20.537C166.222 19.778 167.296 19.778 167.549 20.537Z" fill="#F5F5F5"/>
<path d="M167.549 51.191L169.503 57.051L175.68 57.098C176.48 57.105 176.811 58.124 176.168 58.6L171.199 62.27L173.063 68.159C173.305 68.921 172.436 69.553 171.785 69.087L166.76 65.495L161.735 69.087C161.084 69.552 160.217 68.921 160.457 68.159L162.321 62.27L157.352 58.6C156.709 58.124 157.04 57.105 157.84 57.098L164.017 57.051L165.971 51.191C166.222 50.433 167.296 50.433 167.549 51.191Z" fill="#F5F5F5"/>
<path d="M167.549 81.846L169.503 87.706L175.68 87.753C176.48 87.76 176.811 88.779 176.168 89.255L171.199 92.925L173.063 98.814C173.305 99.576 172.436 100.208 171.785 99.742L166.76 96.15L161.735 99.742C161.084 100.207 160.217 99.577 160.457 98.814L162.321 92.925L157.352 89.255C156.709 88.779 157.04 87.76 157.84 87.753L164.017 87.706L165.971 81.846C166.222 81.087 167.296 81.087 167.549 81.846Z" fill="#F5F5F5"/>
<path d="M167.549 112.5L169.503 118.36L175.68 118.407C176.48 118.414 176.811 119.434 176.168 119.909L171.199 123.579L173.063 129.468C173.305 130.23 172.436 130.862 171.785 130.396L166.76 126.804L161.735 130.396C161.084 130.861 160.217 130.23 160.457 129.468L162.321 123.579L157.352 119.909C156.709 119.435 157.04 118.414 157.84 118.407L164.017 118.36L165.971 112.5C166.222 111.741 167.296 111.741 167.549 112.5Z" fill="#F5F5F5"/>
<path d="M167.549 143.154L169.503 149.014L175.68 149.061C176.48 149.068 176.811 150.087 176.168 150.563L171.199 154.233L173.063 160.122C173.305 160.884 172.436 161.516 171.785 161.05L166.76 157.458L161.735 161.05C161.084 161.515 160.217 160.884 160.457 160.122L162.321 154.233L157.352 150.563C156.709 150.087 157.04 149.068 157.84 149.061L164.017 149.014L165.971 143.154C166.222 142.396 167.296 142.396 167.549 143.154Z" fill="#F5F5F5"/>
<path d="M191.342 35.566L193.296 41.426L199.473 41.473C200.273 41.48 200.604 42.5 199.961 42.975L194.992 46.645L196.856 52.534C197.098 53.296 196.229 53.928 195.578 53.462L190.553 49.87L185.528 53.462C184.877 53.927 184.01 53.296 184.25 52.534L186.114 46.645L181.145 42.975C180.502 42.499 180.833 41.48 181.633 41.473L187.81 41.426L189.764 35.566C190.016 34.808 191.089 34.808 191.342 35.566Z" fill="#F5F5F5"/>
<path d="M191.342 66.221L193.296 72.081L199.473 72.128C200.273 72.135 200.604 73.155 199.961 73.63L194.992 77.3L196.856 83.189C197.098 83.951 196.229 84.583 195.578 84.117L190.553 80.525L185.528 84.117C184.877 84.582 184.01 83.952 184.25 83.189L186.114 77.3L181.145 73.63C180.502 73.156 180.833 72.135 181.633 72.128L187.81 72.081L189.764 66.221C190.016 65.462 191.089 65.462 191.342 66.221Z" fill="#F5F5F5"/>
<path d="M191.342 96.875L193.296 102.735L199.473 102.782C200.273 102.789 200.604 103.808 199.961 104.284L194.992 107.954L196.856 113.843C197.098 114.605 196.229 115.237 195.578 114.771L190.553 111.179L185.528 114.771C184.877 115.236 184.01 114.605 184.25 113.843L186.114 107.954L181.145 104.284C180.502 103.808 180.833 102.789 181.633 102.782L187.81 102.735L189.764 96.875C190.016 96.116 191.089 96.116 191.342 96.875Z" fill="#F5F5F5"/>
<path d="M191.342 127.529L193.296 133.389L199.473 133.436C200.273 133.443 200.604 134.462 199.961 134.938L194.992 138.608L196.856 144.497C197.098 145.259 196.229 145.891 195.578 145.425L190.553 141.833L185.528 145.425C184.877 145.891 184.01 145.259 184.25 144.497L186.114 138.608L181.145 134.938C180.502 134.462 180.833 133.443 181.633 133.436L187.81 133.389L189.764 127.529C190.016 126.771 191.089 126.771 191.342 127.529Z" fill="#F5F5F5"/>
<path d="M215.136 20.537L217.09 26.397L223.267 26.444C224.067 26.451 224.398 27.471 223.755 27.946L218.786 31.615L220.65 37.504C220.892 38.266 220.023 38.898 219.372 38.432L214.347 34.84L209.322 38.432C208.671 38.898 207.804 38.266 208.044 37.504L209.908 31.615L204.939 27.946C204.296 27.47 204.627 26.45 205.427 26.444L211.604 26.397L213.558 20.537C213.81 19.778 214.882 19.778 215.136 20.537Z" fill="#F5F5F5"/>
<path d="M215.136 51.191L217.09 57.051L223.267 57.098C224.067 57.105 224.398 58.124 223.755 58.6L218.786 62.27L220.65 68.159C220.892 68.921 220.023 69.553 219.372 69.087L214.347 65.495L209.322 69.087C208.671 69.552 207.804 68.921 208.044 68.159L209.908 62.27L204.939 58.6C204.296 58.124 204.627 57.105 205.427 57.098L211.604 57.051L213.558 51.191C213.81 50.433 214.882 50.433 215.136 51.191Z" fill="#F5F5F5"/>
<path d="M215.136 81.846L217.09 87.706L223.267 87.753C224.067 87.76 224.398 88.779 223.755 89.255L218.786 92.925L220.65 98.814C220.892 99.576 220.023 100.208 219.372 99.742L214.347 96.15L209.322 99.742C208.671 100.207 207.804 99.577 208.044 98.814L209.908 92.925L204.939 89.255C204.296 88.779 204.627 87.76 205.427 87.753L211.604 87.706L213.558 81.846C213.81 81.087 214.882 81.087 215.136 81.846Z" fill="#F5F5F5"/>
<path d="M215.136 112.5L217.09 118.36L223.267 118.407C224.067 118.414 224.398 119.434 223.755 119.909L218.786 123.579L220.65 129.468C220.892 130.23 220.023 130.862 219.372 130.396L214.347 126.804L209.322 130.396C208.671 130.861 207.804 130.23 208.044 129.468L209.908 123.579L204.939 119.909C204.296 119.435 204.627 118.414 205.427 118.407L211.604 118.36L213.558 112.5C213.81 111.741 214.882 111.741 215.136 112.5Z" fill="#F5F5F5"/>
<path d="M215.136 143.154L217.09 149.014L223.267 149.061C224.067 149.068 224.398 150.087 223.755 150.563L218.786 154.233L220.65 160.122C220.892 160.884 220.023 161.516 219.372 161.05L214.347 157.458L209.322 161.05C208.671 161.515 207.804 160.884 208.044 160.122L209.908 154.233L204.939 150.563C204.296 150.087 204.627 149.068 205.427 149.061L211.604 149.014L213.558 143.154C213.81 142.396 214.882 142.396 215.136 143.154Z" fill="#F5F5F5"/>
</svg>
