<svg width="100%" height="100%" viewBox="0 0 38 30" fill="none" xmlns="http://www.w3.org/2000/svg">
<g filter="url(#filter0_d)">
<mask id="mask0" mask-type="alpha" maskUnits="userSpaceOnUse" x="3" y="1" width="32" height="24">
<rect x="3" y="1" width="32" height="24" fill="white"/>
</mask>
<g mask="url(#mask0)">
<path fill-rule="evenodd" clip-rule="evenodd" d="M3 1V25H35V1H3Z" fill="#FECA00"/>
<mask id="mask1" mask-type="alpha" maskUnits="userSpaceOnUse" x="3" y="1" width="32" height="24">
<path fill-rule="evenodd" clip-rule="evenodd" d="M3 1V25H35V1H3Z" fill="white"/>
</mask>
<g mask="url(#mask1)">
<path fill-rule="evenodd" clip-rule="evenodd" d="M3 1V9H35V1H3Z" fill="#DB501C"/>
<path fill-rule="evenodd" clip-rule="evenodd" d="M3 17V25H35V17H3Z" fill="#5EAA22"/>
<path d="M15.4463 10.9591L15.4826 10.9238L22.7023 17.8685L22.6659 17.9038L15.4463 10.9591Z" fill="#864C26"/>
<path d="M23.2213 17.4173L23.1901 17.4569L14.791 11.2874L14.8222 11.2478L23.2213 17.4173Z" fill="#864C26"/>
<path d="M23.398 16.8016L23.3727 16.845L14.0298 11.7594L14.0551 11.7161L23.398 16.8016Z" fill="#A05A2C"/>
<path fill-rule="evenodd" clip-rule="evenodd" d="M14.6018 10.1122L15.3093 10.5803L15.2698 10.6073C15.2859 10.6165 15.3026 10.6265 15.3197 10.6371C15.3396 10.6494 15.3536 10.6643 15.3618 10.6814C15.3761 10.6391 15.3758 10.5878 15.3605 10.5266L15.3233 10.3776L15.4072 10.5082C15.5405 10.7158 15.5604 10.8643 15.4567 10.9484C15.3554 11.0305 15.196 11.0091 14.9806 10.8907L14.8931 10.8426L14.9929 10.8442C15.075 10.8454 15.1453 10.8357 15.2041 10.8153L15.1633 10.8044C15.1287 10.7951 15.1031 10.7709 15.0857 10.7329L15.0163 10.7803L14.6018 10.1122ZM13.7533 10.6413L14.5314 10.9794L14.4963 11.0137C14.5144 11.0202 14.5333 11.0274 14.5528 11.0352C14.5745 11.0439 14.5909 11.0561 14.6019 11.0715C14.6086 11.0275 14.5993 10.9771 14.5737 10.9196L14.5112 10.7793L14.6165 10.8934C14.7839 11.0747 14.8292 11.2175 14.7417 11.3183C14.6562 11.4167 14.4955 11.4233 14.2628 11.3442L14.1683 11.312L14.2669 11.2961C14.3481 11.2831 14.4158 11.2613 14.4703 11.2308L14.4278 11.2271C14.3915 11.2239 14.3617 11.2039 14.3378 11.1684L14.2776 11.2272L13.7533 10.6413ZM13.8046 11.4531L13 11.1841L13.5733 11.7221L13.628 11.6584C13.6551 11.6922 13.6867 11.7098 13.7235 11.7098H13.7662C13.7146 11.7449 13.649 11.7726 13.5691 11.7927L13.4723 11.8171L13.5693 11.8409C13.8079 11.8995 13.9674 11.8789 14.044 11.7734C14.1224 11.6654 14.0648 11.5271 13.8823 11.361L13.7674 11.2566L13.8419 11.3909C13.8724 11.4458 13.8861 11.4952 13.8833 11.5396C13.8709 11.5252 13.8536 11.5145 13.8312 11.5078C13.8107 11.5016 13.791 11.496 13.772 11.491L13.8046 11.4531ZM13.7166 11.4775L13.7174 11.4766L13.202 11.3042L13.5693 11.6489L13.5995 11.6137C13.5941 11.6033 13.5889 11.592 13.5839 11.58L13.5873 11.5787L13.5628 11.5523L13.6614 11.4669L13.6738 11.4691C13.6875 11.4715 13.7018 11.4743 13.7166 11.4775Z" fill="#E7E7E7"/>
<path fill-rule="evenodd" clip-rule="evenodd" d="M16.4712 17.2132L17.3059 15.7244L18.4768 16.0397L17.6341 17.3985H17.3059V17.5467L16.4712 17.2132Z" fill="#925229"/>
<path fill-rule="evenodd" clip-rule="evenodd" d="M16.1134 11.4886L15.5609 12.0628L15.3599 15.857L17.3507 16.1472C17.3507 16.1472 16.4832 15.3855 16.3553 14.9155C16.2274 14.4454 16.1866 12.6906 16.4285 12.4238L16.6175 12.5341L16.7695 12.0826" fill="#FFE000"/>
<path fill-rule="evenodd" clip-rule="evenodd" d="M14.189 11.7474C14.189 11.7474 13.9751 14.71 13.9751 15.2304C13.9751 15.7507 14.4168 16.9897 15.4238 16.9897C16.4308 16.9897 17.8126 16.4353 17.8126 16.2092C17.8126 15.9831 17.4001 15.8212 17.4001 15.8212C17.4001 15.8212 15.5482 15.9478 15.5482 15.2304C15.5482 14.5129 15.674 12.3892 15.7839 12.1388C15.8938 11.8884 16.2749 11.5108 16.2749 11.5108L15.5482 10.9707L15.4238 11.5108L14.9578 11.3522L14.8157 12.1388L14.189 11.7474Z" fill="#D52C1E"/>
<path fill-rule="evenodd" clip-rule="evenodd" d="M16.7765 12.0761L16.6426 12.4952L16.3721 12.381C16.3721 12.381 15.9677 14.2772 16.3721 15.0716C16.7765 15.8659 17.7948 15.9235 17.7948 15.9235L17.3646 12.4952L16.7765 12.0761Z" fill="#027934"/>
<path fill-rule="evenodd" clip-rule="evenodd" d="M16.7168 14.6382L15.7464 15.4057C15.7464 15.4057 15.4802 15.7872 15.7464 16.076C16.0125 16.3648 16.7505 16.6593 16.9246 16.3107C17.0987 15.962 17.6159 15.5537 17.6159 15.5537L16.7168 14.6382Z" fill="#E8A30C"/>
<path fill-rule="evenodd" clip-rule="evenodd" d="M17.4786 11.7425C17.7147 11.5372 17.8331 11.2868 17.7429 11.1831C17.6528 11.0794 17.3883 11.1618 17.1522 11.367C16.916 11.5723 16.7977 11.8227 16.8878 11.9264C16.9779 12.0301 17.2424 11.9478 17.4786 11.7425Z" fill="#E1E5E8"/>
<path fill-rule="evenodd" clip-rule="evenodd" d="M16.8832 10.3033C16.8832 10.3033 16.7881 10.2838 16.7451 10.2773C16.4382 10.2308 16.2847 10.2934 16.2847 10.4651C16.2847 10.7588 16.4803 11.0759 16.4803 11.2977C16.4803 11.5195 16.4898 11.8648 16.5839 11.6922C16.678 11.5195 17.1566 11.0007 17.1566 11.0007L16.8832 10.5506C16.8832 10.5506 17.562 10.6269 17.264 10.4651" fill="#D52C1E"/>
<path fill-rule="evenodd" clip-rule="evenodd" d="M18.9704 16.3782L18.4613 16.3731C18.0833 16.7468 18.0485 17.2496 18.3461 17.857C18.3461 17.857 18.4437 17.9981 18.4779 17.985C18.5258 17.9665 18.5924 17.762 18.5924 17.762C18.5697 17.1689 18.9477 16.7761 18.9704 16.3782Z" fill="#D52C1E"/>
<path fill-rule="evenodd" clip-rule="evenodd" d="M18.3256 16.3935L18.5086 16.3084C18.6891 16.6833 18.5987 17.0714 18.2506 17.4568L18.0991 17.3247C18.2506 16.8826 18.2506 16.6995 18.3256 16.3935Z" fill="#FFE000"/>
<path d="M18.0915 16.3816L18.2825 16.3257C18.3743 16.6396 18.3285 16.9634 18.1481 17.292L17.9736 17.1963C18.1296 16.9122 18.1678 16.6423 18.0915 16.3816Z" fill="#027934"/>
<path d="M22.5537 10.9591L22.5174 10.9238L15.2977 17.8685L15.3341 17.9038L22.5537 10.9591Z" fill="#864C26"/>
<path d="M14.7787 17.4173L14.8099 17.4569L23.209 11.2874L23.1778 11.2478L14.7787 17.4173Z" fill="#864C26"/>
<path d="M14.602 16.8016L14.6273 16.845L23.9702 11.7594L23.9449 11.7161L14.602 16.8016Z" fill="#A05A2C"/>
<path fill-rule="evenodd" clip-rule="evenodd" d="M23.3982 10.1122L22.6907 10.5803L22.7302 10.6073C22.7141 10.6165 22.6974 10.6265 22.6803 10.6371C22.6604 10.6494 22.6464 10.6643 22.6382 10.6814C22.6239 10.6391 22.6242 10.5878 22.6395 10.5266L22.6767 10.3776L22.5928 10.5082C22.4595 10.7158 22.4396 10.8643 22.5433 10.9484C22.6446 11.0305 22.804 11.0091 23.0194 10.8907L23.1069 10.8426L23.0071 10.8442C22.925 10.8454 22.8547 10.8357 22.7959 10.8153L22.8367 10.8044C22.8713 10.7951 22.8969 10.7709 22.9143 10.7329L22.9837 10.7803L23.3982 10.1122ZM24.2467 10.6413L23.4686 10.9794L23.5037 11.0137C23.4856 11.0202 23.4667 11.0274 23.4472 11.0352C23.4255 11.0439 23.4091 11.0561 23.3981 11.0715C23.3914 11.0275 23.4007 10.9771 23.4263 10.9196L23.4888 10.7793L23.3835 10.8934C23.2161 11.0747 23.1708 11.2175 23.2583 11.3183C23.3438 11.4167 23.5045 11.4233 23.7372 11.3442L23.8317 11.312L23.7331 11.2961C23.6519 11.2831 23.5842 11.2613 23.5297 11.2308L23.5722 11.2271C23.6085 11.2239 23.6383 11.2039 23.6622 11.1684L23.7224 11.2272L24.2467 10.6413ZM24.1954 11.4531L25 11.1841L24.4267 11.7221L24.372 11.6584C24.3449 11.6922 24.3133 11.7098 24.2765 11.7098H24.2338C24.2854 11.7449 24.351 11.7726 24.4309 11.7927L24.5277 11.8171L24.4307 11.8409C24.1921 11.8995 24.0326 11.8789 23.956 11.7734C23.8776 11.6654 23.9352 11.5271 24.1177 11.361L24.2326 11.2566L24.1581 11.3909C24.1276 11.4458 24.1139 11.4952 24.1167 11.5396C24.1291 11.5252 24.1464 11.5145 24.1688 11.5078C24.1893 11.5016 24.209 11.496 24.228 11.491L24.1954 11.4531ZM24.2834 11.4775L24.2826 11.4766L24.798 11.3042L24.4307 11.6489L24.4005 11.6137C24.4059 11.6033 24.4111 11.592 24.4161 11.58L24.4127 11.5787L24.4372 11.5523L24.3386 11.4669L24.3262 11.4691C24.3125 11.4715 24.2982 11.4743 24.2834 11.4775Z" fill="#E7E7E7"/>
<path fill-rule="evenodd" clip-rule="evenodd" d="M21.5288 17.2132L20.6941 15.7244L19.5232 16.0397L20.3659 17.3985H20.6941V17.5467L21.5288 17.2132Z" fill="#925229"/>
<path fill-rule="evenodd" clip-rule="evenodd" d="M21.8866 11.4886L22.4391 12.0628L22.6401 15.857L20.6493 16.1472C20.6493 16.1472 21.5168 15.3855 21.6447 14.9155C21.7726 14.4454 21.8134 12.6906 21.5715 12.4238L21.3825 12.5341L21.2305 12.0826" fill="#FFE000"/>
<path fill-rule="evenodd" clip-rule="evenodd" d="M23.811 11.7474C23.811 11.7474 24.0249 14.71 24.0249 15.2304C24.0249 15.7507 23.5832 16.9897 22.5762 16.9897C21.5692 16.9897 20.1874 16.4353 20.1874 16.2092C20.1874 15.9831 20.5999 15.8212 20.5999 15.8212C20.5999 15.8212 22.4518 15.9478 22.4518 15.2304C22.4518 14.5129 22.326 12.3892 22.2161 12.1388C22.1062 11.8884 21.7251 11.5108 21.7251 11.5108L22.4518 10.9707L22.5762 11.5108L23.0422 11.3522L23.1843 12.1388L23.811 11.7474Z" fill="#D52C1E"/>
<path fill-rule="evenodd" clip-rule="evenodd" d="M21.2235 12.0761L21.3574 12.4952L21.6279 12.381C21.6279 12.381 22.0323 14.2772 21.6279 15.0715C21.2235 15.8659 20.2052 15.9235 20.2052 15.9235L20.6354 12.4952L21.2235 12.0761Z" fill="#027934"/>
<path fill-rule="evenodd" clip-rule="evenodd" d="M21.2832 14.6382L22.2536 15.4057C22.2536 15.4057 22.5198 15.7872 22.2536 16.076C21.9875 16.3648 21.2495 16.6593 21.0754 16.3107C20.9013 15.962 20.3841 15.5537 20.3841 15.5537L21.2832 14.6382Z" fill="#E8A30C"/>
<path fill-rule="evenodd" clip-rule="evenodd" d="M20.5214 11.7425C20.2853 11.5372 20.1669 11.2868 20.2571 11.1831C20.3472 11.0794 20.6117 11.1617 20.8478 11.367C21.084 11.5723 21.2023 11.8227 21.1122 11.9264C21.0221 12.0301 20.7576 11.9478 20.5214 11.7425Z" fill="#E1E5E8"/>
<path fill-rule="evenodd" clip-rule="evenodd" d="M19.0296 16.3782L19.5387 16.3731C19.9167 16.7468 19.9515 17.2496 19.6539 17.857C19.6539 17.857 19.5563 17.9981 19.5221 17.985C19.4742 17.9665 19.4076 17.762 19.4076 17.762C19.4303 17.1689 19.0523 16.7761 19.0296 16.3782Z" fill="#D52C1E"/>
<path fill-rule="evenodd" clip-rule="evenodd" d="M19.6744 16.3935L19.4914 16.3084C19.3109 16.6833 19.4013 17.0714 19.7494 17.4568L19.9009 17.3247C19.7494 16.8826 19.7494 16.6995 19.6744 16.3935Z" fill="#FFE000"/>
<path d="M19.9085 16.3816L19.7175 16.3257C19.6257 16.6396 19.6715 16.9634 19.8519 17.292L20.0264 17.1963C19.8704 16.9122 19.8322 16.6423 19.9085 16.3816Z" fill="#027934"/>
<path fill-rule="evenodd" clip-rule="evenodd" d="M16.5537 13.8209C16.5537 15.2601 17.6164 16.4577 18.9743 16.4577C20.3322 16.4577 21.3949 15.2601 21.3949 13.8209C21.3949 12.3817 20.3322 11.1841 18.9743 11.1841C17.6164 11.1841 16.5537 12.3817 16.5537 13.8209ZM20.8284 13.8209C20.8284 14.9749 19.9983 15.9104 18.9743 15.9104C17.9503 15.9104 17.1202 14.9749 17.1202 13.8209C17.1202 12.6669 17.9503 11.7313 18.9743 11.7313C19.9983 11.7313 20.8284 12.6669 20.8284 13.8209Z" fill="#00A6DE"/>
<path fill-rule="evenodd" clip-rule="evenodd" d="M18.9742 15.9104C19.9982 15.9104 20.8283 14.9749 20.8283 13.8209C20.8283 12.6669 19.9982 11.7313 18.9742 11.7313C17.9502 11.7313 17.1201 12.6669 17.1201 13.8209C17.1201 14.9749 17.9502 15.9104 18.9742 15.9104Z" fill="#FFC036"/>
<mask id="mask2" mask-type="alpha" maskUnits="userSpaceOnUse" x="17" y="11" width="4" height="5">
<path fill-rule="evenodd" clip-rule="evenodd" d="M18.9742 15.9104C19.9982 15.9104 20.8283 14.9749 20.8283 13.8209C20.8283 12.6669 19.9982 11.7313 18.9742 11.7313C17.9502 11.7313 17.1201 12.6669 17.1201 13.8209C17.1201 14.9749 17.9502 15.9104 18.9742 15.9104Z" fill="white"/>
</mask>
<g mask="url(#mask2)">
<path fill-rule="evenodd" clip-rule="evenodd" d="M18.9741 13.4477L18.7335 13.9439L18.7395 13.396L18.2998 13.7422L18.5513 13.2511L17.9997 13.3787L18.4469 13.0416L17.8926 12.9254L18.4469 12.8091L17.9997 12.472L18.5513 12.5997L18.2998 12.1085L18.7395 12.4547L18.7335 11.9068L18.9741 12.403L19.2148 11.9068L19.2088 12.4547L19.6485 12.1085L19.3969 12.5997L19.9486 12.472L19.5013 12.8091L20.0557 12.9254L19.5013 13.0416L19.9486 13.3787L19.3969 13.2511L19.6485 13.7422L19.2088 13.396L19.2148 13.9439L18.9741 13.4477Z" fill="#D52C1E"/>
<path fill-rule="evenodd" clip-rule="evenodd" d="M17.0411 13.941C17.0411 13.941 18.491 12.9201 18.8472 12.9201C19.2034 12.9201 20.7229 13.9466 21.0338 14.0863C21.3446 14.2259 21.0338 16.9642 21.0338 16.9642H16.9209L17.0411 13.941Z" fill="#027934"/>
</g>
<path fill-rule="evenodd" clip-rule="evenodd" d="M17.0303 12.7258L17.1197 12.7752C17.6082 11.9507 18.2298 11.5418 18.9881 11.5418C19.837 11.5891 20.4727 12.0524 20.8971 12.9384L20.9906 12.8966C20.551 11.9789 19.8829 11.492 18.991 11.4424C18.1897 11.4423 17.536 11.8724 17.0303 12.7258ZM16.6703 14.3159L16.8368 14.204L17.0033 14.3159L16.9445 14.1283L17.1062 14.01L16.9034 14.006L16.8368 13.8209L16.7702 14.006L16.5674 14.01L16.729 14.1283L16.6703 14.3159ZM17.0428 14.9502L16.8763 15.0622L16.935 14.8746L16.7734 14.7562L16.9762 14.7522L17.0428 14.5672L17.1094 14.7522L17.3122 14.7562L17.1505 14.8746L17.2093 15.0622L17.0428 14.9502ZM17.2883 15.6592L17.4548 15.5473L17.6213 15.6592L17.5626 15.4716L17.7242 15.3533L17.5214 15.3493L17.4548 15.1642L17.3882 15.3493L17.1854 15.3533L17.347 15.4716L17.2883 15.6592ZM18.0728 16.0448L17.9063 16.1567L17.9651 15.9691L17.8034 15.8508L18.0062 15.8468L18.0728 15.6617L18.1394 15.8468L18.3422 15.8508L18.1806 15.9691L18.2393 16.1567L18.0728 16.0448ZM18.7819 16.4054L18.9484 16.2935L19.1149 16.4054L19.0561 16.2179L19.2178 16.0995L19.015 16.0955L18.9484 15.9104L18.8818 16.0955L18.679 16.0995L18.8406 16.2179L18.7819 16.4054ZM21.1115 14.204L21.278 14.3159L21.2192 14.1283L21.3809 14.01L21.1781 14.006L21.1115 13.8209L21.0449 14.006L20.8421 14.01L21.0037 14.1283L20.945 14.3159L21.1115 14.204ZM21.0719 15.0622L20.9055 14.9502L20.739 15.0622L20.7977 14.8746L20.6361 14.7562L20.8389 14.7522L20.9055 14.5672L20.972 14.7522L21.1748 14.7562L21.0132 14.8746L21.0719 15.0622ZM20.4934 15.5473L20.6599 15.6592L20.6012 15.4716L20.7628 15.3533L20.56 15.3493L20.4934 15.1642L20.4268 15.3493L20.224 15.3533L20.3857 15.4716L20.3269 15.6592L20.4934 15.5473ZM20.0419 16.1567L19.8754 16.0448L19.7089 16.1567L19.7676 15.9691L19.606 15.8508L19.8088 15.8468L19.8754 15.6617L19.942 15.8468L20.1448 15.8508L19.9832 15.9691L20.0419 16.1567Z" fill="#FFC036"/>
<path d="M17.6835 8.00699L17.8822 8.15161C17.3728 8.6087 17.277 9.11841 17.3746 9.55631C17.4762 10.0125 17.928 10.4992 18.7492 10.9989L18.4473 11.462C17.5095 10.8913 16.9694 10.3633 16.8293 9.73447C16.6852 9.08734 17.039 8.5852 17.6835 8.00699Z" fill="#036A2D"/>
<path d="M20.3863 8.00699L20.1876 8.15161C20.697 8.6087 20.7928 9.11841 20.6952 9.55631C20.5936 10.0125 20.1419 10.4992 19.3206 10.9989L19.6225 11.462C20.5604 10.8913 21.1004 10.3633 21.2405 9.73447C21.3847 9.08734 21.0308 8.5852 20.3863 8.00699Z" fill="#036A2D"/>
<path fill-rule="evenodd" clip-rule="evenodd" d="M15.7751 9.8615C15.7751 9.8615 16.6445 9.26038 17.057 9.26038C17.4696 9.26038 18.0202 9.12268 18.1065 9.43895C18.1928 9.75521 18.356 9.66362 18.6755 9.66362C18.9951 9.66362 19.6229 9.66362 19.6229 9.66362C19.6229 9.66362 19.4354 9.26038 19.783 9.26038C20.1305 9.26038 21.5819 9.46573 22.02 9.66362C22.4581 9.8615 22.4801 9.97848 22.4801 9.97848C22.4801 9.97848 22.0747 9.74452 21.6262 9.8615C21.1776 9.97848 20.3641 10.4935 19.9935 10.4935C19.6229 10.4935 19.3264 10.8917 19.3264 10.8917C19.3264 10.8917 19.3508 10.6876 19.0132 10.7896C18.6755 10.8917 18.6834 11.3724 18.395 11.2841C18.1065 11.1959 18.4781 10.4935 18.395 10.4935C18.3119 10.4935 17.7229 10.2627 17.7229 10.2627C17.7229 10.2627 17.1514 9.74452 16.3028 9.8615C15.4542 9.97848 15.7751 9.8615 15.7751 9.8615Z" fill="#452C24"/>
<path fill-rule="evenodd" clip-rule="evenodd" d="M18.871 10.2886C19.0417 10.2886 19.18 10.166 19.18 10.0149C19.18 9.8638 19.0417 9.74129 18.871 9.74129C18.7004 9.74129 18.562 9.8638 18.562 10.0149C18.562 10.166 18.7004 10.2886 18.871 10.2886Z" fill="#E7E7E7"/>
<path fill-rule="evenodd" clip-rule="evenodd" d="M18.2036 10.0072C18.2036 10.0072 18.3035 9.81821 18.5016 9.81821C18.6996 9.81821 19.071 9.81821 19.071 9.91268C19.071 10.0072 19.1008 10.1306 18.8012 10.1306C18.5016 10.1306 18.6935 10.0072 18.5016 10.0072C18.3096 10.0072 18.2036 10.0072 18.2036 10.0072Z" fill="#E8A30C"/>
<path fill-rule="evenodd" clip-rule="evenodd" d="M21.7362 11.2834C21.8513 11.1628 21.9156 10.8704 21.9156 10.8704C21.9156 10.8704 21.4015 10.9527 21.2818 10.8704C21.1621 10.7881 21.1 10.5469 21.1 10.5469C21.1 10.5469 20.6367 10.7586 20.8134 10.7586C20.9901 10.7586 21.1 10.9152 21.1 10.9152L21.4595 11.0476C21.4595 11.0476 21.2208 11.2834 21.3401 11.2834C21.4595 11.2834 21.6211 11.404 21.7362 11.2834Z" fill="#E1E5E8"/>
<path d="M20.8308 11.3838L20.7661 11.3065L21.2178 10.9529L21.2825 11.0303L20.8308 11.3838Z" fill="#925229"/>
</g>
</g>
<rect x="3" y="1" width="32" height="24" fill="url(#paint0_linear)" style="mix-blend-mode:overlay"/>
<path d="M5 2H33V0H5V2ZM34 3V23H36V3H34ZM33 24H5V26H33V24ZM4 23V3H2V23H4ZM5 24C4.44772 24 4 23.5523 4 23H2C2 24.6569 3.34315 26 5 26V24ZM34 23C34 23.5523 33.5523 24 33 24V26C34.6569 26 36 24.6569 36 23H34ZM33 2C33.5523 2 34 2.44772 34 3H36C36 1.34315 34.6569 0 33 0V2ZM5 0C3.34315 0 2 1.34314 2 3H4C4 2.44772 4.44771 2 5 2V0Z" fill="black" fill-opacity="0.1" style="mix-blend-mode:multiply"/>
</g>
<defs>
<filter id="filter0_d" x="0" y="0" width="38" height="30" filterUnits="userSpaceOnUse" color-interpolation-filters="sRGB">
<feFlood flood-opacity="0" result="BackgroundImageFix"/>
<feColorMatrix in="SourceAlpha" type="matrix" values="0 0 0 0 0 0 0 0 0 0 0 0 0 0 0 0 0 0 127 0"/>
<feOffset dy="2"/>
<feGaussianBlur stdDeviation="1.5"/>
<feColorMatrix type="matrix" values="0 0 0 0 0 0 0 0 0 0 0 0 0 0 0 0 0 0 0.1 0"/>
<feBlend mode="normal" in2="BackgroundImageFix" result="effect1_dropShadow"/>
<feBlend mode="normal" in="SourceGraphic" in2="effect1_dropShadow" result="shape"/>
</filter>
<linearGradient id="paint0_linear" x1="19" y1="1" x2="19" y2="25" gradientUnits="userSpaceOnUse">
<stop stop-color="white" stop-opacity="0.7"/>
<stop offset="1" stop-opacity="0.3"/>
</linearGradient>
</defs>
</svg>
