<svg width="100%" height="100%" id="Capa_1" enable-background="new 0 0 512 512" viewBox="0 0 512 512"
     xmlns="http://www.w3.org/2000/svg">
    <g>
        <circle cx="256" cy="256" fill="#92ccf7" r="256"/>
        <path d="m298.468 219.071-78.577-78.577-112.405 112.406 22.784 22.784-22.784 22.784 28.691 28.691-16.877 16.875 34.174 34.174-11.391 11.391 34.175 34.175-11.392 11.392 76.402 76.402c4.877.277 9.786.432 14.732.432 141.385 0 256-114.615 256-256 0-.556-.018-1.107-.021-1.662l-124.389-124.389z"
              fill="#6cb1f8"/>
        <path d="m287.491 179.869-31.491-100.692-50.272-8.345-35.768 36.287-45.551 22.829-7.666 50.362-23.39 45.249 14.133 27.34h37.974l110.54-10.075z"
              fill="#fa0"/>
        <path d="m404.514 252.899 14.133-27.34-23.39-45.249-7.666-50.362-45.551-22.829-35.768-36.287-50.272 8.345v163.647l110.54 10.075z"
              fill="#ff9500"/>
        <path d="m281.941 179.706-25.941-68c-62.879 0-113.853 50.974-113.853 113.853 0 9.426 1.153 18.581 3.313 27.34h98.04l12.5-5.311z"
              fill="#f9cd16"/>
        <path d="m366.54 252.899c2.159-8.759 3.313-17.914 3.313-27.34 0-62.879-50.974-113.853-113.853-113.853v135.882l12.5 5.311z"
              fill="#fa0"/>
        <path d="m107.486 275.683v22.783h148.514l10.176-11.391-10.176-11.392z" fill="#f9cd16"/>
        <path d="m256 275.683h148.514v22.784h-148.514z" fill="#fa0"/>
        <path d="m119.299 321.25v22.783h136.701l10.176-11.391-10.176-11.392z" fill="#f9cd16"/>
        <path d="m256 321.25h136.701v22.784h-136.701z" fill="#fa0"/>
        <path d="m142.083 366.817v22.783h113.917l10.176-11.391-10.176-11.392z" fill="#f9cd16"/>
        <path d="m256 366.817h113.917v22.784h-113.917z" fill="#fa0"/>
        <path d="m164.866 412.384v22.783h91.134l10.176-11.391-10.176-11.392z" fill="#f9cd16"/>
        <path d="m256 412.384h91.134v22.784h-91.134z" fill="#fa0"/>
        <path d="m226 207.589h17.5v45.31h12.5l3.765-37.154-3.765-58.156z" fill="#fb7c82"/>
        <path d="m268.5 207.589h17.5l-30-50v95.31h12.5z" fill="#fa455c"/>
    </g>
</svg>