<svg width="100%" height="100%" id="Capa_1" enable-background="new 0 0 512 512" viewBox="0 0 512 512"
     xmlns="http://www.w3.org/2000/svg" aria-label="Luna">
    <g>
        <circle cx="256" cy="256" fill="#7883ee" r="256"/>
        <path d="m271.113 511.544c117.362-6.834 213.492-92.719 235.925-205.2l-244.158-244.158-144.464 144.465 96.484 96.484-76.098 76.098z"
              fill="#4652ca"/>
        <path d="m262.88 62.186c-29.128 1.155-58.411 9.185-85.409 24.773-88.896 51.324-119.354 164.995-68.03 253.892l76.763-16.781 51.557-57.304c-39.096-67.717-26.667-151.04 25.119-204.58z"
              fill="#f9cd16"/>
        <path d="m363.332 408.881c26.998-15.587 48.595-36.932 64.158-61.58-72.259 18.078-150.634-12.819-189.73-80.535l-128.32 74.086c51.325 88.895 164.996 119.353 253.892 68.029z"
              fill="#fa0"/>
    </g>
</svg>