<svg width="60" height="60" viewBox="0 0 200 200" fill="none" xmlns="http://www.w3.org/2000/svg">
<g clip-path="url(#clip0_612_1753)">
<g clip-path="url(#clip1_612_1753)">
<path d="M19 198.01H59.665V177.437H19V198.01Z" fill="#63A4FF"/>
<path d="M59.665 198.01H100.33V177.437H59.665V198.01Z" fill="#1976D2"/>
<path d="M100.33 198.01H140.995V177.437H100.33V198.01Z" fill="#004BA0"/>
<path d="M140.995 198.01H181.66V177.437H140.995V198.01Z" fill="#63A4FF"/>
<path d="M19 177.437H39.3325V156.864H19V177.437Z" fill="#1976D2"/>
<path d="M161.328 177.437H181.66V156.864H161.328V177.437Z" fill="#004BA0"/>
<path d="M39.3325 177.437H79.9975V156.864H39.3325V177.437Z" fill="#004BA0"/>
<path d="M79.9975 177.437H120.663V156.864H79.9975V177.437Z" fill="#63A4FF"/>
<path d="M120.663 177.437H161.327V156.864H120.663V177.437Z" fill="#1976D2"/>
<path d="M19 156.864H59.665V136.291H19V156.864Z" fill="#63A4FF"/>
<path d="M59.665 156.864H100.33V136.291H59.665V156.864Z" fill="#1976D2"/>
<path d="M100.33 156.864H140.995V136.291H100.33V156.864Z" fill="#004BA0"/>
<path d="M140.995 156.864H181.66V136.291H140.995V156.864Z" fill="#63A4FF"/>
<path d="M19 136.291H39.3325V115.718H19V136.291Z" fill="#1976D2"/>
<path d="M161.328 136.291H181.66V115.718H161.328V136.291Z" fill="#004BA0"/>
<path d="M39.3325 136.291H79.9975V115.718H39.3325V136.291Z" fill="#004BA0"/>
<path d="M79.9975 136.291H120.663V115.718H79.9975V136.291Z" fill="#63A4FF"/>
<path d="M120.663 136.291H161.327V115.718H120.663V136.291Z" fill="#1976D2"/>
<path d="M19 115.719H59.665V95.1458H19V115.719Z" fill="#63A4FF"/>
<path d="M59.665 115.719H100.33V95.1458H59.665V115.719Z" fill="#1976D2"/>
<path d="M100.33 115.719H140.995V95.1458H100.33V115.719Z" fill="#004BA0"/>
<path d="M140.995 115.719H181.66V95.1458H140.995V115.719Z" fill="#63A4FF"/>
<path d="M19 95.1458H39.3325V74.5729H19V95.1458Z" fill="#1976D2"/>
<path d="M161.328 95.1458H181.66V74.5729H161.328V95.1458Z" fill="#004BA0"/>
<path d="M39.3325 95.1458H79.9975V74.5729H39.3325V95.1458Z" fill="#004BA0"/>
<path d="M79.9975 95.1458H120.663V74.5729H79.9975V95.1458Z" fill="#63A4FF"/>
<path d="M120.663 95.1458H161.327V74.5729H120.663V95.1458Z" fill="#1976D2"/>
<path d="M19 74.5729H59.665V54H19V74.5729Z" fill="#63A4FF"/>
<path d="M59.665 74.5729H100.33V54H59.665V74.5729Z" fill="#1976D2"/>
<path d="M100.33 74.5729H140.995V54H100.33V74.5729Z" fill="#004BA0"/>
<path d="M140.995 74.5729H181.66V54H140.995V74.5729Z" fill="#63A4FF"/>
</g>
<path d="M18.6703 53.0179V67.2351H181.327V53.0179" fill="#004BA0"/>
<path d="M197.029 35.1562H2.96915V58.6297H197.029V35.1562Z" fill="#4E555E"/>
<path d="M115.445 112.384H35.8414V120.7H115.445V112.384Z" fill="#D6D6D6"/>
<path d="M67.8574 74.7605H35.8414V93.7703H67.8574V74.7605Z" fill="#A9E5ED"/>
<path d="M116.008 74.7605H83.9922V93.7703H116.008V74.7605Z" fill="#A9E5ED"/>
<path d="M116.007 74.7601V93.7699H83.9906V87.6988C101.611 87.6988 109.67 82.4156 109.67 74.7601H116.007Z" fill="#93D3D8"/>
<path d="M67.8563 74.7601V93.7699H35.8402V87.6988C53.4602 87.6988 61.5195 82.4156 61.5195 74.7601H67.8563Z" fill="#93D3D8"/>
<path d="M164.159 74.7605H132.143V93.7703H164.159V74.7605Z" fill="#A9E5ED"/>
<path d="M164.159 74.7601V93.7699H132.143V87.6988C149.763 87.6988 157.822 82.4156 157.822 74.7601H164.159Z" fill="#93D3D8"/>
<path d="M100 63.2789C116.654 63.2789 130.154 49.7784 130.154 33.1246C130.154 16.4709 116.654 2.97034 100 2.97034C83.3462 2.97034 69.8457 16.4709 69.8457 33.1246C69.8457 49.7784 83.3462 63.2789 100 63.2789Z" fill="#EAEAEA"/>
<path d="M181.327 65.5602C179.687 65.5602 178.357 66.8903 178.357 68.5305V83.4731C178.357 85.1133 179.687 86.4434 181.327 86.4434C182.968 86.4434 184.298 85.1133 184.298 83.4731V68.5305C184.298 66.8895 182.968 65.5602 181.327 65.5602Z" fill="black"/>
<path d="M181.327 90.4043C179.687 90.4043 178.357 91.7344 178.357 93.3746V194.059H118.415V112.385C118.415 110.745 117.086 109.414 115.445 109.414H35.8414C34.2008 109.414 32.8711 110.745 32.8711 112.385V194.059H21.6406V68.5305C21.6406 66.8903 20.3109 65.5602 18.6703 65.5602C17.0297 65.5602 15.7 66.8903 15.7 68.5305V197.03C15.7 198.67 17.0297 200 18.6703 200H35.8414H115.445H181.327C182.968 200 184.298 198.67 184.298 197.03V93.3746C184.298 91.734 182.968 90.4043 181.327 90.4043ZM112.475 143.273H60.7914C59.1508 143.273 57.8211 144.603 57.8211 146.243C57.8211 147.883 59.1508 149.213 60.7914 149.213H112.475V160.202H38.8117V149.213H50.8894C52.5301 149.213 53.8598 147.883 53.8598 146.243C53.8598 144.603 52.5301 143.273 50.8894 143.273H38.8117V132.284H112.474L112.475 143.273ZM38.8117 166.142H112.474V177.131H38.8117V166.142ZM112.475 115.355V126.344H38.8117V115.355H112.475ZM38.8117 194.059V183.071H112.474V194.059H38.8117Z" fill="black"/>
<path d="M197.03 32.1859H138.364C136.724 32.1859 135.394 33.516 135.394 35.1562C135.394 36.7965 136.724 38.1265 138.364 38.1265H194.059V55.6594H128.725C127.084 55.6594 125.754 56.9894 125.754 58.6297C125.754 60.2699 127.084 61.6 128.725 61.6H197.03C198.67 61.6 200 60.2699 200 58.6297V35.1558C200 33.5156 198.67 32.1859 197.03 32.1859Z" fill="black"/>
<path d="M74.2414 58.6293C74.2414 56.9891 72.9117 55.659 71.2711 55.659H5.94063V38.1262H61.6356C63.2762 38.1262 64.6059 36.7961 64.6059 35.1559C64.6059 33.5156 63.2762 32.1855 61.6356 32.1855H2.97031C1.32969 32.1859 0 33.5156 0 35.1559V58.6293C0 60.2695 1.32969 61.5996 2.97031 61.5996H71.2715C72.9121 61.5996 74.2414 60.2695 74.2414 58.6293Z" fill="black"/>
<path d="M35.8402 71.7898C34.1996 71.7898 32.8699 73.1199 32.8699 74.7601V93.7699C32.8699 95.4101 34.1996 96.7402 35.8402 96.7402H67.8562C69.4969 96.7402 70.8266 95.4101 70.8266 93.7699V74.7601C70.8266 73.1199 69.4969 71.7898 67.8562 71.7898H35.8402ZM64.8859 90.7996H38.8105V77.7304H64.8859V90.7996Z" fill="black"/>
<path d="M83.991 71.7898C82.3504 71.7898 81.0207 73.1199 81.0207 74.7601V93.7699C81.0207 95.4101 82.3504 96.7402 83.991 96.7402H116.007C117.648 96.7402 118.977 95.4101 118.977 93.7699V74.7601C118.977 73.1199 117.648 71.7898 116.007 71.7898H83.991ZM113.036 90.7996H86.9609V77.7304H113.036V90.7996Z" fill="black"/>
<path d="M132.141 96.7402H164.157C165.798 96.7402 167.128 95.4101 167.128 93.7699V74.7601C167.128 73.1199 165.798 71.7898 164.157 71.7898H132.141C130.501 71.7898 129.171 73.1199 129.171 74.7601V93.7699C129.171 95.4101 130.501 96.7402 132.141 96.7402ZM135.112 77.7304H161.187V90.7996H135.112V77.7304Z" fill="black"/>
<path d="M99.9988 66.2453C118.262 66.2453 133.121 51.3867 133.121 33.1227C133.121 14.8586 118.262 0 99.9988 0C81.7351 0 66.8762 14.8586 66.8762 33.1227C66.8762 51.3867 81.7351 66.2453 99.9988 66.2453ZM99.9988 5.94062C114.987 5.94062 127.181 18.1344 127.181 33.1227C127.181 48.1109 114.987 60.3047 99.9988 60.3047C85.0105 60.3047 72.8168 48.1109 72.8168 33.1227C72.8168 18.1344 85.0101 5.94062 99.9988 5.94062Z" fill="black"/>
<path d="M37.3414 112.884H113.945V194.53H37.3414V112.884Z" fill="#A9E5ED" stroke="black" stroke-width="3"/>
<path d="M112 115V193H39V180.177C113.489 180.177 99.357 137.205 99.357 115H112Z" fill="#93D3D8"/>
<line x1="77" y1="112" x2="77" y2="197" stroke="black" stroke-width="6"/>
<line x1="65" y1="143" x2="65" y2="162" stroke="black" stroke-width="4"/>
<line x1="89" y1="143" x2="89" y2="162" stroke="black" stroke-width="4"/>
<g clip-path="url(#clip2_612_1753)">
<path d="M100.109 22.553C100.638 22.553 101.14 22.6671 101.593 22.8705C101.597 22.8267 101.6 22.7826 101.6 22.7377V18.2743C101.6 17.4506 100.932 16.7828 100.109 16.7828C99.2849 16.7828 98.6171 17.4506 98.6171 18.2743V22.7377C98.6171 22.7826 98.6199 22.8267 98.6238 22.8705C99.0772 22.667 99.5794 22.553 100.109 22.553Z" fill="#E0E0E0"/>
<path d="M96.477 26.1845V26.9674H103.74V26.1845C103.74 24.7079 102.858 23.4382 101.593 22.8704C101.14 22.667 100.638 22.5529 100.109 22.5529C99.5794 22.5529 99.0773 22.667 98.6238 22.8704C97.3586 23.4381 96.477 24.7079 96.477 26.1845Z" fill="#FFC766"/>
<path d="M110.484 31.6859C110.57 31.8496 110.654 32.0139 110.735 32.1792C110.654 32.0139 110.57 31.8496 110.484 31.6859Z" fill="#1976D2"/>
<path d="M112.089 35.7124C112.139 35.8879 112.187 36.0637 112.232 36.2401C112.187 36.0637 112.139 35.8879 112.089 35.7124Z" fill="#1976D2"/>
<path d="M87.446 39.244C87.4657 39.0573 87.4878 38.8708 87.5125 38.6846C87.4877 38.8708 87.4657 39.0573 87.446 39.244Z" fill="#1976D2"/>
<path d="M87.5154 38.6614C87.5402 38.4767 87.5679 38.2921 87.5976 38.1079C87.5679 38.2922 87.5401 38.4767 87.5154 38.6614Z" fill="#1976D2"/>
<path d="M109.839 30.5397C109.938 30.7045 110.035 30.8706 110.13 31.0375C110.035 30.8707 109.938 30.7045 109.839 30.5397C109.525 30.0219 108.964 29.7057 108.359 29.7057C108.964 29.7057 109.525 30.0219 109.839 30.5397Z" fill="#1976D2"/>
<path d="M111.015 32.7738C111.092 32.9428 111.165 33.1127 111.237 33.2832C111.165 33.1127 111.092 32.9428 111.015 32.7738Z" fill="#1976D2"/>
<path d="M108.034 45.0227H92.1833C89.4047 45.0227 87.1912 42.6728 87.3869 39.9042C87.0691 44.1976 88.0658 48.5666 90.3786 52.3849C90.6922 52.9026 91.2534 53.2189 91.8587 53.2189H108.358C108.964 53.2189 109.525 52.9026 109.839 52.3849C112.151 48.5667 113.148 44.1977 112.83 39.9043C113.026 42.6729 110.812 45.0227 108.034 45.0227Z" fill="#1976D2"/>
<path d="M87.6104 38.0278C87.64 37.8487 87.6718 37.6698 87.706 37.4913C87.6718 37.6698 87.64 37.8487 87.6104 38.0278Z" fill="#1976D2"/>
<path d="M87.7215 37.4125C87.7574 37.2288 87.7952 37.0453 87.8361 36.8623C87.7953 37.0453 87.7574 37.2288 87.7215 37.4125Z" fill="#1976D2"/>
<path d="M111.274 33.3719C111.344 33.5392 111.411 33.7072 111.476 33.8758C111.411 33.7072 111.344 33.5392 111.274 33.3719Z" fill="#1976D2"/>
<path d="M112.62 38.1079C112.649 38.2921 112.677 38.4767 112.702 38.6614C112.677 38.4767 112.649 38.2921 112.62 38.1079Z" fill="#1976D2"/>
<path d="M112.776 39.2887C112.795 39.4729 112.811 39.6574 112.826 39.842C112.811 39.6574 112.795 39.473 112.776 39.2887Z" fill="#1976D2"/>
<path d="M111.508 33.96C111.575 34.135 111.64 34.3105 111.702 34.4868C111.64 34.3105 111.575 34.135 111.508 33.96Z" fill="#1976D2"/>
<path d="M112.705 38.6846C112.729 38.8709 112.751 39.0575 112.771 39.2443C112.751 39.0575 112.729 38.871 112.705 38.6846Z" fill="#1976D2"/>
<path d="M87.3915 39.8419C87.4058 39.6574 87.422 39.473 87.4411 39.2888C87.422 39.473 87.4058 39.6574 87.3915 39.8419Z" fill="#1976D2"/>
<path d="M110.174 31.1138C110.264 31.2735 110.351 31.4343 110.437 31.5958C110.351 31.4343 110.264 31.2736 110.174 31.1138Z" fill="#1976D2"/>
<path d="M111.906 35.1C111.961 35.2736 112.013 35.4479 112.064 35.6226C112.013 35.4479 111.961 35.2736 111.906 35.1Z" fill="#1976D2"/>
<path d="M111.707 34.5034C111.769 34.6791 111.827 34.8555 111.884 35.0324C111.827 34.8555 111.769 34.6791 111.707 34.5034Z" fill="#1976D2"/>
<path d="M110.763 32.2368C110.842 32.4007 110.92 32.5654 110.995 32.7309C110.92 32.5654 110.842 32.4007 110.763 32.2368Z" fill="#1976D2"/>
<path d="M112.248 36.3032C112.293 36.4845 112.337 36.6663 112.378 36.8485C112.337 36.6663 112.293 36.4845 112.248 36.3032Z" fill="#1976D2"/>
<path d="M88.1537 35.6221C88.2039 35.4479 88.2561 35.2741 88.3109 35.101C88.2562 35.2741 88.2039 35.4479 88.1537 35.6221Z" fill="#1976D2"/>
<path d="M88.3336 35.0309C88.3898 34.8552 88.4481 34.6799 88.5091 34.5054C88.448 34.6798 88.3898 34.8551 88.3336 35.0309Z" fill="#1976D2"/>
<path d="M89.483 32.1778C89.5635 32.0138 89.6466 31.8508 89.7316 31.6885C89.6467 31.8508 89.5635 32.0139 89.483 32.1778Z" fill="#1976D2"/>
<path d="M88.7411 33.8751C88.8058 33.7072 88.8729 33.5399 88.9422 33.3733C88.8729 33.5399 88.8058 33.7072 88.7411 33.8751Z" fill="#1976D2"/>
<path d="M88.9807 33.2816C89.0521 33.1121 89.1253 32.9432 89.2013 32.7753C89.1253 32.9432 89.0521 33.1121 88.9807 33.2816Z" fill="#1976D2"/>
<path d="M112.511 37.4912C112.545 37.6698 112.577 37.8487 112.607 38.0279C112.577 37.8487 112.545 37.6698 112.511 37.4912Z" fill="#1976D2"/>
<path d="M89.2234 32.7271C89.2977 32.564 89.3743 32.4017 89.453 32.2401C89.3743 32.4017 89.2977 32.564 89.2234 32.7271Z" fill="#1976D2"/>
<path d="M112.381 36.8619C112.422 37.0451 112.46 37.2288 112.496 37.4129C112.46 37.2288 112.422 37.0451 112.381 36.8619Z" fill="#1976D2"/>
<path d="M89.7815 31.5937C89.8663 31.4337 89.9532 31.2743 90.0424 31.1158C89.9532 31.2743 89.8663 31.4336 89.7815 31.5937Z" fill="#1976D2"/>
<path d="M87.9854 36.2396C88.0304 36.0636 88.078 35.8881 88.1277 35.713C88.0781 35.8882 88.0304 36.0636 87.9854 36.2396Z" fill="#1976D2"/>
<path d="M87.8396 36.8474C87.8803 36.6659 87.9239 36.4848 87.9694 36.3041C87.9239 36.4848 87.8803 36.6658 87.8396 36.8474Z" fill="#1976D2"/>
<path d="M88.5156 34.4862C88.5772 34.3104 88.6419 34.1355 88.7083 33.9611C88.6419 34.1355 88.5772 34.3104 88.5156 34.4862Z" fill="#1976D2"/>
<path d="M90.0891 31.0341C90.1828 30.8695 90.2783 30.7055 90.3767 30.5428C90.2782 30.7055 90.1828 30.8695 90.0891 31.0341Z" fill="#1976D2"/>
<path d="M91.8587 29.7056C91.2534 29.7056 90.6921 30.0219 90.3785 30.5396C90.3779 30.5406 90.3773 30.5417 90.3767 30.5428C90.2782 30.7054 90.1828 30.8694 90.0892 31.034C90.0736 31.0613 90.0579 31.0885 90.0424 31.1158C89.9532 31.2742 89.8664 31.4335 89.7815 31.5937C89.7648 31.6252 89.7482 31.6568 89.7317 31.6884C89.6467 31.8508 89.5636 32.0138 89.4832 32.1777C89.473 32.1984 89.4632 32.2193 89.4531 32.2401C89.3744 32.4017 89.2978 32.5641 89.2235 32.7271C89.2162 32.7431 89.2086 32.7591 89.2014 32.7752C89.1253 32.9431 89.0522 33.112 88.9808 33.2815C88.9679 33.312 88.955 33.3427 88.9423 33.3733C88.8731 33.5399 88.806 33.7071 88.7412 33.8751C88.7301 33.9038 88.7194 33.9324 88.7085 33.9611C88.6421 34.1356 88.5774 34.3105 88.5157 34.4863C88.5135 34.4926 88.5114 34.499 88.5092 34.5053C88.4482 34.6798 88.39 34.8552 88.3337 35.0309C88.3262 35.0542 88.3185 35.0775 88.311 35.1009C88.2563 35.2741 88.204 35.4478 88.1538 35.622C88.145 35.6523 88.1364 35.6827 88.1278 35.713C88.0782 35.8881 88.0305 36.0637 87.9855 36.2397C87.98 36.2611 87.9749 36.2827 87.9694 36.3041C87.9239 36.4848 87.8803 36.6659 87.8396 36.8474C87.8385 36.8524 87.8372 36.8573 87.8361 36.8623C87.7953 37.0452 87.7575 37.2287 87.7215 37.4125C87.7164 37.4388 87.711 37.4651 87.706 37.4913C87.6718 37.6698 87.64 37.8487 87.6105 38.0278C87.6061 38.0545 87.6019 38.0812 87.5976 38.1079C87.5679 38.2921 87.5403 38.4765 87.5155 38.6614C87.5145 38.669 87.5136 38.6768 87.5126 38.6844C87.4879 38.8707 87.4658 39.0572 87.4461 39.2439C87.4446 39.2588 87.4428 39.2738 87.4412 39.2887C87.4221 39.473 87.4059 39.6573 87.3917 39.8419C87.3906 39.8557 87.389 39.8695 87.388 39.8833C87.3875 39.8903 87.3875 39.8971 87.387 39.904C87.1913 42.6728 89.4049 45.0225 92.1835 45.0225H108.034C110.813 45.0225 113.026 42.6728 112.83 39.904C112.83 39.8971 112.83 39.8903 112.829 39.8833C112.828 39.8695 112.827 39.8557 112.826 39.8419C112.811 39.6572 112.795 39.4728 112.776 39.2886C112.775 39.2738 112.773 39.259 112.771 39.2442C112.752 39.0574 112.73 38.8708 112.705 38.6844C112.704 38.6767 112.703 38.669 112.702 38.6613C112.677 38.4765 112.649 38.292 112.62 38.1078C112.615 38.0812 112.611 38.0545 112.607 38.0279C112.577 37.8487 112.545 37.6697 112.511 37.4912C112.506 37.4651 112.501 37.439 112.496 37.4129C112.46 37.2289 112.422 37.0451 112.381 36.8619C112.38 36.8574 112.379 36.853 112.378 36.8484C112.337 36.6662 112.293 36.4844 112.248 36.3031C112.242 36.2821 112.237 36.2611 112.232 36.2401C112.187 36.0637 112.139 35.8878 112.089 35.7123C112.081 35.6824 112.072 35.6526 112.064 35.6227C112.014 35.448 111.961 35.2737 111.906 35.1C111.899 35.0774 111.892 35.0548 111.884 35.0323C111.828 34.8554 111.769 34.679 111.708 34.5033C111.706 34.4977 111.704 34.4922 111.702 34.4866C111.64 34.3103 111.575 34.1348 111.509 33.9598C111.498 33.9317 111.487 33.9037 111.477 33.8757C111.412 33.7071 111.344 33.5391 111.275 33.3719C111.262 33.3422 111.25 33.3127 111.237 33.2831C111.166 33.1126 111.092 32.9427 111.015 32.7737C111.009 32.7593 111.002 32.745 110.996 32.7307C110.92 32.5652 110.843 32.4006 110.763 32.2367C110.754 32.2175 110.744 32.1982 110.735 32.1791C110.654 32.0138 110.57 31.8495 110.484 31.6858C110.469 31.6557 110.453 31.6257 110.437 31.5957C110.352 31.4342 110.264 31.2735 110.174 31.1137C110.16 31.0882 110.145 31.0628 110.13 31.0374C110.035 30.8706 109.939 30.7044 109.839 30.5395C109.525 30.0218 108.964 29.7056 108.359 29.7056H107.712H92.5058H91.8587V29.7056Z" fill="#ECEFF0"/>
<path d="M93.3937 26.9674C92.9033 26.9674 92.5058 27.3649 92.5058 27.8553V29.7057H107.711V27.8553C107.711 27.3649 107.314 26.9674 106.823 26.9674H103.74H96.477H93.3937Z" fill="#1976D2"/>
<path d="M115.328 15.529C115.741 15.4039 115.974 14.9676 115.849 14.5547C115.724 14.1418 115.288 13.9088 114.875 14.0337L102.338 17.834C102.132 16.7909 101.211 16.0015 100.109 16.0015C98.8553 16.0015 97.8358 17.021 97.8358 18.2742V19.1988L84.6718 23.1893C84.259 23.3145 84.0257 23.7507 84.1508 24.1636C84.2532 24.501 84.563 24.7184 84.8982 24.7184C84.9732 24.7184 85.0496 24.7076 85.1251 24.6846L97.8359 20.8315V22.4034C96.5545 23.1766 95.6956 24.582 95.6956 26.1845V26.1862H93.3937C92.4733 26.1862 91.7246 26.9349 91.7246 27.8553V28.9288C91.7149 28.9294 91.7053 28.9291 91.6956 28.9298C90.8843 28.9834 90.1343 29.4348 89.7102 30.1349C89.6503 30.2338 89.5914 30.3333 89.5331 30.433C89.5089 30.4744 89.4852 30.5162 89.4613 30.5578C89.4292 30.6137 89.397 30.6696 89.3653 30.7258C89.3328 30.7834 89.3008 30.8414 89.2689 30.8994C89.2485 30.9364 89.228 30.9734 89.2078 31.0106C89.1688 31.0826 89.13 31.1547 89.0917 31.2271C89.0825 31.2444 89.0733 31.2619 89.0642 31.2792C87.7756 33.7274 86.9646 36.3949 86.6715 39.1398C86.6697 39.1565 86.6677 39.1732 86.6659 39.1899C86.6593 39.2524 86.6536 39.3149 86.6476 39.3775C86.6424 39.4323 86.637 39.4871 86.6321 39.5418C86.6271 39.5996 86.6225 39.6574 86.6179 39.7153C86.6149 39.7519 86.6115 39.7884 86.6088 39.8249C86.6082 39.8323 86.6082 39.8395 86.6077 39.8468C86.568 40.3832 86.5473 40.922 86.5473 41.4622C86.5473 45.4563 87.6411 49.3733 89.7103 52.7895C90.1625 53.5361 90.9857 54 91.8586 54H100.109H108.359C109.232 54 110.055 53.5361 110.507 52.7895C112.576 49.3732 113.67 45.4563 113.67 41.4622C113.67 40.9231 113.649 40.3856 113.61 39.8504C113.609 39.8419 113.609 39.8335 113.608 39.8249C113.605 39.7826 113.601 39.7403 113.598 39.6981C113.594 39.6486 113.59 39.5991 113.586 39.5496C113.58 39.4833 113.573 39.417 113.567 39.3506C113.562 39.2992 113.557 39.2478 113.552 39.1964C113.547 39.1524 113.542 39.1085 113.537 39.0644C113.237 36.3474 112.43 33.7075 111.155 31.2827C111.144 31.2632 111.134 31.2437 111.124 31.2242C111.087 31.1534 111.049 31.0829 111.01 31.0126C110.989 30.9737 110.968 30.9347 110.946 30.8959C110.915 30.8395 110.884 30.7833 110.853 30.7272C110.82 30.6693 110.787 30.6116 110.754 30.554C110.731 30.5139 110.708 30.4737 110.684 30.4337C110.626 30.3337 110.567 30.234 110.507 30.1349C110.078 29.4266 109.315 28.9737 108.493 28.9289V27.8554C108.493 26.935 107.744 26.1862 106.823 26.1862H104.521V26.1846C104.521 24.5821 103.663 23.1766 102.381 22.4035V19.4536L115.328 15.529ZM91.0468 51.9801C89.5814 49.5608 88.6628 46.9226 88.2903 44.2291C89.33 45.2332 90.7319 45.8039 92.1833 45.8039H99.3273V52.4375H91.8586C91.5288 52.4375 91.2177 52.2622 91.0468 51.9801ZM109.17 51.9801C108.999 52.2622 108.688 52.4375 108.358 52.4375H100.89V45.8038H108.034C109.485 45.8038 110.887 45.2331 111.927 44.229C111.554 46.9227 110.636 49.5608 109.17 51.9801ZM108.358 30.4869C108.688 30.4869 108.999 30.6622 109.17 30.9444C109.226 31.0364 109.281 31.1289 109.335 31.2215C109.362 31.2684 109.389 31.3156 109.416 31.3628C109.44 31.4044 109.464 31.446 109.488 31.4877C109.527 31.5568 109.565 31.626 109.603 31.6955C109.61 31.7084 109.617 31.7213 109.624 31.7342C111 34.2579 111.835 37.0768 112.05 39.9418C112.134 41.0574 111.759 42.1256 110.994 42.9496C110.233 43.7706 109.153 44.2414 108.034 44.2414H100.109H92.1833C91.0636 44.2414 89.9845 43.7706 89.2228 42.9495C88.4582 42.1256 88.0832 41.0574 88.1668 39.9418C88.3817 37.0764 89.2171 34.2574 90.5931 31.7334C90.5999 31.7211 90.6066 31.7089 90.6134 31.6966C90.6517 31.6266 90.6905 31.5569 90.7297 31.4874C90.7531 31.446 90.7767 31.4047 90.8005 31.3635C90.8276 31.3161 90.8546 31.2687 90.8821 31.2216C90.9364 31.129 90.991 31.0365 91.0468 30.9444C91.2178 30.6622 91.5288 30.487 91.8587 30.487H92.5058H107.711H108.358V30.4869ZM106.823 27.7486C106.882 27.7486 106.93 27.7964 106.93 27.8552V28.9244H93.287V27.8552C93.287 27.7964 93.3348 27.7486 93.3936 27.7486H96.4769H103.74H106.823ZM102.959 26.1845V26.1862H97.2581V26.1845C97.2581 25.3261 97.6401 24.5557 98.2424 24.0327C98.6602 23.6699 99.1839 23.4266 99.7605 23.3561C99.8747 23.3421 99.9906 23.3341 100.109 23.3341C100.226 23.3341 100.342 23.3421 100.456 23.3561C101.033 23.4266 101.557 23.6699 101.975 24.0327C102.577 24.5556 102.959 25.3261 102.959 26.1845ZM100.109 21.7717C99.8668 21.7717 99.6298 21.792 99.3984 21.8296V20.3579V18.7252V18.2742C99.3984 17.8826 99.7169 17.564 100.109 17.564C100.5 17.564 100.819 17.8826 100.819 18.2742V18.2946V19.9273V21.8295C100.587 21.792 100.35 21.7717 100.109 21.7717Z" fill="black"/>
<path d="M95.5387 40.499C95.6768 40.5983 95.8363 40.6461 95.9942 40.6461C96.237 40.6461 96.4765 40.5333 96.6291 40.3211L98.9755 37.0594C99.2275 36.7091 99.1478 36.2209 98.7976 35.9689C98.4473 35.7169 97.9592 35.7966 97.7071 36.1469L95.3607 39.4086C95.1088 39.7588 95.1884 40.247 95.5387 40.499Z" fill="black"/>
<path d="M99.6001 34.1484C99.6197 34.1961 99.6439 34.2414 99.672 34.2836C99.7009 34.3266 99.7337 34.3664 99.7697 34.4023C99.8056 34.4383 99.8455 34.4711 99.8884 34.4992C99.9306 34.5273 99.9759 34.5516 100.023 34.5711C100.07 34.5906 100.12 34.6055 100.169 34.6156C100.22 34.6258 100.271 34.6312 100.322 34.6312C100.528 34.6312 100.729 34.5477 100.874 34.4023C100.91 34.3664 100.943 34.3266 100.971 34.2836C100.999 34.2414 101.024 34.1961 101.043 34.1484C101.063 34.1016 101.077 34.0523 101.088 34.0023C101.098 33.9523 101.103 33.9008 101.103 33.85C101.103 33.7992 101.098 33.7477 101.088 33.6969C101.077 33.6477 101.063 33.5984 101.043 33.5508C101.024 33.5039 100.999 33.4586 100.971 33.4164C100.943 33.3734 100.91 33.3336 100.874 33.2977C100.838 33.2617 100.799 33.2289 100.756 33.2C100.713 33.1719 100.668 33.1477 100.62 33.1281C100.574 33.1086 100.524 33.0937 100.474 33.0836C100.374 33.0633 100.271 33.0633 100.169 33.0836C100.12 33.0937 100.07 33.1086 100.023 33.1281C99.9759 33.1477 99.9306 33.1719 99.8884 33.2C99.8455 33.2289 99.8056 33.2617 99.7697 33.2977C99.7337 33.3336 99.7009 33.3734 99.672 33.4164C99.6439 33.4586 99.6197 33.5039 99.6001 33.5508C99.5806 33.5984 99.5658 33.6477 99.5556 33.6969C99.5455 33.7477 99.5408 33.7992 99.5408 33.85C99.5408 33.9008 99.5455 33.9523 99.5556 34.0023C99.5658 34.0523 99.5806 34.1016 99.6001 34.1484Z" fill="black"/>
<path d="M100.531 41.8249C100.669 41.9242 100.829 41.972 100.987 41.972C101.23 41.972 101.469 41.8591 101.622 41.6469L107.127 33.9938C107.379 33.6436 107.3 33.1554 106.949 32.9034C106.599 32.6513 106.111 32.7311 105.859 33.0813L100.353 40.7344C100.101 41.0847 100.181 41.5729 100.531 41.8249Z" fill="black"/>
</g>
</g>
<defs>
<clipPath id="clip0_612_1753">
<rect width="200" height="200" fill="white"/>
</clipPath>
<clipPath id="clip1_612_1753">
<rect width="162.66" height="144.01" fill="white" transform="translate(19 54)"/>
</clipPath>
<clipPath id="clip2_612_1753">
<rect width="40" height="40" fill="white" transform="translate(80 14)"/>
</clipPath>
</defs>
</svg>
