<?xml version="1.0" encoding="utf-8"?>
<svg width="100%" height="100%" version="1.1" id="Capa_1" x="0px" y="0px" viewBox="0 0 512.002 512.002"
     style="enable-background:new 0 0 512.002 512.002;" xmlns="http://www.w3.org/2000/svg" fill="white">
    <g>
        <g>
            <path d="M 286.481 69.807 L 285.928 49.076 C 283.296 35.724 271.503 25.62 257.39 25.62 C 241.349 25.62 228.299 38.67 228.299 54.711 L 228.299 66.545 L 228.3 87.444 L 228.3 107.565 C 211.898 117.461 200.905 135.451 200.905 155.963 L 200.905 155.984 L 171.44 155.984 C 159.659 155.984 150.075 165.568 150.075 177.349 L 150.075 191.09 C 149.952 191.097 149.828 191.094 149.705 191.102 C 139.32 191.789 129.72 197.567 124.291 206.528 C 123.524 207.794 122.77 209.067 122.024 210.344 C 121.714 210.874 121.411 211.408 121.105 211.941 C 120.694 212.657 120.282 213.372 119.877 214.091 C 119.461 214.829 119.051 215.571 118.642 216.313 C 118.381 216.787 118.119 217.261 117.861 217.737 C 117.361 218.658 116.864 219.582 116.374 220.508 C 116.257 220.73 116.139 220.953 116.022 221.175 C 99.528 252.512 89.148 286.656 85.396 321.791 C 85.373 322.005 85.347 322.219 85.324 322.433 C 85.24 323.233 85.167 324.033 85.09 324.834 C 85.023 325.535 84.954 326.236 84.892 326.937 C 84.827 327.677 84.768 328.417 84.709 329.158 C 84.671 329.626 84.628 330.093 84.593 330.561 C 84.586 330.655 84.586 330.747 84.579 330.841 C 84.071 337.707 83.806 344.603 83.806 351.518 C 83.806 402.643 97.806 452.78 124.292 496.508 C 130.081 506.065 140.618 512.002 151.791 512.002 L 257.391 512.002 L 362.991 512.002 C 374.165 512.002 384.701 506.065 390.49 496.508 C 416.976 452.779 430.975 402.642 430.975 351.518 C 430.975 344.618 430.711 337.737 430.205 330.887 C 430.197 330.778 430.197 330.67 430.189 330.561 C 430.148 330.019 430.099 329.478 430.055 328.937 C 430.004 328.304 429.954 327.67 429.898 327.037 C 429.823 326.188 429.741 325.339 429.658 324.49 C 429.594 323.832 429.534 323.173 429.465 322.516 C 429.406 321.952 429.339 321.39 429.277 320.826 C 425.441 286.048 415.111 252.258 398.782 221.22 C 398.651 220.97 398.52 220.721 398.388 220.471 C 397.909 219.565 397.424 218.663 396.935 217.763 C 396.664 217.264 396.389 216.766 396.115 216.269 C 395.717 215.547 395.318 214.827 394.914 214.109 C 394.497 213.368 394.072 212.63 393.648 211.893 C 393.353 211.379 393.06 210.864 392.761 210.353 C 392.013 209.072 391.257 207.796 390.489 206.528 C 384.998 197.462 375.232 191.664 364.706 191.091 L 364.706 177.35 C 364.706 165.569 355.122 155.985 343.341 155.985 L 313.876 155.985 L 313.876 155.964 C 313.876 135.452 302.883 117.462 286.481 107.566 L 286.481 69.807 Z M 248.3 81.382 L 248.3 60.483 L 248.3 54.711 C 248.3 49.698 252.378 45.62 257.391 45.62 C 262.404 45.62 266.482 49.698 266.482 54.711 L 266.482 54.971 L 266.482 75.87 L 266.482 100.219 C 263.52 99.738 260.486 99.478 257.391 99.478 C 254.296 99.478 251.262 99.738 248.3 100.22 L 248.3 81.382 Z M 247.391 492.003 L 151.791 492.003 C 147.569 492.002 143.587 489.759 141.4 486.147 C 122.643 455.18 110.884 421.412 106.117 386.934 C 119.424 399.787 137.369 407.092 155.947 407.092 L 247.391 407.092 L 247.391 492.003 Z M 373.382 486.147 C 371.194 489.759 367.213 492.002 362.99 492.002 L 267.39 492.002 L 267.39 407.091 L 358.833 407.091 C 377.412 407.091 395.356 399.786 408.664 386.933 C 403.897 421.412 392.139 455.18 373.382 486.147 Z M 362.99 211.035 L 362.99 211.033 C 367.213 211.033 371.194 213.277 373.382 216.889 C 374.096 218.067 374.796 219.251 375.49 220.437 C 375.84 221.037 376.185 221.641 376.53 222.245 C 376.835 222.777 377.141 223.31 377.443 223.844 C 377.941 224.728 378.434 225.614 378.922 226.504 C 379.013 226.669 379.103 226.834 379.193 226.999 C 396.804 259.303 407.495 295.384 410.245 332.057 C 411.315 346.336 406.515 360.009 396.728 370.557 C 386.978 381.065 373.165 387.092 358.833 387.092 L 257.391 387.092 L 155.947 387.092 C 141.615 387.092 127.802 381.065 118.052 370.556 C 108.266 360.009 103.466 346.336 104.536 332.057 C 107.286 295.38 117.979 259.296 135.593 226.989 C 135.679 226.832 135.765 226.675 135.852 226.518 C 136.343 225.622 136.839 224.73 137.341 223.84 C 137.64 223.31 137.943 222.782 138.247 222.254 C 138.594 221.648 138.94 221.041 139.292 220.438 C 139.986 219.252 140.686 218.068 141.4 216.89 C 143.588 213.278 147.569 211.035 151.792 211.035 L 160.075 211.035 L 354.707 211.035 L 362.99 211.035 Z M 303.876 175.983 L 343.341 175.983 C 344.094 175.983 344.706 176.595 344.706 177.348 L 344.706 191.033 L 170.074 191.033 L 170.074 177.348 C 170.074 176.595 170.686 175.983 171.439 175.983 L 210.905 175.983 L 303.876 175.983 Z M 293.876 155.963 L 293.876 155.984 L 220.905 155.984 L 220.905 155.963 C 220.905 144.975 225.794 135.114 233.504 128.419 C 238.851 123.776 245.555 120.662 252.936 119.759 C 254.397 119.58 255.881 119.477 257.39 119.477 C 258.899 119.477 260.383 119.58 261.844 119.759 C 269.225 120.662 275.929 123.775 281.276 128.419 C 288.987 135.113 293.876 144.975 293.876 155.963 Z"/>
        </g>
    </g>
    <g>
        <g>
            <path d="M240.61,281.203c-4.483-3.226-10.731-2.205-13.958,2.278l-30.034,41.75c-3.225,4.483-2.206,10.732,2.278,13.958 c1.768,1.271,3.809,1.883,5.831,1.883c3.108,0,6.173-1.445,8.127-4.161l30.034-41.75 C246.113,290.678,245.093,284.429,240.61,281.203z"/>
        </g>
    </g>
    <g>
        <g>
            <path d="M269.923,252.122c-0.13-0.63-0.32-1.26-0.57-1.87c-0.25-0.6-0.56-1.18-0.92-1.72c-0.36-0.55-0.78-1.06-1.24-1.52 c-0.46-0.46-0.97-0.88-1.52-1.25c-0.54-0.36-1.12-0.67-1.73-0.92c-0.6-0.25-1.229-0.44-1.87-0.57c-1.29-0.26-2.609-0.26-3.91,0 c-0.63,0.13-1.26,0.32-1.869,0.57c-0.601,0.25-1.181,0.56-1.721,0.92c-0.55,0.37-1.06,0.79-1.52,1.25 c-0.46,0.46-0.88,0.97-1.25,1.52c-0.36,0.54-0.67,1.12-0.92,1.72c-0.25,0.61-0.44,1.24-0.57,1.87c-0.13,0.65-0.19,1.31-0.19,1.96 c0,0.65,0.061,1.31,0.19,1.95c0.13,0.64,0.32,1.27,0.57,1.87c0.25,0.61,0.56,1.19,0.92,1.73c0.37,0.55,0.79,1.06,1.25,1.52 c0.46,0.46,0.97,0.88,1.52,1.24c0.54,0.36,1.12,0.67,1.721,0.92c0.609,0.25,1.239,0.44,1.869,0.57c0.65,0.13,1.311,0.2,1.96,0.2 c2.631,0,5.211-1.07,7.07-2.93c0.46-0.46,0.88-0.97,1.24-1.52c0.36-0.54,0.67-1.12,0.92-1.73c0.25-0.6,0.44-1.23,0.57-1.87 c0.13-0.64,0.199-1.3,0.199-1.95C270.122,253.432,270.053,252.772,269.923,252.122z"/>
        </g>
    </g>
    <g>
        <g>
            <path d="M344.952,241.964c-4.484-3.226-10.733-2.205-13.957,2.278l-70.473,97.96c-3.225,4.484-2.205,10.733,2.278,13.958 c1.768,1.271,3.809,1.883,5.831,1.883c3.108,0,6.173-1.445,8.127-4.161l70.471-97.96 C350.455,251.439,349.435,245.19,344.952,241.964z"/>
        </g>
    </g>
    <g/>
    <g/>
    <g/>
    <g/>
    <g/>
    <g/>
    <g/>
    <g/>
    <g/>
    <g/>
    <g/>
    <g/>
    <g/>
    <g/>
    <g/>
</svg>