<svg width="100%" height="100%" viewBox="0 0 32 24" fill="none" xmlns="http://www.w3.org/2000/svg">
<mask id="mask0" mask-type="alpha" maskUnits="userSpaceOnUse" x="0" y="0" width="32" height="24">
<rect width="32" height="24" fill="white"/>
</mask>
<g mask="url(#mask0)">
<path fill-rule="evenodd" clip-rule="evenodd" d="M0 0V24H32V0H0Z" fill="#FECA00"/>
<mask id="mask1" mask-type="alpha" maskUnits="userSpaceOnUse" x="0" y="0" width="32" height="24">
<path fill-rule="evenodd" clip-rule="evenodd" d="M0 0V24H32V0H0Z" fill="white"/>
</mask>
<g mask="url(#mask1)">
<path fill-rule="evenodd" clip-rule="evenodd" d="M0 0V8H32V0H0Z" fill="#DB501C"/>
<path fill-rule="evenodd" clip-rule="evenodd" d="M0 16V24H32V16H0Z" fill="#5EAA22"/>
<path d="M12.4463 9.95905L12.4826 9.9238L19.7023 16.8685L19.6659 16.9038L12.4463 9.95905Z" fill="#864C26"/>
<path d="M20.2213 16.4173L20.1901 16.4569L11.791 10.2874L11.8222 10.2478L20.2213 16.4173Z" fill="#864C26"/>
<path d="M20.398 15.8016L20.3727 15.845L11.0298 10.7594L11.0551 10.7161L20.398 15.8016Z" fill="#A05A2C"/>
<path fill-rule="evenodd" clip-rule="evenodd" d="M11.6018 9.11221L12.3093 9.58029L12.2698 9.60726C12.2859 9.61653 12.3026 9.62648 12.3197 9.63709C12.3396 9.64943 12.3536 9.6643 12.3618 9.68139C12.3761 9.63913 12.3758 9.58781 12.3605 9.52663L12.3233 9.37759L12.4072 9.50823C12.5405 9.71582 12.5604 9.86435 12.4567 9.9484C12.3554 10.0305 12.196 10.0091 11.9806 9.89074L11.8931 9.84265L11.9929 9.84416C12.075 9.8454 12.1453 9.83572 12.2041 9.81531L12.1633 9.80437C12.1287 9.7951 12.1031 9.77088 12.0857 9.73292L12.0163 9.78027L11.6018 9.11221ZM10.7533 9.64129L11.5314 9.97939L11.4963 10.0137C11.5144 10.0202 11.5333 10.0274 11.5528 10.0352C11.5745 10.0439 11.5909 10.0561 11.6019 10.0715C11.6086 10.0275 11.5993 9.97708 11.5737 9.91961L11.5112 9.7793L11.6165 9.89338C11.7839 10.0747 11.8292 10.2175 11.7417 10.3183C11.6562 10.4167 11.4955 10.4233 11.2628 10.3442L11.1683 10.312L11.2669 10.2961C11.3481 10.2831 11.4158 10.2613 11.4703 10.2308L11.4278 10.2271C11.3915 10.2239 11.3617 10.2039 11.3378 10.1684L11.2776 10.2272L10.7533 9.64129ZM10.8046 10.4531L10 10.1841L10.5733 10.7221L10.628 10.6584C10.6551 10.6922 10.6867 10.7098 10.7235 10.7098H10.7662C10.7146 10.7449 10.649 10.7726 10.5691 10.7927L10.4723 10.8171L10.5693 10.8409C10.8079 10.8995 10.9674 10.8789 11.044 10.7734C11.1224 10.6654 11.0648 10.5271 10.8823 10.361L10.7674 10.2566L10.8419 10.3909C10.8724 10.4458 10.8861 10.4952 10.8833 10.5396C10.8709 10.5252 10.8536 10.5145 10.8312 10.5078C10.8107 10.5016 10.791 10.496 10.772 10.491L10.8046 10.4531ZM10.7166 10.4775L10.7174 10.4766L10.202 10.3042L10.5693 10.6489L10.5995 10.6137C10.5941 10.6033 10.5889 10.592 10.5839 10.58L10.5873 10.5787L10.5628 10.5523L10.6614 10.4669L10.6738 10.4691C10.6875 10.4715 10.7018 10.4743 10.7166 10.4775Z" fill="#E7E7E7"/>
<path fill-rule="evenodd" clip-rule="evenodd" d="M13.4712 16.2132L14.3059 14.7244L15.4768 15.0397L14.6341 16.3985H14.3059V16.5467L13.4712 16.2132Z" fill="#925229"/>
<path fill-rule="evenodd" clip-rule="evenodd" d="M13.1134 10.4886L12.5609 11.0628L12.3599 14.857L14.3507 15.1472C14.3507 15.1472 13.4832 14.3855 13.3553 13.9155C13.2274 13.4454 13.1866 11.6906 13.4285 11.4238L13.6175 11.5341L13.7695 11.0826" fill="#FFE000"/>
<path fill-rule="evenodd" clip-rule="evenodd" d="M11.189 10.7474C11.189 10.7474 10.9751 13.71 10.9751 14.2304C10.9751 14.7507 11.4168 15.9897 12.4238 15.9897C13.4308 15.9897 14.8126 15.4353 14.8126 15.2092C14.8126 14.9831 14.4001 14.8212 14.4001 14.8212C14.4001 14.8212 12.5482 14.9478 12.5482 14.2304C12.5482 13.5129 12.674 11.3892 12.7839 11.1388C12.8938 10.8884 13.2749 10.5108 13.2749 10.5108L12.5482 9.97069L12.4238 10.5108L11.9578 10.3522L11.8157 11.1388L11.189 10.7474Z" fill="#D52C1E"/>
<path fill-rule="evenodd" clip-rule="evenodd" d="M13.7765 11.0761L13.6426 11.4952L13.3721 11.381C13.3721 11.381 12.9677 13.2772 13.3721 14.0716C13.7765 14.8659 14.7948 14.9235 14.7948 14.9235L14.3646 11.4952L13.7765 11.0761Z" fill="#027934"/>
<path fill-rule="evenodd" clip-rule="evenodd" d="M13.7168 13.6382L12.7464 14.4057C12.7464 14.4057 12.4802 14.7872 12.7464 15.076C13.0125 15.3648 13.7505 15.6593 13.9246 15.3107C14.0987 14.962 14.6159 14.5537 14.6159 14.5537L13.7168 13.6382Z" fill="#E8A30C"/>
<path fill-rule="evenodd" clip-rule="evenodd" d="M14.4786 10.7425C14.7147 10.5372 14.8331 10.2868 14.7429 10.1831C14.6528 10.0794 14.3883 10.1618 14.1522 10.367C13.916 10.5723 13.7977 10.8227 13.8878 10.9264C13.9779 11.0301 14.2424 10.9478 14.4786 10.7425Z" fill="#E1E5E8"/>
<path fill-rule="evenodd" clip-rule="evenodd" d="M13.8832 9.30331C13.8832 9.30331 13.7881 9.28385 13.7451 9.27733C13.4382 9.2308 13.2847 9.2934 13.2847 9.46512C13.2847 9.75879 13.4803 10.0759 13.4803 10.2977C13.4803 10.5195 13.4898 10.8648 13.5839 10.6922C13.678 10.5195 14.1566 10.0007 14.1566 10.0007L13.8832 9.55058C13.8832 9.55058 14.562 9.62693 14.264 9.46512" fill="#D52C1E"/>
<path fill-rule="evenodd" clip-rule="evenodd" d="M15.9704 15.3782L15.4613 15.3731C15.0833 15.7468 15.0485 16.2496 15.3461 16.857C15.3461 16.857 15.4437 16.9981 15.4779 16.985C15.5258 16.9665 15.5924 16.762 15.5924 16.762C15.5697 16.1689 15.9477 15.7761 15.9704 15.3782Z" fill="#D52C1E"/>
<path fill-rule="evenodd" clip-rule="evenodd" d="M15.3256 15.3935L15.5086 15.3084C15.6891 15.6833 15.5987 16.0714 15.2506 16.4568L15.0991 16.3247C15.2506 15.8826 15.2506 15.6995 15.3256 15.3935Z" fill="#FFE000"/>
<path d="M15.0915 15.3816L15.2825 15.3257C15.3743 15.6396 15.3285 15.9634 15.1481 16.292L14.9736 16.1963C15.1296 15.9122 15.1678 15.6423 15.0915 15.3816Z" fill="#027934"/>
<path d="M19.5537 9.95905L19.5174 9.9238L12.2977 16.8685L12.3341 16.9038L19.5537 9.95905Z" fill="#864C26"/>
<path d="M11.7787 16.4173L11.8099 16.4569L20.209 10.2874L20.1778 10.2478L11.7787 16.4173Z" fill="#864C26"/>
<path d="M11.602 15.8016L11.6273 15.845L20.9702 10.7594L20.9449 10.7161L11.602 15.8016Z" fill="#A05A2C"/>
<path fill-rule="evenodd" clip-rule="evenodd" d="M20.3982 9.11221L19.6907 9.58029L19.7302 9.60726C19.7141 9.61653 19.6974 9.62648 19.6803 9.63709C19.6604 9.64943 19.6464 9.6643 19.6382 9.68139C19.6239 9.63913 19.6242 9.58781 19.6395 9.52663L19.6767 9.37759L19.5928 9.50823C19.4595 9.71582 19.4396 9.86435 19.5433 9.9484C19.6446 10.0305 19.804 10.0091 20.0194 9.89074L20.1069 9.84265L20.0071 9.84416C19.925 9.8454 19.8547 9.83572 19.7959 9.81531L19.8367 9.80437C19.8713 9.7951 19.8969 9.77088 19.9143 9.73292L19.9837 9.78027L20.3982 9.11221ZM21.2467 9.64129L20.4686 9.97939L20.5037 10.0137C20.4856 10.0202 20.4667 10.0274 20.4472 10.0352C20.4255 10.0439 20.4091 10.0561 20.3981 10.0715C20.3914 10.0275 20.4007 9.97708 20.4263 9.91961L20.4888 9.7793L20.3835 9.89338C20.2161 10.0747 20.1708 10.2175 20.2583 10.3183C20.3438 10.4167 20.5045 10.4233 20.7372 10.3442L20.8317 10.312L20.7331 10.2961C20.6519 10.2831 20.5842 10.2613 20.5297 10.2308L20.5722 10.2271C20.6085 10.2239 20.6383 10.2039 20.6622 10.1684L20.7224 10.2272L21.2467 9.64129ZM21.1954 10.4531L22 10.1841L21.4267 10.7221L21.372 10.6584C21.3449 10.6922 21.3133 10.7098 21.2765 10.7098H21.2338C21.2854 10.7449 21.351 10.7726 21.4309 10.7927L21.5277 10.8171L21.4307 10.8409C21.1921 10.8995 21.0326 10.8789 20.956 10.7734C20.8776 10.6654 20.9352 10.5271 21.1177 10.361L21.2326 10.2566L21.1581 10.3909C21.1276 10.4458 21.1139 10.4952 21.1167 10.5396C21.1291 10.5252 21.1464 10.5145 21.1688 10.5078C21.1893 10.5016 21.209 10.496 21.228 10.491L21.1954 10.4531ZM21.2834 10.4775L21.2826 10.4766L21.798 10.3042L21.4307 10.6489L21.4005 10.6137C21.4059 10.6033 21.4111 10.592 21.4161 10.58L21.4127 10.5787L21.4372 10.5523L21.3386 10.4669L21.3262 10.4691C21.3125 10.4715 21.2982 10.4743 21.2834 10.4775Z" fill="#E7E7E7"/>
<path fill-rule="evenodd" clip-rule="evenodd" d="M18.5288 16.2132L17.6941 14.7244L16.5232 15.0397L17.3659 16.3985H17.6941V16.5467L18.5288 16.2132Z" fill="#925229"/>
<path fill-rule="evenodd" clip-rule="evenodd" d="M18.8866 10.4886L19.4391 11.0628L19.6401 14.857L17.6493 15.1472C17.6493 15.1472 18.5168 14.3855 18.6447 13.9155C18.7726 13.4454 18.8134 11.6906 18.5715 11.4238L18.3825 11.5341L18.2305 11.0826" fill="#FFE000"/>
<path fill-rule="evenodd" clip-rule="evenodd" d="M20.811 10.7474C20.811 10.7474 21.0249 13.71 21.0249 14.2304C21.0249 14.7507 20.5832 15.9897 19.5762 15.9897C18.5692 15.9897 17.1874 15.4353 17.1874 15.2092C17.1874 14.9831 17.5999 14.8212 17.5999 14.8212C17.5999 14.8212 19.4518 14.9478 19.4518 14.2304C19.4518 13.5129 19.326 11.3892 19.2161 11.1388C19.1062 10.8884 18.7251 10.5108 18.7251 10.5108L19.4518 9.97069L19.5762 10.5108L20.0422 10.3522L20.1843 11.1388L20.811 10.7474Z" fill="#D52C1E"/>
<path fill-rule="evenodd" clip-rule="evenodd" d="M18.2235 11.0761L18.3574 11.4952L18.6279 11.381C18.6279 11.381 19.0323 13.2772 18.6279 14.0715C18.2235 14.8659 17.2052 14.9235 17.2052 14.9235L17.6354 11.4952L18.2235 11.0761Z" fill="#027934"/>
<path fill-rule="evenodd" clip-rule="evenodd" d="M18.2832 13.6382L19.2536 14.4057C19.2536 14.4057 19.5198 14.7872 19.2536 15.076C18.9875 15.3648 18.2495 15.6593 18.0754 15.3107C17.9013 14.962 17.3841 14.5537 17.3841 14.5537L18.2832 13.6382Z" fill="#E8A30C"/>
<path fill-rule="evenodd" clip-rule="evenodd" d="M17.5214 10.7425C17.2853 10.5372 17.1669 10.2868 17.2571 10.1831C17.3472 10.0794 17.6117 10.1617 17.8478 10.367C18.084 10.5723 18.2023 10.8227 18.1122 10.9264C18.0221 11.0301 17.7576 10.9478 17.5214 10.7425Z" fill="#E1E5E8"/>
<path fill-rule="evenodd" clip-rule="evenodd" d="M16.0296 15.3782L16.5387 15.3731C16.9167 15.7468 16.9515 16.2496 16.6539 16.857C16.6539 16.857 16.5563 16.9981 16.5221 16.985C16.4742 16.9665 16.4076 16.762 16.4076 16.762C16.4303 16.1689 16.0523 15.7761 16.0296 15.3782Z" fill="#D52C1E"/>
<path fill-rule="evenodd" clip-rule="evenodd" d="M16.6744 15.3935L16.4914 15.3084C16.3109 15.6833 16.4013 16.0714 16.7494 16.4568L16.9009 16.3247C16.7494 15.8826 16.7494 15.6995 16.6744 15.3935Z" fill="#FFE000"/>
<path d="M16.9085 15.3816L16.7175 15.3257C16.6257 15.6396 16.6715 15.9634 16.8519 16.292L17.0264 16.1963C16.8704 15.9122 16.8322 15.6423 16.9085 15.3816Z" fill="#027934"/>
<path fill-rule="evenodd" clip-rule="evenodd" d="M13.5537 12.8209C13.5537 14.2601 14.6164 15.4577 15.9743 15.4577C17.3322 15.4577 18.3949 14.2601 18.3949 12.8209C18.3949 11.3817 17.3322 10.1841 15.9743 10.1841C14.6164 10.1841 13.5537 11.3817 13.5537 12.8209ZM17.8284 12.8209C17.8284 13.9749 16.9983 14.9104 15.9743 14.9104C14.9503 14.9104 14.1202 13.9749 14.1202 12.8209C14.1202 11.6669 14.9503 10.7313 15.9743 10.7313C16.9983 10.7313 17.8284 11.6669 17.8284 12.8209Z" fill="#00A6DE"/>
<path fill-rule="evenodd" clip-rule="evenodd" d="M15.9742 14.9104C16.9982 14.9104 17.8283 13.9749 17.8283 12.8209C17.8283 11.6669 16.9982 10.7313 15.9742 10.7313C14.9502 10.7313 14.1201 11.6669 14.1201 12.8209C14.1201 13.9749 14.9502 14.9104 15.9742 14.9104Z" fill="#FFC036"/>
<mask id="mask2" mask-type="alpha" maskUnits="userSpaceOnUse" x="14" y="10" width="4" height="5">
<path fill-rule="evenodd" clip-rule="evenodd" d="M15.9742 14.9104C16.9982 14.9104 17.8283 13.9749 17.8283 12.8209C17.8283 11.6669 16.9982 10.7313 15.9742 10.7313C14.9502 10.7313 14.1201 11.6669 14.1201 12.8209C14.1201 13.9749 14.9502 14.9104 15.9742 14.9104Z" fill="white"/>
</mask>
<g mask="url(#mask2)">
<path fill-rule="evenodd" clip-rule="evenodd" d="M15.9741 12.4477L15.7335 12.9439L15.7395 12.396L15.2998 12.7422L15.5513 12.2511L14.9997 12.3787L15.4469 12.0416L14.8926 11.9254L15.4469 11.8091L14.9997 11.472L15.5513 11.5997L15.2998 11.1085L15.7395 11.4547L15.7335 10.9068L15.9741 11.403L16.2148 10.9068L16.2088 11.4547L16.6485 11.1085L16.3969 11.5997L16.9486 11.472L16.5013 11.8091L17.0557 11.9254L16.5013 12.0416L16.9486 12.3787L16.3969 12.2511L16.6485 12.7422L16.2088 12.396L16.2148 12.9439L15.9741 12.4477Z" fill="#D52C1E"/>
<path fill-rule="evenodd" clip-rule="evenodd" d="M14.0411 12.941C14.0411 12.941 15.491 11.9201 15.8472 11.9201C16.2034 11.9201 17.7229 12.9466 18.0338 13.0863C18.3446 13.2259 18.0338 15.9642 18.0338 15.9642H13.9209L14.0411 12.941Z" fill="#027934"/>
</g>
<path fill-rule="evenodd" clip-rule="evenodd" d="M14.0303 11.7258L14.1197 11.7752C14.6082 10.9507 15.2298 10.5418 15.9881 10.5418C16.837 10.5891 17.4727 11.0524 17.8971 11.9384L17.9906 11.8966C17.551 10.9789 16.8829 10.492 15.991 10.4424C15.1897 10.4423 14.536 10.8724 14.0303 11.7258ZM13.6703 13.3159L13.8368 13.204L14.0033 13.3159L13.9445 13.1283L14.1062 13.01L13.9034 13.006L13.8368 12.8209L13.7702 13.006L13.5674 13.01L13.729 13.1283L13.6703 13.3159ZM14.0428 13.9502L13.8763 14.0622L13.935 13.8746L13.7734 13.7562L13.9762 13.7522L14.0428 13.5672L14.1094 13.7522L14.3122 13.7562L14.1505 13.8746L14.2093 14.0622L14.0428 13.9502ZM14.2883 14.6592L14.4548 14.5473L14.6213 14.6592L14.5626 14.4716L14.7242 14.3533L14.5214 14.3493L14.4548 14.1642L14.3882 14.3493L14.1854 14.3533L14.347 14.4716L14.2883 14.6592ZM15.0728 15.0448L14.9063 15.1567L14.9651 14.9691L14.8034 14.8508L15.0062 14.8468L15.0728 14.6617L15.1394 14.8468L15.3422 14.8508L15.1806 14.9691L15.2393 15.1567L15.0728 15.0448ZM15.7819 15.4054L15.9484 15.2935L16.1149 15.4054L16.0561 15.2179L16.2178 15.0995L16.015 15.0955L15.9484 14.9104L15.8818 15.0955L15.679 15.0995L15.8406 15.2179L15.7819 15.4054ZM18.1115 13.204L18.278 13.3159L18.2192 13.1283L18.3809 13.01L18.1781 13.006L18.1115 12.8209L18.0449 13.006L17.8421 13.01L18.0037 13.1283L17.945 13.3159L18.1115 13.204ZM18.0719 14.0622L17.9055 13.9502L17.739 14.0622L17.7977 13.8746L17.6361 13.7562L17.8389 13.7522L17.9055 13.5672L17.972 13.7522L18.1748 13.7562L18.0132 13.8746L18.0719 14.0622ZM17.4934 14.5473L17.6599 14.6592L17.6012 14.4716L17.7628 14.3533L17.56 14.3493L17.4934 14.1642L17.4268 14.3493L17.224 14.3533L17.3857 14.4716L17.3269 14.6592L17.4934 14.5473ZM17.0419 15.1567L16.8754 15.0448L16.7089 15.1567L16.7676 14.9691L16.606 14.8508L16.8088 14.8468L16.8754 14.6617L16.942 14.8468L17.1448 14.8508L16.9832 14.9691L17.0419 15.1567Z" fill="#FFC036"/>
<path d="M14.6835 7.00699L14.8822 7.15161C14.3728 7.6087 14.277 8.11841 14.3746 8.55631C14.4762 9.01252 14.928 9.49916 15.7492 9.99889L15.4473 10.462C14.5095 9.89131 13.9694 9.36329 13.8293 8.73447C13.6852 8.08734 14.039 7.5852 14.6835 7.00699Z" fill="#036A2D"/>
<path d="M17.3863 7.00699L17.1876 7.15161C17.697 7.6087 17.7928 8.11841 17.6952 8.55631C17.5936 9.01252 17.1419 9.49916 16.3206 9.99889L16.6225 10.462C17.5604 9.89131 18.1004 9.36329 18.2405 8.73447C18.3847 8.08734 18.0308 7.5852 17.3863 7.00699Z" fill="#036A2D"/>
<path fill-rule="evenodd" clip-rule="evenodd" d="M12.7751 8.8615C12.7751 8.8615 13.6445 8.26038 14.057 8.26038C14.4696 8.26038 15.0202 8.12268 15.1065 8.43895C15.1928 8.75521 15.356 8.66362 15.6755 8.66362C15.9951 8.66362 16.6229 8.66362 16.6229 8.66362C16.6229 8.66362 16.4354 8.26038 16.783 8.26038C17.1305 8.26038 18.5819 8.46573 19.02 8.66362C19.4581 8.8615 19.4801 8.97848 19.4801 8.97848C19.4801 8.97848 19.0747 8.74452 18.6262 8.8615C18.1776 8.97848 17.3641 9.49354 16.9935 9.49354C16.6229 9.49354 16.3264 9.89168 16.3264 9.89168C16.3264 9.89168 16.3508 9.6876 16.0132 9.78964C15.6755 9.89168 15.6834 10.3724 15.395 10.2841C15.1065 10.1959 15.4781 9.49354 15.395 9.49354C15.3119 9.49354 14.7229 9.26271 14.7229 9.26271C14.7229 9.26271 14.1514 8.74452 13.3028 8.8615C12.4542 8.97848 12.7751 8.8615 12.7751 8.8615Z" fill="#452C24"/>
<path fill-rule="evenodd" clip-rule="evenodd" d="M15.871 9.28855C16.0417 9.28855 16.18 9.16604 16.18 9.01492C16.18 8.8638 16.0417 8.74129 15.871 8.74129C15.7004 8.74129 15.562 8.8638 15.562 9.01492C15.562 9.16604 15.7004 9.28855 15.871 9.28855Z" fill="#E7E7E7"/>
<path fill-rule="evenodd" clip-rule="evenodd" d="M15.2036 9.00716C15.2036 9.00716 15.3035 8.81821 15.5016 8.81821C15.6996 8.81821 16.071 8.81821 16.071 8.91268C16.071 9.00716 16.1008 9.13058 15.8012 9.13058C15.5016 9.13058 15.6935 9.00716 15.5016 9.00716C15.3096 9.00716 15.2036 9.00716 15.2036 9.00716Z" fill="#E8A30C"/>
<path fill-rule="evenodd" clip-rule="evenodd" d="M18.7362 10.2834C18.8513 10.1628 18.9156 9.87043 18.9156 9.87043C18.9156 9.87043 18.4015 9.95273 18.2818 9.87043C18.1621 9.78813 18.1 9.54694 18.1 9.54694C18.1 9.54694 17.6367 9.75861 17.8134 9.75861C17.9901 9.75861 18.1 9.91516 18.1 9.91516L18.4595 10.0476C18.4595 10.0476 18.2208 10.2834 18.3401 10.2834C18.4595 10.2834 18.6211 10.404 18.7362 10.2834Z" fill="#E1E5E8"/>
<path d="M17.8308 10.3838L17.7661 10.3065L18.2178 9.95293L18.2825 10.0303L17.8308 10.3838Z" fill="#925229"/>
</g>
</g>
<rect width="32" height="24" fill="url(#paint0_linear)" style="mix-blend-mode:overlay"/>
<path d="M2 1H30V-1H2V1ZM31 2V22H33V2H31ZM30 23H2V25H30V23ZM1 22V2H-1V22H1ZM2 23C1.44772 23 1 22.5523 1 22H-1C-1 23.6569 0.343146 25 2 25V23ZM31 22C31 22.5523 30.5523 23 30 23V25C31.6569 25 33 23.6569 33 22H31ZM30 1C30.5523 1 31 1.44772 31 2H33C33 0.343146 31.6569 -1 30 -1V1ZM2 -1C0.343146 -1 -1 0.343145 -1 2H1C1 1.44772 1.44771 1 2 1V-1Z" fill="black" fill-opacity="0.1" style="mix-blend-mode:multiply"/>
<defs>
<linearGradient id="paint0_linear" x1="16" y1="0" x2="16" y2="24" gradientUnits="userSpaceOnUse">
<stop stop-color="white" stop-opacity="0.7"/>
<stop offset="1" stop-opacity="0.3"/>
</linearGradient>
</defs>
</svg>
